999
The file was created in CADSoftTools software
999
CADEditorX 14; 
  0
SECTION
  2
HEADER
  9
$ACADVER
  1
AC1018
  9
$DWGCODEPAGE
  3
GB2312
  9
$CLAYER
  8
0
  9
$CELTYPE
  6
BYLAYER
  9
$CELTSCALE
 40
1
  9
$CELWEIGHT
370
-1
  9
$DIMALT
 70
0
  9
$DIMALTF
 40
1
  9
$DIMPOST
  1

  9
$DIMAPOST
  1

  9
$DIMSCALE
 40
1
  9
$DIMASZ
 40
2.5
  9
$DIMCLRD
 70
0
  9
$DIMCLRE
 70
0
  9
$DIMCLRT
 70
0
  9
$DIMEXE
 40
2.5
  9
$DIMEXO
 40
0.868
  9
$DIMGAP
 40
0.1
  9
$DIMLFAC
 40
1
  9
$DIMDEC
 70
2
  9
$DIMTAD
 70
0
  9
$DIMCEN
 40
0.09
  9
$DIMTIH
 70
0
  9
$DIMTIX
 70
0
  9
$DIMTOH
 70
0
  9
$DIMSE1
 70
0
  9
$DIMSE2
 70
0
  9
$DIMSD1
 70
0
  9
$DIMSD2
 70
0
  9
$DIMLWD
 70
-1
  9
$DIMLWE
 70
-1
  9
$DIMSAH
 70
0
  9
$DIMBLK
  1

  9
$DIMBLK1
  1

  9
$DIMBLK2
  1

  9
$DIMLDRBLK
  1

  9
$DIMSTYLE
  2
STANDARD
  9
$DIMTP
 40
0
  9
$DIMTM
 40
0
  9
$DIMTXT
 40
2.5
  9
$DIMLUNIT
 70
2
  9
$DIMDSEP
 70
46
  9
$DIMTXSTY
  7
STANDARD
  9
$TEXTSIZE
 40
2.5
  9
$TEXTSTYLE
  7
STANDARD
  9
$HANDSEED
  5
00000000000072FA
  9
$FILLETRAD
 40
0.5
  9
$INSUNITS
 70
6
  9
$LIMMIN
 10
-62.7913569713148
 20
-85.5754827327739
  9
$LIMMAX
 10
160.964194606266
 20
52.1129206467909
  9
$FILLMODE
 70
1
  9
$LTSCALE
 40
1
  9
$MEASUREMENT
 70
1
  9
$ATTMODE
 70
1
  9
$PDMODE
 70
0
  9
$PDSIZE
 40
0
  9
$TILEMODE
 70
1
  9
$UCSORG
 10
0
 20
0
 30
0
  9
$UCSXDIR
 10
1
 20
0
 30
0
  9
$UCSYDIR
 10
0
 20
1
 30
0
  9
$INSBASE
 10
0
 20
0
 30
0
  9
$XCLIPFRAME
290
1
  9
$DIMASSOC
280
2
  9
$TDCREATE
 40
2459808.44176845
  9
$TDINDWG
 40
0.172611111111111
  9
$TDUPDATE
 40
2459808.61437956
  0
ENDSEC
  0
SECTION
  2
CLASSES
  0
CLASS
  1
IMAGE
  2
AcDbRasterImage
  3
ISM
 90
2175
 91
1
280
0
281
1
  0
CLASS
  1
IMAGEDEF
  2
AcDbRasterImageDef
  3
ISM
 90
0
 91
1
280
0
281
0
  0
CLASS
  1
WIPEOUT
  2
AcDbWipeout
  3
"WipeOut"
 90
2175
 91
1
280
0
281
1
  0
CLASS
  1
WIPEOUTVARIABLES
  2
AcDbWipeoutVariables
  3
"WipeOut"
 90
0
 91
1
280
0
281
0
  0
CLASS
  1
MPOLYGON
  2
AcDbMPolygon
  3
"AcMPolygonObj15"
 90
3071
 91
1
280
0
281
1
  0
ENDSEC
  0
SECTION
  2
TABLES
  0
TABLE
  2
APPID
  5
72BA
100
AcDbSymbolTable
  0
APPID
  5
72BB
100
AcDbSymbolTableRecord
100
AcDbRegAppTableRecord
  2
ACAD
 70
0
  0
APPID
  5
12
100
AcDbSymbolTableRecord
100
AcDbRegAppTableRecord
  2
CSTINVENTORY
 70
0
  0
APPID
  5
72BC
100
AcDbSymbolTableRecord
100
AcDbRegAppTableRecord
  2
AcDbAttr
 70
0
  0
APPID
  5
72BD
100
AcDbSymbolTableRecord
100
AcDbRegAppTableRecord
  2
PE_URL
 70
0
  0
ENDTAB
  0
TABLE
  2
BLOCK_RECORD
  5
72BE
100
AcDbSymbolTable
  0
BLOCK_RECORD
  5
20
100
AcDbSymbolTableRecord
100
AcDbBlockTableRecord
  2
*MODEL_SPACE
  0
BLOCK_RECORD
  5
72BF
100
AcDbSymbolTableRecord
100
AcDbBlockTableRecord
  2
*PAPER_SPACE
  0
BLOCK_RECORD
  5
10
100
AcDbSymbolTableRecord
100
AcDbBlockTableRecord
  2
_CLOSEDFILLED
  0
BLOCK_RECORD
  5
15
100
AcDbSymbolTableRecord
100
AcDbBlockTableRecord
  2
ABViewer_RedLine
  0
BLOCK_RECORD
  5
40
102
{ACAD_XDICTIONARY
360
7270
102
}
100
AcDbSymbolTableRecord
100
AcDbBlockTableRecord
  2
*D3
  0
BLOCK_RECORD
  5
32
100
AcDbSymbolTableRecord
100
AcDbBlockTableRecord
  2
sgCLOSEDFILEDLINE
  0
BLOCK_RECORD
  5
67
102
{ACAD_XDICTIONARY
360
7272
102
}
100
AcDbSymbolTableRecord
100
AcDbBlockTableRecord
  2
*D5
  0
BLOCK_RECORD
  5
1FC3
102
{ACAD_XDICTIONARY
360
7274
102
}
100
AcDbSymbolTableRecord
100
AcDbBlockTableRecord
  2
*D6
  0
BLOCK_RECORD
  5
1FF3
102
{ACAD_XDICTIONARY
360
7276
102
}
100
AcDbSymbolTableRecord
100
AcDbBlockTableRecord
  2
*D7
  0
BLOCK_RECORD
  5
2010
102
{ACAD_XDICTIONARY
360
7278
102
}
100
AcDbSymbolTableRecord
100
AcDbBlockTableRecord
  2
*D8
  0
BLOCK_RECORD
  5
2058
102
{ACAD_XDICTIONARY
360
727A
102
}
100
AcDbSymbolTableRecord
100
AcDbBlockTableRecord
  2
*D9
  0
BLOCK_RECORD
  5
2095
102
{ACAD_XDICTIONARY
360
727C
102
}
100
AcDbSymbolTableRecord
100
AcDbBlockTableRecord
  2
*D10
  0
BLOCK_RECORD
  5
20E8
102
{ACAD_XDICTIONARY
360
727E
102
}
100
AcDbSymbolTableRecord
100
AcDbBlockTableRecord
  2
*D11
  0
BLOCK_RECORD
  5
2125
102
{ACAD_XDICTIONARY
360
7280
102
}
100
AcDbSymbolTableRecord
100
AcDbBlockTableRecord
  2
*D12
  0
BLOCK_RECORD
  5
2162
102
{ACAD_XDICTIONARY
360
7282
102
}
100
AcDbSymbolTableRecord
100
AcDbBlockTableRecord
  2
*D13
  0
BLOCK_RECORD
  5
217F
102
{ACAD_XDICTIONARY
360
7284
102
}
100
AcDbSymbolTableRecord
100
AcDbBlockTableRecord
  2
*D14
  0
BLOCK_RECORD
  5
2203
102
{ACAD_XDICTIONARY
360
7286
102
}
100
AcDbSymbolTableRecord
100
AcDbBlockTableRecord
  2
*D15
  0
BLOCK_RECORD
  5
2256
102
{ACAD_XDICTIONARY
360
7288
102
}
100
AcDbSymbolTableRecord
100
AcDbBlockTableRecord
  2
*D16
  0
BLOCK_RECORD
  5
240A
102
{ACAD_XDICTIONARY
360
728A
102
}
100
AcDbSymbolTableRecord
100
AcDbBlockTableRecord
  2
*D17
  0
BLOCK_RECORD
  5
3C56
102
{ACAD_XDICTIONARY
360
728C
102
}
100
AcDbSymbolTableRecord
100
AcDbBlockTableRecord
  2
*D18
  0
BLOCK_RECORD
  5
3C7D
102
{ACAD_XDICTIONARY
360
728E
102
}
100
AcDbSymbolTableRecord
100
AcDbBlockTableRecord
  2
*D19
  0
BLOCK_RECORD
  5
3CEA
102
{ACAD_XDICTIONARY
360
7290
102
}
100
AcDbSymbolTableRecord
100
AcDbBlockTableRecord
  2
*D20
  0
BLOCK_RECORD
  5
3D40
102
{ACAD_XDICTIONARY
360
7292
102
}
100
AcDbSymbolTableRecord
100
AcDbBlockTableRecord
  2
*D21
  0
BLOCK_RECORD
  5
3D59
102
{ACAD_XDICTIONARY
360
7294
102
}
100
AcDbSymbolTableRecord
100
AcDbBlockTableRecord
  2
*D22
  0
BLOCK_RECORD
  5
3DC2
102
{ACAD_XDICTIONARY
360
7296
102
}
100
AcDbSymbolTableRecord
100
AcDbBlockTableRecord
  2
*D23
  0
BLOCK_RECORD
  5
3E18
102
{ACAD_XDICTIONARY
360
7298
102
}
100
AcDbSymbolTableRecord
100
AcDbBlockTableRecord
  2
*D24
  0
BLOCK_RECORD
  5
3E81
102
{ACAD_XDICTIONARY
360
729A
102
}
100
AcDbSymbolTableRecord
100
AcDbBlockTableRecord
  2
*D25
  0
BLOCK_RECORD
  5
3ED7
102
{ACAD_XDICTIONARY
360
729C
102
}
100
AcDbSymbolTableRecord
100
AcDbBlockTableRecord
  2
*D26
  0
BLOCK_RECORD
  5
3F6E
102
{ACAD_XDICTIONARY
360
729E
102
}
100
AcDbSymbolTableRecord
100
AcDbBlockTableRecord
  2
*D27
  0
BLOCK_RECORD
  5
3FD7
102
{ACAD_XDICTIONARY
360
72A0
102
}
100
AcDbSymbolTableRecord
100
AcDbBlockTableRecord
  2
*D28
  0
BLOCK_RECORD
  5
4040
102
{ACAD_XDICTIONARY
360
72A2
102
}
100
AcDbSymbolTableRecord
100
AcDbBlockTableRecord
  2
*D29
  0
BLOCK_RECORD
  5
40A9
102
{ACAD_XDICTIONARY
360
72A4
102
}
100
AcDbSymbolTableRecord
100
AcDbBlockTableRecord
  2
*D30
  0
BLOCK_RECORD
  5
418D
102
{ACAD_XDICTIONARY
360
72A6
102
}
100
AcDbSymbolTableRecord
100
AcDbBlockTableRecord
  2
*D31
  0
BLOCK_RECORD
  5
41C5
102
{ACAD_XDICTIONARY
360
72A8
102
}
100
AcDbSymbolTableRecord
100
AcDbBlockTableRecord
  2
*D32
  0
BLOCK_RECORD
  5
41E7
102
{ACAD_XDICTIONARY
360
72AA
102
}
100
AcDbSymbolTableRecord
100
AcDbBlockTableRecord
  2
*D33
  0
BLOCK_RECORD
  5
425A
102
{ACAD_XDICTIONARY
360
72AC
102
}
100
AcDbSymbolTableRecord
100
AcDbBlockTableRecord
  2
*D34
  0
BLOCK_RECORD
  5
44B0
102
{ACAD_XDICTIONARY
360
72AE
102
}
100
AcDbSymbolTableRecord
100
AcDbBlockTableRecord
  2
*D35
  0
BLOCK_RECORD
  5
44CB
102
{ACAD_XDICTIONARY
360
72B0
102
}
100
AcDbSymbolTableRecord
100
AcDbBlockTableRecord
  2
*D36
  0
BLOCK_RECORD
  5
4562
102
{ACAD_XDICTIONARY
360
72B2
102
}
100
AcDbSymbolTableRecord
100
AcDbBlockTableRecord
  2
*D37
  0
BLOCK_RECORD
  5
459B
102
{ACAD_XDICTIONARY
360
72B4
102
}
100
AcDbSymbolTableRecord
100
AcDbBlockTableRecord
  2
*D38
  0
BLOCK_RECORD
  5
45E3
102
{ACAD_XDICTIONARY
360
72B6
102
}
100
AcDbSymbolTableRecord
100
AcDbBlockTableRecord
  2
*D39
  0
BLOCK_RECORD
  5
461C
102
{ACAD_XDICTIONARY
360
72B8
102
}
100
AcDbSymbolTableRecord
100
AcDbBlockTableRecord
  2
*D40
  0
ENDTAB
  0
TABLE
  2
STYLE
  5
3
100
AcDbSymbolTable
  0
STYLE
  5
A
100
AcDbSymbolTableRecord
100
AcDbTextStyleTableRecord
  2
STANDARD
 70
0
 40
0
 41
1
 50
0
 71
0
 42
2.5
  3
Arial.ttf
  4

1001
ACAD
1000
Arial
1071
0
  0
STYLE
  5
2811
100
AcDbSymbolTableRecord
100
AcDbTextStyleTableRecord
  2
romans
 70
0
 40
0
 41
1
 50
0
 71
0
 42
0
  3
romans.shx
  4
gbcbig.shx
1001
ACAD
1000
romans
1071
0
  0
STYLE
  5
28A9
100
AcDbSymbolTableRecord
100
AcDbTextStyleTableRecord
  2
±ê×¼
 70
0
 40
0
 41
0.666999995708466
 50
0
 71
0
 42
0
  3
SimSun312.ttf
  4

1001
ACAD
1000
ËÎÌå
1071
0
  0
ENDTAB
  0
TABLE
  2
LTYPE
  5
1
100
AcDbSymbolTable
  0
LTYPE
  5
9
100
AcDbSymbolTableRecord
100
AcDbLinetypeTableRecord
  2
CONTINUOUS
 70
0
  3

 72
65
 73
0
 40
0
  0
LTYPE
  5
7
100
AcDbSymbolTableRecord
100
AcDbLinetypeTableRecord
  2
BYLAYER
 70
0
  3

 72
65
 73
0
 40
0
  0
LTYPE
  5
8
100
AcDbSymbolTableRecord
100
AcDbLinetypeTableRecord
  2
BYBLOCK
 70
0
  3

 72
65
 73
0
 40
0
  0
LTYPE
  5
16
100
AcDbSymbolTableRecord
100
AcDbLinetypeTableRecord
  2
CENTER
 70
0
  3
_ _ 
 72
65
 73
4
 40
2
 49
1.25
 74
0
 49
-0.25
 74
0
 49
0.25
 74
0
 49
-0.25
 74
0
  0
LTYPE
  5
17
100
AcDbSymbolTableRecord
100
AcDbLinetypeTableRecord
  2
ISO dash
 70
0
  3
_ 
 72
65
 73
2
 40
1.5
 49
1.2
 74
0
 49
-0.3
 74
0
  0
LTYPE
  5
18
100
AcDbSymbolTableRecord
100
AcDbLinetypeTableRecord
  2
ISO dot
 70
0
  3
. 
 72
65
 73
2
 40
0.3
 49
0
 74
0
 49
-0.3
 74
0
  0
LTYPE
  5
19
100
AcDbSymbolTableRecord
100
AcDbLinetypeTableRecord
  2
ISO dash dot
 70
0
  3
_ . 
 72
65
 73
4
 40
1.8
 49
1.2
 74
0
 49
-0.3
 74
0
 49
0
 74
0
 49
-0.3
 74
0
  0
LTYPE
  5
1A
100
AcDbSymbolTableRecord
100
AcDbLinetypeTableRecord
  2
ISO dash double-dot
 70
0
  3
_ . . 
 72
65
 73
6
 40
2.1
 49
1.2
 74
0
 49
-0.3
 74
0
 49
0
 74
0
 49
-0.3
 74
0
 49
0
 74
0
 49
-0.3
 74
0
  0
LTYPE
  5
1B
100
AcDbSymbolTableRecord
100
AcDbLinetypeTableRecord
  2
ISO dash triple-dot
 70
0
  3
_ . . . 
 72
65
 73
8
 40
2.4
 49
1.2
 74
0
 49
-0.3
 74
0
 49
0
 74
0
 49
-0.3
 74
0
 49
0
 74
0
 49
-0.3
 74
0
 49
0
 74
0
 49
-0.3
 74
0
  0
LTYPE
  5
1C
100
AcDbSymbolTableRecord
100
AcDbLinetypeTableRecord
  2
ISO dash long gaps
 70
0
  3
_ 
 72
65
 73
2
 40
3
 49
1.2
 74
0
 49
-1.8
 74
0
  0
ENDTAB
  0
TABLE
  2
LAYER
  5
2
100
AcDbSymbolTable
  0
LAYER
  5
E
100
AcDbSymbolTableRecord
100
AcDbLayerTableRecord
  2
0
 70
0
 62
7
  6
CONTINUOUS
290
1
370
-3
390
0
  0
LAYER
  5
33
100
AcDbSymbolTableRecord
100
AcDbLayerTableRecord
  2
DEFPOINTS
 70
0
 62
7
290
0
370
-3
390
0
  0
LAYER
  5
2810
100
AcDbSymbolTableRecord
100
AcDbLayerTableRecord
  2
SPEC
 70
0
 62
2
  6
CONTINUOUS
290
1
370
18
390
0
  0
ENDTAB
  0
TABLE
  2
VPORT
  5
72C0
100
AcDbSymbolTable
  0
VPORT
  5
72C2
100
AcDbSymbolTableRecord
100
AcDbViewportTableRecord
  2
*ACTIVE
 70
0
 10
0
 20
0
 11
1
 21
1
 12
117.404070740372
 22
-65.4182846402293
 32
0
 13
0
 23
0
 14
1
 24
1
 15
1
 25
1
 16
0
 26
0
 36
1
 17
0
 27
0
 37
0
 40
41.0763145726178
 41
2.27700831024931
 42
50
 43
0
 44
0
 50
0
 51
0
 71
0
 72
100
 73
1
 74
1
 75
0
 76
0
 77
0
 78
0
  0
ENDTAB
  0
TABLE
  2
VIEW
  5
72C3
100
AcDbSymbolTable
  0
ENDTAB
  0
TABLE
  2
UCS
  5
72C4
100
AcDbSymbolTable
  0
ENDTAB
  0
TABLE
  2
DIMSTYLE
  5
4
100
AcDbSymbolTable
 70
1
100
AcDbDimStyleTable
 71
0
  0
DIMSTYLE
105
B
100
AcDbSymbolTableRecord
100
AcDbDimStyleTableRecord
  2
STANDARD
 70
0
  3

 40
1
 41
2.5
 42
0.868
 44
2.5
 47
0
 48
0
 73
0
 74
0
 75
0
 76
0
 77
0
140
2.5
141
0.09
144
1
147
0.1
173
0
174
0
176
0
177
0
178
0
277
2
278
46
281
0
282
0
271
2
340
A
371
-1
372
-1
  0
ENDTAB
  0
ENDSEC
  0
SECTION
  2
BLOCKS
  0
BLOCK
  5
72C5
100
AcDbEntity
  8
0
100
AcDbBlockBegin
  2
*MODEL_SPACE
 70
0
 10
0
 20
0
  0
ENDBLK
  5
72C6
100
AcDbEntity
  8
0
100
AcDbBlockEnd
  0
BLOCK
  5
72C7
100
AcDbEntity
  8
0
100
AcDbBlockBegin
  2
*PAPER_SPACE
 70
0
 10
0
 20
0
  0
ENDBLK
  5
72C8
100
AcDbEntity
  8
0
100
AcDbBlockEnd
  0
BLOCK
  5
F
100
AcDbEntity
  8
0
100
AcDbBlockBegin
  2
_CLOSEDFILLED
 70
0
 10
0
 20
0
 30
0
  3
_CLOSEDFILLED
  1

  0
SOLID
  5
C
100
AcDbEntity
  8
0
100
AcDbTrace
370
-2
 62
0
 10
-1
 20
0.166666666666667
 30
0
 11
0
 21
0
 31
0
 12
-1
 22
0.166666666666667
 32
0
 13
-1
 23
-0.166666666666667
 33
0
  0
LINE
  5
D
100
AcDbEntity
  8
0
100
AcDbLine
370
-2
 62
0
 10
-1
 20
0
 30
0
 11
-2
 21
0
 31
0
  0
ENDBLK
  5
72C9
100
AcDbEntity
  8
0
100
AcDbBlockEnd
  0
BLOCK
  5
14
100
AcDbEntity
  8
0
100
AcDbBlockBegin
  2
ABViewer_RedLine
 70
1
 10
0
 20
0
 30
0
  3
ABViewer_RedLine
  1

  0
ENDBLK
  5
72CA
100
AcDbEntity
  8
0
100
AcDbBlockEnd
  0
BLOCK
  5
3F
100
AcDbEntity
  8
0
100
AcDbBlockBegin
  2
*D3
 70
1
 10
0
 20
0
 30
0
  3
*D3
  1

  0
POINT
  5
42
100
AcDbEntity
  8
DEFPOINTS
100
AcDbPoint
370
-1
 62
0
  6
BYLAYER
 10
45.0883091408395
 20
4.89368379756767
 30
0
  0
POINT
  5
43
100
AcDbEntity
  8
DEFPOINTS
100
AcDbPoint
370
-1
 62
0
  6
BYLAYER
 10
-10.3116908591605
 20
4.89368379756767
 30
0
  0
LINE
  5
45
100
AcDbEntity
  8
0
100
AcDbLine
370
-1
 62
0
 10
45.0883091408395
 20
5.76168379756767
 30
0
 11
45.0883091408395
 21
10.88047343716
 31
0
  0
LINE
  5
46
100
AcDbEntity
  8
0
100
AcDbLine
370
-1
 62
0
 10
-10.3116908591605
 20
5.76168379756767
 30
0
 11
-10.3116908591605
 21
10.88047343716
 31
0
  0
LINE
  5
47
100
AcDbEntity
  8
0
100
AcDbLine
370
-1
 62
0
 10
45.0883091408395
 20
8.38047343715995
 30
0
 11
21.7566399335225
 21
8.38047343715995
 31
0
  0
LINE
  5
48
100
AcDbEntity
  8
0
100
AcDbLine
370
-1
 62
0
 10
-10.3116908591605
 20
8.38047343715995
 30
0
 11
13.0199783481566
 21
8.38047343715995
 31
0
  0
TEXT
  5
44
100
AcDbEntity
  8
0
100
AcDbText
370
-1
 62
0
 10
13.0199783481566
 20
6.87799630301361
 30
0
 40
2.5
  1
55,40
 50
0
 41
1
 51
0
  7
STANDARD
 71
0
 72
0
 11
0
 21
0
 31
0
100
AcDbText
 73
0
  0
INSERT
  5
49
100
AcDbEntity
  8
0
100
AcDbBlockReference
370
-1
 62
0
  6
BYLAYER
  2
_CLOSEDFILLED
 10
-10.3116908591605
 20
8.38047343715995
 30
0
 41
2.5
 42
2.5
 43
2.5
 50
180
  0
INSERT
  5
4A
100
AcDbEntity
  8
0
100
AcDbBlockReference
370
-1
 62
0
  6
BYLAYER
  2
_CLOSEDFILLED
 10
45.0883091408395
 20
8.38047343715995
 30
0
 41
2.5
 42
2.5
 43
2.5
  0
INSERT
  5
4B
100
AcDbEntity
  8
0
100
AcDbBlockReference
370
-1
 62
0
  6
BYLAYER
  2
sgCLOSEDFILEDLINE
 10
-10.3116908591605
 20
8.38047343715995
 30
0
 41
2.5
 42
2.5
 43
2.5
  0
INSERT
  5
4C
100
AcDbEntity
  8
0
100
AcDbBlockReference
370
-1
 62
0
  6
BYLAYER
  2
sgCLOSEDFILEDLINE
 10
45.0883091408395
 20
8.38047343715995
 30
0
 41
2.5
 42
2.5
 43
2.5
  0
ENDBLK
  5
72CB
100
AcDbEntity
  8
0
100
AcDbBlockEnd
  0
BLOCK
  5
31
100
AcDbEntity
  8
0
100
AcDbBlockBegin
  2
sgCLOSEDFILEDLINE
 70
0
 10
0
 20
0
 30
0
  3
sgCLOSEDFILEDLINE
  1

  0
LINE
  5
30
100
AcDbEntity
  8
0
100
AcDbLine
370
-1
 62
0
 10
0
 20
-0.333333333333333
 30
0
 11
0
 21
-1
 31
0
  0
ENDBLK
  5
72CC
100
AcDbEntity
  8
0
100
AcDbBlockEnd
  0
BLOCK
  5
66
100
AcDbEntity
  8
0
100
AcDbBlockBegin
  2
*D5
 70
1
 10
0
 20
0
 30
0
  3
*D5
  1

  0
POINT
  5
69
100
AcDbEntity
  8
DEFPOINTS
100
AcDbPoint
370
-1
 62
0
  6
BYLAYER
 10
-10.3116908591605
 20
-18.0063162024323
 30
0
  0
POINT
  5
6A
100
AcDbEntity
  8
DEFPOINTS
100
AcDbPoint
370
-1
 62
0
  6
BYLAYER
 10
-10.3116908591605
 20
4.89368379756767
 30
0
  0
LINE
  5
6C
100
AcDbEntity
  8
0
100
AcDbLine
370
-1
 62
0
 10
-11.1796908591605
 20
-18.0063162024323
 30
0
 11
-24.4370374618105
 21
-18.0063162024323
 31
0
  0
LINE
  5
6D
100
AcDbEntity
  8
0
100
AcDbLine
370
-1
 62
0
 10
-11.1796908591605
 20
4.89368379756767
 30
0
 11
-24.4370374618105
 21
4.89368379756767
 31
0
  0
LINE
  5
6E
100
AcDbEntity
  8
0
100
AcDbLine
370
-1
 62
0
 10
-21.9370374618105
 20
-18.0063162024323
 30
0
 11
-21.9370374618105
 21
-11.4200738243835
 31
0
  0
LINE
  5
6F
100
AcDbEntity
  8
0
100
AcDbLine
370
-1
 62
0
 10
-21.9370374618105
 20
4.89368379756767
 30
0
 11
-21.9370374618105
 21
-2.68341223901769
 31
0
  0
TEXT
  5
6B
100
AcDbEntity
  8
0
100
AcDbText
370
-1
 62
0
 10
-20.9299871569325
 20
-11.4200738243835
 30
0
 40
2.5
  1
22,90
 50
90
 41
1
 51
0
  7
STANDARD
 71
0
 72
0
 11
0
 21
0
 31
0
100
AcDbText
 73
0
  0
INSERT
  5
70
100
AcDbEntity
  8
0
100
AcDbBlockReference
370
-1
 62
0
  6
BYLAYER
  2
_CLOSEDFILLED
 10
-21.9370374618105
 20
4.89368379756767
 30
0
 41
2.5
 42
2.5
 43
2.5
 50
90
  0
INSERT
  5
71
100
AcDbEntity
  8
0
100
AcDbBlockReference
370
-1
 62
0
  6
BYLAYER
  2
_CLOSEDFILLED
 10
-21.9370374618105
 20
-18.0063162024323
 30
0
 41
2.5
 42
2.5
 43
2.5
 50
270
  0
INSERT
  5
72
100
AcDbEntity
  8
0
100
AcDbBlockReference
370
-1
 62
0
  6
BYLAYER
  2
sgCLOSEDFILEDLINE
 10
-21.9370374618105
 20
4.89368379756767
 30
0
 41
2.5
 42
2.5
 43
2.5
 50
270
  0
INSERT
  5
73
100
AcDbEntity
  8
0
100
AcDbBlockReference
370
-1
 62
0
  6
BYLAYER
  2
sgCLOSEDFILEDLINE
 10
-21.9370374618105
 20
-18.0063162024323
 30
0
 41
2.5
 42
2.5
 43
2.5
 50
270
  0
ENDBLK
  5
72CD
100
AcDbEntity
  8
0
100
AcDbBlockEnd
  0
BLOCK
  5
1FC2
100
AcDbEntity
  8
0
100
AcDbBlockBegin
  2
*D6
 70
1
 10
0
 20
0
 30
0
  3
*D6
  1

  0
POINT
  5
1FC5
100
AcDbEntity
  8
DEFPOINTS
100
AcDbPoint
370
-1
 62
0
  6
BYLAYER
 10
28.2283091408395
 20
-28.1467454074323
 30
0
  0
POINT
  5
1FC6
100
AcDbEntity
  8
DEFPOINTS
100
AcDbPoint
370
-1
 62
0
  6
BYLAYER
 10
5.82830914083955
 20
-28.1467454074323
 30
0
  0
LINE
  5
1FC8
100
AcDbEntity
  8
0
100
AcDbLine
370
-1
 62
0
 10
28.2283091408395
 20
-27.2787454074323
 30
0
 11
28.2283091408395
 21
-22.9679899588562
 31
0
  0
LINE
  5
1FC9
100
AcDbEntity
  8
0
100
AcDbLine
370
-1
 62
0
 10
5.82830914083955
 20
-27.2787454074323
 30
0
 11
5.82830914083955
 21
-22.9679899588562
 31
0
  0
LINE
  5
1FCA
100
AcDbEntity
  8
0
100
AcDbLine
370
-1
 62
0
 10
28.2283091408395
 20
-25.4679899588562
 30
0
 11
21.3966399335225
 21
-25.4679899588562
 31
0
  0
LINE
  5
1FCB
100
AcDbEntity
  8
0
100
AcDbLine
370
-1
 62
0
 10
5.82830914083955
 20
-25.4679899588562
 30
0
 11
12.6599783481566
 21
-25.4679899588562
 31
0
  0
TEXT
  5
1FC7
100
AcDbEntity
  8
0
100
AcDbText
370
-1
 62
0
 10
12.6599783481566
 20
-26.9704670930026
 30
0
 40
2.5
  1
22,40
 50
0
 41
1
 51
0
  7
STANDARD
 71
0
 72
0
 11
0
 21
0
 31
0
100
AcDbText
 73
0
  0
INSERT
  5
1FCC
100
AcDbEntity
  8
0
100
AcDbBlockReference
370
-1
 62
0
  6
BYLAYER
  2
_CLOSEDFILLED
 10
5.82830914083955
 20
-25.4679899588562
 30
0
 41
2.5
 42
2.5
 43
2.5
 50
180
  0
INSERT
  5
1FCD
100
AcDbEntity
  8
0
100
AcDbBlockReference
370
-1
 62
0
  6
BYLAYER
  2
_CLOSEDFILLED
 10
28.2283091408395
 20
-25.4679899588562
 30
0
 41
2.5
 42
2.5
 43
2.5
  0
INSERT
  5
1FCE
100
AcDbEntity
  8
0
100
AcDbBlockReference
370
-1
 62
0
  6
BYLAYER
  2
sgCLOSEDFILEDLINE
 10
5.82830914083955
 20
-25.4679899588562
 30
0
 41
2.5
 42
2.5
 43
2.5
  0
INSERT
  5
1FCF
100
AcDbEntity
  8
0
100
AcDbBlockReference
370
-1
 62
0
  6
BYLAYER
  2
sgCLOSEDFILEDLINE
 10
28.2283091408395
 20
-25.4679899588562
 30
0
 41
2.5
 42
2.5
 43
2.5
  0
ENDBLK
  5
72CE
100
AcDbEntity
  8
0
100
AcDbBlockEnd
  0
BLOCK
  5
1FF2
100
AcDbEntity
  8
0
100
AcDbBlockBegin
  2
*D7
 70
1
 10
0
 20
0
 30
0
  3
*D7
  1

  0
POINT
  5
1FF5
100
AcDbEntity
  8
DEFPOINTS
100
AcDbPoint
370
-1
 62
0
  6
BYLAYER
 10
45.7332922829263
 20
-34.1758690981742
 30
0
  0
POINT
  5
1FF6
100
AcDbEntity
  8
DEFPOINTS
100
AcDbPoint
370
-1
 62
0
  6
BYLAYER
 10
48.7083091408395
 20
-26.9463162024323
 30
0
  0
LINE
  5
1FF8
100
AcDbEntity
  8
0
100
AcDbLine
370
-1
 62
0
 10
44.7819257807746
 20
-36.4877734600766
 30
0
 11
42.2819257807746
 21
-36.4877734600766
 31
0
  0
LINE
  5
1FF9
100
AcDbEntity
  8
0
100
AcDbLine
370
-1
 62
0
 10
45.7332922829263
 20
-34.1758690981742
 30
0
 11
44.7819257807746
 21
-36.4877734600766
 31
0
  0
LINE
  5
1FFA
100
AcDbEntity
  8
0
100
AcDbLine
370
-1
 62
0
 10
45.7332922829263
 20
-34.1758690981742
 30
0
 11
45.7332922829263
 21
-34.1758690981742
 31
0
  0
LINE
  5
1FFB
100
AcDbEntity
  8
0
100
AcDbLine
370
-1
 62
0
 10
48.7083091408395
 20
-26.9463162024323
 30
0
 11
48.7083091408395
 21
-26.9463162024323
 31
0
  0
LINE
  5
1FFC
100
AcDbEntity
  8
0
100
AcDbLine
370
-1
 62
0
 10
45.7332922829263
 20
-34.1758690981742
 30
0
 11
48.7083091408395
 21
-26.9463162024323
 31
0
  0
LINE
  5
1FFD
100
AcDbEntity
  8
0
100
AcDbLine
370
-1
 62
0
 10
48.7083091408395
 20
-26.9463162024323
 30
0
 11
45.7332922829263
 21
-34.1758690981742
 31
0
  0
TEXT
  5
1FF7
100
AcDbEntity
  8
0
100
AcDbText
370
-1
 62
0
 10
35.3869562685795
 20
-37.990250594223
 30
0
 40
2.5
  1
7,82
 50
0
 41
1
 51
0
  7
STANDARD
 71
0
 72
0
 11
0
 21
0
 31
0
100
AcDbText
 73
0
  0
INSERT
  5
1FFE
100
AcDbEntity
  8
0
100
AcDbBlockReference
370
-1
 62
0
  6
BYLAYER
  2
_CLOSEDFILLED
 10
48.7083091408395
 20
-26.9463162024323
 30
0
 41
2.5
 42
2.5
 43
2.5
 50
67.6324555214809
  0
INSERT
  5
1FFF
100
AcDbEntity
  8
0
100
AcDbBlockReference
370
-1
 62
0
  6
BYLAYER
  2
_CLOSEDFILLED
 10
45.7332922829263
 20
-34.1758690981742
 30
0
 41
2.5
 42
2.5
 43
2.5
 50
247.632455521481
  0
INSERT
  5
2000
100
AcDbEntity
  8
0
100
AcDbBlockReference
370
-1
 62
0
  6
BYLAYER
  2
sgCLOSEDFILEDLINE
 10
48.7083091408395
 20
-26.9463162024323
 30
0
 41
2.5
 42
2.5
 43
2.5
 50
247.632455521481
  0
INSERT
  5
2001
100
AcDbEntity
  8
0
100
AcDbBlockReference
370
-1
 62
0
  6
BYLAYER
  2
sgCLOSEDFILEDLINE
 10
45.7332922829263
 20
-34.1758690981742
 30
0
 41
2.5
 42
2.5
 43
2.5
 50
247.632455521481
  0
ENDBLK
  5
72CF
100
AcDbEntity
  8
0
100
AcDbBlockEnd
  0
BLOCK
  5
200F
100
AcDbEntity
  8
0
100
AcDbBlockBegin
  2
*D8
 70
1
 10
0
 20
0
 30
0
  3
*D8
  1

  0
POINT
  5
2012
100
AcDbEntity
  8
DEFPOINTS
100
AcDbPoint
370
-1
 62
0
  6
BYLAYER
 10
48.7083091408395
 20
-30.8761316389397
 30
0
  0
POINT
  5
2013
100
AcDbEntity
  8
DEFPOINTS
100
AcDbPoint
370
-1
 62
0
  6
BYLAYER
 10
48.7083091408395
 20
-26.9463162024323
 30
0
  0
LINE
  5
2015
100
AcDbEntity
  8
0
100
AcDbLine
370
-1
 62
0
 10
57.7979452886465
 20
-35.8761316389397
 30
0
 11
55.2979452886465
 21
-35.8761316389397
 31
0
  0
LINE
  5
2016
100
AcDbEntity
  8
0
100
AcDbLine
370
-1
 62
0
 10
57.7979452886465
 20
-30.8761316389397
 30
0
 11
57.7979452886465
 21
-35.8761316389397
 31
0
  0
LINE
  5
2017
100
AcDbEntity
  8
0
100
AcDbLine
370
-1
 62
0
 10
49.5763091408395
 20
-30.8761316389397
 30
0
 11
60.2979452886465
 21
-30.8761316389397
 31
0
  0
LINE
  5
2018
100
AcDbEntity
  8
0
100
AcDbLine
370
-1
 62
0
 10
49.5763091408395
 20
-26.9463162024323
 30
0
 11
60.2979452886465
 21
-26.9463162024323
 31
0
  0
LINE
  5
2019
100
AcDbEntity
  8
0
100
AcDbLine
370
-1
 62
0
 10
57.7979452886465
 20
-26.9463162024323
 30
0
 11
57.7979452886465
 21
-26.9463162024323
 31
0
  0
LINE
  5
201A
100
AcDbEntity
  8
0
100
AcDbLine
370
-1
 62
0
 10
57.7979452886465
 20
-30.8761316389397
 30
0
 11
57.7979452886465
 21
-30.8761316389397
 31
0
  0
TEXT
  5
2014
100
AcDbEntity
  8
0
100
AcDbText
370
-1
 62
0
 10
48.4029757764513
 20
-37.378608773086
 30
0
 40
2.5
  1
3,93
 50
0
 41
1
 51
0
  7
STANDARD
 71
0
 72
0
 11
0
 21
0
 31
0
100
AcDbText
 73
0
  0
INSERT
  5
201B
100
AcDbEntity
  8
0
100
AcDbBlockReference
370
-1
 62
0
  6
BYLAYER
  2
_CLOSEDFILLED
 10
57.7979452886465
 20
-26.9463162024323
 30
0
 41
2.5
 42
2.5
 43
2.5
 50
90
  0
INSERT
  5
201C
100
AcDbEntity
  8
0
100
AcDbBlockReference
370
-1
 62
0
  6
BYLAYER
  2
_CLOSEDFILLED
 10
57.7979452886465
 20
-30.8761316389397
 30
0
 41
2.5
 42
2.5
 43
2.5
 50
270
  0
INSERT
  5
201D
100
AcDbEntity
  8
0
100
AcDbBlockReference
370
-1
 62
0
  6
BYLAYER
  2
sgCLOSEDFILEDLINE
 10
57.7979452886465
 20
-26.9463162024323
 30
0
 41
2.5
 42
2.5
 43
2.5
 50
270
  0
INSERT
  5
201E
100
AcDbEntity
  8
0
100
AcDbBlockReference
370
-1
 62
0
  6
BYLAYER
  2
sgCLOSEDFILEDLINE
 10
57.7979452886465
 20
-30.8761316389397
 30
0
 41
2.5
 42
2.5
 43
2.5
 50
270
  0
ENDBLK
  5
72D0
100
AcDbEntity
  8
0
100
AcDbBlockEnd
  0
BLOCK
  5
2057
100
AcDbEntity
  8
0
100
AcDbBlockBegin
  2
*D9
 70
1
 10
0
 20
0
 30
0
  3
*D9
  1

  0
POINT
  5
205A
100
AcDbEntity
  8
DEFPOINTS
100
AcDbPoint
370
-1
 62
0
  6
BYLAYER
 10
48.8339412466624
 20
16.1207701387976
 30
0
  0
POINT
  5
205B
100
AcDbEntity
  8
DEFPOINTS
100
AcDbPoint
370
-1
 62
0
  6
BYLAYER
 10
48.7083091408395
 20
12.2336837975677
 30
0
  0
LINE
  5
205D
100
AcDbEntity
  8
0
100
AcDbLine
370
-1
 62
0
 10
64.5235630531893
 20
20.6162864429811
 30
0
 11
67.0235630531893
 21
20.6162864429811
 31
0
  0
LINE
  5
205E
100
AcDbEntity
  8
0
100
AcDbLine
370
-1
 62
0
 10
64.3620454946896
 20
15.6188959160864
 30
0
 11
64.5235630531893
 21
20.6162864429811
 31
0
  0
LINE
  5
205F
100
AcDbEntity
  8
0
100
AcDbLine
370
-1
 62
0
 10
49.7014882421313
 20
16.0927306906421
 30
0
 11
66.860740758137
 21
15.5381371368366
 31
0
  0
LINE
  5
2060
100
AcDbEntity
  8
0
100
AcDbLine
370
-1
 62
0
 10
49.5758561363085
 20
12.2056443494121
 30
0
 11
66.7351086523141
 21
11.6510507956067
 31
0
  0
LINE
  5
2061
100
AcDbEntity
  8
0
100
AcDbLine
370
-1
 62
0
 10
64.2364133888668
 20
11.7318095748565
 30
0
 11
64.2364133888668
 21
11.7318095748565
 31
0
  0
LINE
  5
2062
100
AcDbEntity
  8
0
100
AcDbLine
370
-1
 62
0
 10
64.3620454946896
 20
15.6188959160864
 30
0
 11
64.3620454946896
 21
15.6188959160864
 31
0
  0
TEXT
  5
205C
100
AcDbEntity
  8
0
100
AcDbText
370
-1
 62
0
 10
67.1235630531893
 20
19.1138093088347
 30
0
 40
2.5
  1
3,89
 50
0
 41
1
 51
0
  7
STANDARD
 71
0
 72
0
 11
0
 21
0
 31
0
100
AcDbText
 73
0
  0
INSERT
  5
2063
100
AcDbEntity
  8
0
100
AcDbBlockReference
370
-1
 62
0
  6
BYLAYER
  2
_CLOSEDFILLED
 10
64.2364133888668
 20
11.7318095748565
 30
0
 41
2.5
 42
2.5
 43
2.5
 50
88.1488230651746
  0
INSERT
  5
2064
100
AcDbEntity
  8
0
100
AcDbBlockReference
370
-1
 62
0
  6
BYLAYER
  2
_CLOSEDFILLED
 10
64.3620454946896
 20
15.6188959160864
 30
0
 41
2.5
 42
2.5
 43
2.5
 50
268.148823065175
  0
INSERT
  5
2065
100
AcDbEntity
  8
0
100
AcDbBlockReference
370
-1
 62
0
  6
BYLAYER
  2
sgCLOSEDFILEDLINE
 10
64.2364133888668
 20
11.7318095748565
 30
0
 41
2.5
 42
2.5
 43
2.5
 50
268.148823065175
  0
INSERT
  5
2066
100
AcDbEntity
  8
0
100
AcDbBlockReference
370
-1
 62
0
  6
BYLAYER
  2
sgCLOSEDFILEDLINE
 10
64.3620454946896
 20
15.6188959160864
 30
0
 41
2.5
 42
2.5
 43
2.5
 50
268.148823065175
  0
ENDBLK
  5
72D1
100
AcDbEntity
  8
0
100
AcDbBlockEnd
  0
BLOCK
  5
2094
100
AcDbEntity
  8
0
100
AcDbBlockBegin
  2
*D10
 70
1
 10
0
 20
0
 30
0
  3
*D10
  1

  0
POINT
  5
2097
100
AcDbEntity
  8
DEFPOINTS
100
AcDbPoint
370
-1
 62
0
  6
BYLAYER
 10
46.5226782357665
 20
16.0318754076093
 30
0
  0
POINT
  5
2098
100
AcDbEntity
  8
DEFPOINTS
100
AcDbPoint
370
-1
 62
0
  6
BYLAYER
 10
46.5226782357665
 20
12.1205072353239
 30
0
  0
LINE
  5
209A
100
AcDbEntity
  8
0
100
AcDbLine
370
-1
 62
0
 10
61.5349402798625
 20
21.0318754076093
 30
0
 11
59.0349402798625
 21
21.0318754076093
 31
0
  0
LINE
  5
209B
100
AcDbEntity
  8
0
100
AcDbLine
370
-1
 62
0
 10
61.5349402798625
 20
16.0318754076093
 30
0
 11
61.5349402798625
 21
21.0318754076093
 31
0
  0
LINE
  5
209C
100
AcDbEntity
  8
0
100
AcDbLine
370
-1
 62
0
 10
47.3906782357665
 20
16.0318754076093
 30
0
 11
64.0349402798625
 21
16.0318754076093
 31
0
  0
LINE
  5
209D
100
AcDbEntity
  8
0
100
AcDbLine
370
-1
 62
0
 10
47.3906782357665
 20
12.1205072353239
 30
0
 11
64.0349402798625
 21
12.1205072353239
 31
0
  0
LINE
  5
209E
100
AcDbEntity
  8
0
100
AcDbLine
370
-1
 62
0
 10
61.5349402798625
 20
12.1205072353239
 30
0
 11
61.5349402798625
 21
12.1205072353239
 31
0
  0
LINE
  5
209F
100
AcDbEntity
  8
0
100
AcDbLine
370
-1
 62
0
 10
61.5349402798625
 20
16.0318754076093
 30
0
 11
61.5349402798625
 21
16.0318754076093
 31
0
  0
TEXT
  5
2099
100
AcDbEntity
  8
0
100
AcDbText
370
-1
 62
0
 10
52.1399707676674
 20
19.529398273463
 30
0
 40
2.5
  1
3,91
 50
0
 41
1
 51
0
  7
STANDARD
 71
0
 72
0
 11
0
 21
0
 31
0
100
AcDbText
 73
0
  0
INSERT
  5
20A0
100
AcDbEntity
  8
0
100
AcDbBlockReference
370
-1
 62
0
  6
BYLAYER
  2
_CLOSEDFILLED
 10
61.5349402798625
 20
12.1205072353239
 30
0
 41
2.5
 42
2.5
 43
2.5
 50
-90
  0
INSERT
  5
20A1
100
AcDbEntity
  8
0
100
AcDbBlockReference
370
-1
 62
0
  6
BYLAYER
  2
_CLOSEDFILLED
 10
61.5349402798625
 20
16.0318754076093
 30
0
 41
2.5
 42
2.5
 43
2.5
 50
90
  0
INSERT
  5
20A2
100
AcDbEntity
  8
0
100
AcDbBlockReference
370
-1
 62
0
  6
BYLAYER
  2
sgCLOSEDFILEDLINE
 10
61.5349402798625
 20
12.1205072353239
 30
0
 41
2.5
 42
2.5
 43
2.5
 50
90
  0
INSERT
  5
20A3
100
AcDbEntity
  8
0
100
AcDbBlockReference
370
-1
 62
0
  6
BYLAYER
  2
sgCLOSEDFILEDLINE
 10
61.5349402798625
 20
16.0318754076093
 30
0
 41
2.5
 42
2.5
 43
2.5
 50
90
  0
ENDBLK
  5
72D2
100
AcDbEntity
  8
0
100
AcDbBlockEnd
  0
BLOCK
  5
20E7
100
AcDbEntity
  8
0
100
AcDbBlockBegin
  2
*D11
 70
1
 10
0
 20
0
 30
0
  3
*D11
  1

  0
POINT
  5
20EA
100
AcDbEntity
  8
DEFPOINTS
100
AcDbPoint
370
-1
 62
0
  6
BYLAYER
 10
50.1283091408395
 20
16.1536837975677
 30
0
  0
POINT
  5
20EB
100
AcDbEntity
  8
DEFPOINTS
100
AcDbPoint
370
-1
 62
0
  6
BYLAYER
 10
50.1283091408395
 20
12.6436837975677
 30
0
  0
LINE
  5
20ED
100
AcDbEntity
  8
0
100
AcDbLine
370
-1
 62
0
 10
61.2682560862976
 20
21.1536837975677
 30
0
 11
58.7682560862976
 21
21.1536837975677
 31
0
  0
LINE
  5
20EE
100
AcDbEntity
  8
0
100
AcDbLine
370
-1
 62
0
 10
61.2682560862976
 20
16.1536837975677
 30
0
 11
61.2682560862976
 21
21.1536837975677
 31
0
  0
LINE
  5
20EF
100
AcDbEntity
  8
0
100
AcDbLine
370
-1
 62
0
 10
50.9963091408395
 20
16.1536837975677
 30
0
 11
63.7682560862976
 21
16.1536837975677
 31
0
  0
LINE
  5
20F0
100
AcDbEntity
  8
0
100
AcDbLine
370
-1
 62
0
 10
50.9963091408395
 20
12.6436837975677
 30
0
 11
63.7682560862976
 21
12.6436837975677
 31
0
  0
LINE
  5
20F1
100
AcDbEntity
  8
0
100
AcDbLine
370
-1
 62
0
 10
61.2682560862976
 20
12.6436837975677
 30
0
 11
61.2682560862976
 21
12.6436837975677
 31
0
  0
LINE
  5
20F2
100
AcDbEntity
  8
0
100
AcDbLine
370
-1
 62
0
 10
61.2682560862976
 20
16.1536837975677
 30
0
 11
61.2682560862976
 21
16.1536837975677
 31
0
  0
TEXT
  5
20EC
100
AcDbEntity
  8
0
100
AcDbText
370
-1
 62
0
 10
51.8732865741025
 20
19.6512066634213
 30
0
 40
2.5
  1
3,51
 50
0
 41
1
 51
0
  7
STANDARD
 71
0
 72
0
 11
0
 21
0
 31
0
100
AcDbText
 73
0
  0
INSERT
  5
20F3
100
AcDbEntity
  8
0
100
AcDbBlockReference
370
-1
 62
0
  6
BYLAYER
  2
_CLOSEDFILLED
 10
61.2682560862976
 20
12.6436837975677
 30
0
 41
2.5
 42
2.5
 43
2.5
 50
-90
  0
INSERT
  5
20F4
100
AcDbEntity
  8
0
100
AcDbBlockReference
370
-1
 62
0
  6
BYLAYER
  2
_CLOSEDFILLED
 10
61.2682560862976
 20
16.1536837975677
 30
0
 41
2.5
 42
2.5
 43
2.5
 50
90
  0
INSERT
  5
20F5
100
AcDbEntity
  8
0
100
AcDbBlockReference
370
-1
 62
0
  6
BYLAYER
  2
sgCLOSEDFILEDLINE
 10
61.2682560862976
 20
12.6436837975677
 30
0
 41
2.5
 42
2.5
 43
2.5
 50
90
  0
INSERT
  5
20F6
100
AcDbEntity
  8
0
100
AcDbBlockReference
370
-1
 62
0
  6
BYLAYER
  2
sgCLOSEDFILEDLINE
 10
61.2682560862976
 20
16.1536837975677
 30
0
 41
2.5
 42
2.5
 43
2.5
 50
90
  0
ENDBLK
  5
72D3
100
AcDbEntity
  8
0
100
AcDbBlockEnd
  0
BLOCK
  5
2124
100
AcDbEntity
  8
0
100
AcDbBlockBegin
  2
*D12
 70
1
 10
0
 20
0
 30
0
  3
*D12
  1

  0
POINT
  5
2127
100
AcDbEntity
  8
DEFPOINTS
100
AcDbPoint
370
-1
 62
0
  6
BYLAYER
 10
47.6783209718068
 20
-30.9055409949858
 30
0
  0
POINT
  5
2128
100
AcDbEntity
  8
DEFPOINTS
100
AcDbPoint
370
-1
 62
0
  6
BYLAYER
 10
47.6783209718068
 20
-26.9463162024323
 30
0
  0
LINE
  5
212A
100
AcDbEntity
  8
0
100
AcDbLine
370
-1
 62
0
 10
68.7354135272697
 20
-35.9055409949858
 30
0
 11
66.2354135272697
 21
-35.9055409949858
 31
0
  0
LINE
  5
212B
100
AcDbEntity
  8
0
100
AcDbLine
370
-1
 62
0
 10
68.7354135272697
 20
-30.9055409949858
 30
0
 11
68.7354135272697
 21
-35.9055409949858
 31
0
  0
LINE
  5
212C
100
AcDbEntity
  8
0
100
AcDbLine
370
-1
 62
0
 10
48.5463209718068
 20
-30.9055409949858
 30
0
 11
71.2354135272697
 21
-30.9055409949858
 31
0
  0
LINE
  5
212D
100
AcDbEntity
  8
0
100
AcDbLine
370
-1
 62
0
 10
48.5463209718068
 20
-26.9463162024323
 30
0
 11
71.2354135272697
 21
-26.9463162024323
 31
0
  0
LINE
  5
212E
100
AcDbEntity
  8
0
100
AcDbLine
370
-1
 62
0
 10
68.7354135272697
 20
-26.9463162024323
 30
0
 11
68.7354135272697
 21
-26.9463162024323
 31
0
  0
LINE
  5
212F
100
AcDbEntity
  8
0
100
AcDbLine
370
-1
 62
0
 10
68.7354135272697
 20
-30.9055409949858
 30
0
 11
68.7354135272697
 21
-30.9055409949858
 31
0
  0
TEXT
  5
2129
100
AcDbEntity
  8
0
100
AcDbText
370
-1
 62
0
 10
59.3404440150746
 20
-37.4080181291321
 30
0
 40
2.5
  1
3,96
 50
0
 41
1
 51
0
  7
STANDARD
 71
0
 72
0
 11
0
 21
0
 31
0
100
AcDbText
 73
0
  0
INSERT
  5
2130
100
AcDbEntity
  8
0
100
AcDbBlockReference
370
-1
 62
0
  6
BYLAYER
  2
_CLOSEDFILLED
 10
68.7354135272697
 20
-26.9463162024323
 30
0
 41
2.5
 42
2.5
 43
2.5
 50
90
  0
INSERT
  5
2131
100
AcDbEntity
  8
0
100
AcDbBlockReference
370
-1
 62
0
  6
BYLAYER
  2
_CLOSEDFILLED
 10
68.7354135272697
 20
-30.9055409949858
 30
0
 41
2.5
 42
2.5
 43
2.5
 50
270
  0
INSERT
  5
2132
100
AcDbEntity
  8
0
100
AcDbBlockReference
370
-1
 62
0
  6
BYLAYER
  2
sgCLOSEDFILEDLINE
 10
68.7354135272697
 20
-26.9463162024323
 30
0
 41
2.5
 42
2.5
 43
2.5
 50
270
  0
INSERT
  5
2133
100
AcDbEntity
  8
0
100
AcDbBlockReference
370
-1
 62
0
  6
BYLAYER
  2
sgCLOSEDFILEDLINE
 10
68.7354135272697
 20
-30.9055409949858
 30
0
 41
2.5
 42
2.5
 43
2.5
 50
270
  0
ENDBLK
  5
72D4
100
AcDbEntity
  8
0
100
AcDbBlockEnd
  0
BLOCK
  5
2161
100
AcDbEntity
  8
0
100
AcDbBlockBegin
  2
*D13
 70
1
 10
0
 20
0
 30
0
  3
*D13
  1

  0
POINT
  5
2164
100
AcDbEntity
  8
DEFPOINTS
100
AcDbPoint
370
-1
 62
0
  6
BYLAYER
 10
48.4378423255586
 20
20.5299600767843
 30
0
  0
POINT
  5
2165
100
AcDbEntity
  8
DEFPOINTS
100
AcDbPoint
370
-1
 62
0
  6
BYLAYER
 10
46.2559940422015
 20
12.3871914288888
 30
0
  0
LINE
  5
2167
100
AcDbEntity
  8
0
100
AcDbLine
370
-1
 62
0
 10
49.0848899383149
 20
22.9447746425069
 30
0
 11
51.5848899383149
 21
22.9447746425069
 31
0
  0
LINE
  5
2168
100
AcDbEntity
  8
0
100
AcDbLine
370
-1
 62
0
 10
48.4378423255586
 20
20.5299600767843
 30
0
 11
49.0848899383149
 21
22.9447746425069
 31
0
  0
LINE
  5
2169
100
AcDbEntity
  8
0
100
AcDbLine
370
-1
 62
0
 10
48.4378423255586
 20
20.5299600767843
 30
0
 11
48.4378423255586
 21
20.5299600767843
 31
0
  0
LINE
  5
216A
100
AcDbEntity
  8
0
100
AcDbLine
370
-1
 62
0
 10
46.2559940422015
 20
12.3871914288888
 30
0
 11
46.2559940422015
 21
12.3871914288888
 31
0
  0
LINE
  5
216B
100
AcDbEntity
  8
0
100
AcDbLine
370
-1
 62
0
 10
48.4378423255586
 20
20.5299600767843
 30
0
 11
46.2559940422015
 21
12.3871914288888
 31
0
  0
LINE
  5
216C
100
AcDbEntity
  8
0
100
AcDbLine
370
-1
 62
0
 10
46.2559940422015
 20
12.3871914288888
 30
0
 11
48.4378423255586
 21
20.5299600767843
 31
0
  0
TEXT
  5
2166
100
AcDbEntity
  8
0
100
AcDbText
370
-1
 62
0
 10
51.6848899383149
 20
21.4422975083606
 30
0
 40
2.5
  1
8,43
 50
0
 41
1
 51
0
  7
STANDARD
 71
0
 72
0
 11
0
 21
0
 31
0
100
AcDbText
 73
0
  0
INSERT
  5
216D
100
AcDbEntity
  8
0
100
AcDbBlockReference
370
-1
 62
0
  6
BYLAYER
  2
_CLOSEDFILLED
 10
46.2559940422015
 20
12.3871914288888
 30
0
 41
2.5
 42
2.5
 43
2.5
 50
255
  0
INSERT
  5
216E
100
AcDbEntity
  8
0
100
AcDbBlockReference
370
-1
 62
0
  6
BYLAYER
  2
_CLOSEDFILLED
 10
48.4378423255586
 20
20.5299600767843
 30
0
 41
2.5
 42
2.5
 43
2.5
 50
75
  0
INSERT
  5
216F
100
AcDbEntity
  8
0
100
AcDbBlockReference
370
-1
 62
0
  6
BYLAYER
  2
sgCLOSEDFILEDLINE
 10
46.2559940422015
 20
12.3871914288888
 30
0
 41
2.5
 42
2.5
 43
2.5
 50
75
  0
INSERT
  5
2170
100
AcDbEntity
  8
0
100
AcDbBlockReference
370
-1
 62
0
  6
BYLAYER
  2
sgCLOSEDFILEDLINE
 10
48.4378423255586
 20
20.5299600767843
 30
0
 41
2.5
 42
2.5
 43
2.5
 50
75
  0
ENDBLK
  5
72D5
100
AcDbEntity
  8
0
100
AcDbBlockEnd
  0
BLOCK
  5
217E
100
AcDbEntity
  8
0
100
AcDbBlockBegin
  2
*D14
 70
1
 10
0
 20
0
 30
0
  3
*D14
  1

  0
POINT
  5
2181
100
AcDbEntity
  8
DEFPOINTS
100
AcDbPoint
370
-1
 62
0
  6
BYLAYER
 10
45.0114678055653
 20
16.121780175786
 30
0
  0
POINT
  5
2182
100
AcDbEntity
  8
DEFPOINTS
100
AcDbPoint
370
-1
 62
0
  6
BYLAYER
 10
45.0114678055653
 20
12.2094019665122
 30
0
  0
LINE
  5
2184
100
AcDbEntity
  8
0
100
AcDbLine
370
-1
 62
0
 10
65.8020531895427
 20
21.121780175786
 30
0
 11
63.3020531895427
 21
21.121780175786
 31
0
  0
LINE
  5
2185
100
AcDbEntity
  8
0
100
AcDbLine
370
-1
 62
0
 10
65.8020531895427
 20
16.121780175786
 30
0
 11
65.8020531895427
 21
21.121780175786
 31
0
  0
LINE
  5
2186
100
AcDbEntity
  8
0
100
AcDbLine
370
-1
 62
0
 10
45.8794678055653
 20
16.121780175786
 30
0
 11
68.3020531895427
 21
16.121780175786
 31
0
  0
LINE
  5
2187
100
AcDbEntity
  8
0
100
AcDbLine
370
-1
 62
0
 10
45.8794678055653
 20
12.2094019665122
 30
0
 11
68.3020531895427
 21
12.2094019665122
 31
0
  0
LINE
  5
2188
100
AcDbEntity
  8
0
100
AcDbLine
370
-1
 62
0
 10
65.8020531895427
 20
12.2094019665122
 30
0
 11
65.8020531895427
 21
12.2094019665122
 31
0
  0
LINE
  5
2189
100
AcDbEntity
  8
0
100
AcDbLine
370
-1
 62
0
 10
65.8020531895427
 20
16.121780175786
 30
0
 11
65.8020531895427
 21
16.121780175786
 31
0
  0
TEXT
  5
2183
100
AcDbEntity
  8
0
100
AcDbText
370
-1
 62
0
 10
56.4070836773475
 20
19.6193030416396
 30
0
 40
2.5
  1
3,91
 50
0
 41
1
 51
0
  7
STANDARD
 71
0
 72
0
 11
0
 21
0
 31
0
100
AcDbText
 73
0
  0
INSERT
  5
218A
100
AcDbEntity
  8
0
100
AcDbBlockReference
370
-1
 62
0
  6
BYLAYER
  2
_CLOSEDFILLED
 10
65.8020531895427
 20
12.2094019665122
 30
0
 41
2.5
 42
2.5
 43
2.5
 50
-90
  0
INSERT
  5
218B
100
AcDbEntity
  8
0
100
AcDbBlockReference
370
-1
 62
0
  6
BYLAYER
  2
_CLOSEDFILLED
 10
65.8020531895427
 20
16.121780175786
 30
0
 41
2.5
 42
2.5
 43
2.5
 50
90
  0
INSERT
  5
218C
100
AcDbEntity
  8
0
100
AcDbBlockReference
370
-1
 62
0
  6
BYLAYER
  2
sgCLOSEDFILEDLINE
 10
65.8020531895427
 20
12.2094019665122
 30
0
 41
2.5
 42
2.5
 43
2.5
 50
90
  0
INSERT
  5
218D
100
AcDbEntity
  8
0
100
AcDbBlockReference
370
-1
 62
0
  6
BYLAYER
  2
sgCLOSEDFILEDLINE
 10
65.8020531895427
 20
16.121780175786
 30
0
 41
2.5
 42
2.5
 43
2.5
 50
90
  0
ENDBLK
  5
72D6
100
AcDbEntity
  8
0
100
AcDbBlockEnd
  0
BLOCK
  5
2202
100
AcDbEntity
  8
0
100
AcDbBlockBegin
  2
*D15
 70
1
 10
0
 20
0
 30
0
  3
*D15
  1

  0
POINT
  5
2205
100
AcDbEntity
  8
DEFPOINTS
100
AcDbPoint
370
-1
 62
0
  6
BYLAYER
 10
52.4482386148695
 20
-28.9663162024323
 30
0
  0
POINT
  5
2206
100
AcDbEntity
  8
DEFPOINTS
100
AcDbPoint
370
-1
 62
0
  6
BYLAYER
 10
28.2283091408395
 20
-28.9663162024323
 30
0
  0
LINE
  5
2208
100
AcDbEntity
  8
0
100
AcDbLine
370
-1
 62
0
 10
52.4482386148695
 20
-29.8343162024323
 30
0
 11
52.4482386148695
 21
-34.9788890414638
 31
0
  0
LINE
  5
2209
100
AcDbEntity
  8
0
100
AcDbLine
370
-1
 62
0
 10
28.2283091408395
 20
-29.8343162024323
 30
0
 11
28.2283091408395
 21
-34.9788890414638
 31
0
  0
LINE
  5
220A
100
AcDbEntity
  8
0
100
AcDbLine
370
-1
 62
0
 10
52.4482386148695
 20
-32.4788890414638
 30
0
 11
44.7066046705375
 21
-32.4788890414638
 31
0
  0
LINE
  5
220B
100
AcDbEntity
  8
0
100
AcDbLine
370
-1
 62
0
 10
28.2283091408395
 20
-32.4788890414638
 30
0
 11
35.9699430851716
 21
-32.4788890414638
 31
0
  0
TEXT
  5
2207
100
AcDbEntity
  8
0
100
AcDbText
370
-1
 62
0
 10
35.9699430851716
 20
-33.9813661756101
 30
0
 40
2.5
  1
24,22
 50
0
 41
1
 51
0
  7
STANDARD
 71
0
 72
0
 11
0
 21
0
 31
0
100
AcDbText
 73
0
  0
INSERT
  5
220C
100
AcDbEntity
  8
0
100
AcDbBlockReference
370
-1
 62
0
  6
BYLAYER
  2
_CLOSEDFILLED
 10
28.2283091408395
 20
-32.4788890414638
 30
0
 41
2.5
 42
2.5
 43
2.5
 50
180
  0
INSERT
  5
220D
100
AcDbEntity
  8
0
100
AcDbBlockReference
370
-1
 62
0
  6
BYLAYER
  2
_CLOSEDFILLED
 10
52.4482386148695
 20
-32.4788890414638
 30
0
 41
2.5
 42
2.5
 43
2.5
  0
INSERT
  5
220E
100
AcDbEntity
  8
0
100
AcDbBlockReference
370
-1
 62
0
  6
BYLAYER
  2
sgCLOSEDFILEDLINE
 10
28.2283091408395
 20
-32.4788890414638
 30
0
 41
2.5
 42
2.5
 43
2.5
  0
INSERT
  5
220F
100
AcDbEntity
  8
0
100
AcDbBlockReference
370
-1
 62
0
  6
BYLAYER
  2
sgCLOSEDFILEDLINE
 10
52.4482386148695
 20
-32.4788890414638
 30
0
 41
2.5
 42
2.5
 43
2.5
  0
ENDBLK
  5
72D7
100
AcDbEntity
  8
0
100
AcDbBlockEnd
  0
BLOCK
  5
2255
100
AcDbEntity
  8
0
100
AcDbBlockBegin
  2
*D16
 70
1
 10
0
 20
0
 30
0
  3
*D16
  1

  0
POINT
  5
2258
100
AcDbEntity
  8
DEFPOINTS
100
AcDbPoint
370
-1
 62
0
  6
BYLAYER
 10
48.7083091408395
 20
12.2336837975677
 30
0
  0
POINT
  5
2259
100
AcDbEntity
  8
DEFPOINTS
100
AcDbPoint
370
-1
 62
0
  6
BYLAYER
 10
48.7083091408395
 20
16.6336837975677
 30
0
  0
LINE
  5
225B
100
AcDbEntity
  8
0
100
AcDbLine
370
-1
 62
0
 10
62.5946679225891
 20
7.23368379756767
 30
0
 11
60.0946679225891
 21
7.23368379756767
 31
0
  0
LINE
  5
225C
100
AcDbEntity
  8
0
100
AcDbLine
370
-1
 62
0
 10
62.5946679225891
 20
12.2336837975677
 30
0
 11
62.5946679225891
 21
7.23368379756767
 31
0
  0
LINE
  5
225D
100
AcDbEntity
  8
0
100
AcDbLine
370
-1
 62
0
 10
49.5763091408395
 20
12.2336837975677
 30
0
 11
65.0946679225891
 21
12.2336837975677
 31
0
  0
LINE
  5
225E
100
AcDbEntity
  8
0
100
AcDbLine
370
-1
 62
0
 10
49.5763091408395
 20
16.6336837975677
 30
0
 11
65.0946679225891
 21
16.6336837975677
 31
0
  0
LINE
  5
225F
100
AcDbEntity
  8
0
100
AcDbLine
370
-1
 62
0
 10
62.5946679225891
 20
16.6336837975677
 30
0
 11
62.5946679225891
 21
16.6336837975677
 31
0
  0
LINE
  5
2260
100
AcDbEntity
  8
0
100
AcDbLine
370
-1
 62
0
 10
62.5946679225891
 20
12.2336837975677
 30
0
 11
62.5946679225891
 21
12.2336837975677
 31
0
  0
TEXT
  5
225A
100
AcDbEntity
  8
0
100
AcDbText
370
-1
 62
0
 10
53.199698410394
 20
5.73120666342133
 30
0
 40
2.5
  1
4,40
 50
0
 41
1
 51
0
  7
STANDARD
 71
0
 72
0
 11
0
 21
0
 31
0
100
AcDbText
 73
0
  0
INSERT
  5
2261
100
AcDbEntity
  8
0
100
AcDbBlockReference
370
-1
 62
0
  6
BYLAYER
  2
_CLOSEDFILLED
 10
62.5946679225891
 20
16.6336837975677
 30
0
 41
2.5
 42
2.5
 43
2.5
 50
90
  0
INSERT
  5
2262
100
AcDbEntity
  8
0
100
AcDbBlockReference
370
-1
 62
0
  6
BYLAYER
  2
_CLOSEDFILLED
 10
62.5946679225891
 20
12.2336837975677
 30
0
 41
2.5
 42
2.5
 43
2.5
 50
270
  0
INSERT
  5
2263
100
AcDbEntity
  8
0
100
AcDbBlockReference
370
-1
 62
0
  6
BYLAYER
  2
sgCLOSEDFILEDLINE
 10
62.5946679225891
 20
16.6336837975677
 30
0
 41
2.5
 42
2.5
 43
2.5
 50
270
  0
INSERT
  5
2264
100
AcDbEntity
  8
0
100
AcDbBlockReference
370
-1
 62
0
  6
BYLAYER
  2
sgCLOSEDFILEDLINE
 10
62.5946679225891
 20
12.2336837975677
 30
0
 41
2.5
 42
2.5
 43
2.5
 50
270
  0
ENDBLK
  5
72D8
100
AcDbEntity
  8
0
100
AcDbBlockEnd
  0
BLOCK
  5
2409
100
AcDbEntity
  8
0
100
AcDbBlockBegin
  2
*D17
 70
1
 10
0
 20
0
 30
0
  3
*D17
  1

  0
POINT
  5
240C
100
AcDbEntity
  8
DEFPOINTS
100
AcDbPoint
370
-1
 62
0
  6
BYLAYER
 10
28.3883091408395
 20
-28.1439800264323
 30
0
  0
POINT
  5
240D
100
AcDbEntity
  8
DEFPOINTS
100
AcDbPoint
370
-1
 62
0
  6
BYLAYER
 10
6.38830914083955
 20
-28.1439800267555
 30
0
  0
LINE
  5
240F
100
AcDbEntity
  8
0
100
AcDbLine
370
-1
 62
0
 10
28.3883091408395
 20
-27.2759800264323
 30
0
 11
28.3883091407813
 21
-24.1812117473645
 31
0
  0
LINE
  5
2410
100
AcDbEntity
  8
0
100
AcDbLine
370
-1
 62
0
 10
6.38830914083955
 20
-27.2759800267555
 30
0
 11
6.38830914083955
 21
-24.1812117473645
 31
0
  0
LINE
  5
2411
100
AcDbEntity
  8
0
100
AcDbLine
370
-1
 62
0
 10
28.3883091407813
 20
-26.6812117473645
 30
0
 11
21.7566399334934
 21
-26.6812117473645
 31
0
  0
LINE
  5
2412
100
AcDbEntity
  8
0
100
AcDbLine
370
-1
 62
0
 10
6.38830914083955
 20
-26.6812117473645
 30
0
 11
13.0199783481275
 21
-26.6812117473645
 31
0
  0
TEXT
  5
240E
100
AcDbEntity
  8
0
100
AcDbText
370
-1
 62
0
 10
13.0199783481275
 20
-28.1836888815108
 30
0
 40
2.5
  1
22,00
 50
0
 41
1
 51
0
  7
STANDARD
 71
0
 72
0
 11
0
 21
0
 31
0
100
AcDbText
 73
0
  0
INSERT
  5
2413
100
AcDbEntity
  8
0
100
AcDbBlockReference
370
-1
 62
0
  6
BYLAYER
  2
_CLOSEDFILLED
 10
6.38830914083955
 20
-26.6812117473645
 30
0
 41
2.5
 42
2.5
 43
2.5
 50
180
  0
INSERT
  5
2414
100
AcDbEntity
  8
0
100
AcDbBlockReference
370
-1
 62
0
  6
BYLAYER
  2
_CLOSEDFILLED
 10
28.3883091407813
 20
-26.6812117473645
 30
0
 41
2.5
 42
2.5
 43
2.5
  0
INSERT
  5
2415
100
AcDbEntity
  8
0
100
AcDbBlockReference
370
-1
 62
0
  6
BYLAYER
  2
sgCLOSEDFILEDLINE
 10
6.38830914083955
 20
-26.6812117473645
 30
0
 41
2.5
 42
2.5
 43
2.5
  0
INSERT
  5
2416
100
AcDbEntity
  8
0
100
AcDbBlockReference
370
-1
 62
0
  6
BYLAYER
  2
sgCLOSEDFILEDLINE
 10
28.3883091407813
 20
-26.6812117473645
 30
0
 41
2.5
 42
2.5
 43
2.5
  0
ENDBLK
  5
72D9
100
AcDbEntity
  8
0
100
AcDbBlockEnd
  0
BLOCK
  5
3C55
100
AcDbEntity
  8
0
100
AcDbBlockBegin
  2
*D18
 70
1
 10
0
 20
0
 30
0
  3
*D18
  1

  0
POINT
  5
3C58
100
AcDbEntity
  8
DEFPOINTS
100
AcDbPoint
370
-1
 62
0
  6
BYLAYER
 10
25.0883091408395
 20
24.7736837975677
 30
0
  0
POINT
  5
3C59
100
AcDbEntity
  8
DEFPOINTS
100
AcDbPoint
370
-1
 62
0
  6
BYLAYER
 10
-30.3116908591604
 20
24.7736837975677
 30
0
  0
LINE
  5
3C5B
100
AcDbEntity
  8
0
100
AcDbLine
370
-1
 62
0
 10
25.0883091408395
 20
25.6416837975677
 30
0
 11
25.0883091408395
 21
34.2758335608824
 31
0
  0
LINE
  5
3C5C
100
AcDbEntity
  8
0
100
AcDbLine
370
-1
 62
0
 10
-30.3116908591604
 20
25.6416837975677
 30
0
 11
-30.3116908591604
 21
34.2758335608824
 31
0
  0
LINE
  5
3C5D
100
AcDbEntity
  8
0
100
AcDbLine
370
-1
 62
0
 10
25.0883091408395
 20
31.7758335608824
 30
0
 11
1.75663993352248
 21
31.7758335608824
 31
0
  0
LINE
  5
3C5E
100
AcDbEntity
  8
0
100
AcDbLine
370
-1
 62
0
 10
-30.3116908591604
 20
31.7758335608824
 30
0
 11
-6.98002165184338
 21
31.7758335608824
 31
0
  0
TEXT
  5
3C5A
100
AcDbEntity
  8
0
100
AcDbText
370
-1
 62
0
 10
-6.98002165184338
 20
30.2733564267361
 30
0
 40
2.5
  1
55,40
 50
0
 41
1
 51
0
  7
STANDARD
 71
0
 72
0
 11
0
 21
0
 31
0
100
AcDbText
 73
0
  0
INSERT
  5
3C5F
100
AcDbEntity
  8
0
100
AcDbBlockReference
370
-1
 62
0
  6
BYLAYER
  2
_CLOSEDFILLED
 10
-30.3116908591604
 20
31.7758335608824
 30
0
 41
2.5
 42
2.5
 43
2.5
 50
180
  0
INSERT
  5
3C60
100
AcDbEntity
  8
0
100
AcDbBlockReference
370
-1
 62
0
  6
BYLAYER
  2
_CLOSEDFILLED
 10
25.0883091408395
 20
31.7758335608824
 30
0
 41
2.5
 42
2.5
 43
2.5
  0
INSERT
  5
3C61
100
AcDbEntity
  8
0
100
AcDbBlockReference
370
-1
 62
0
  6
BYLAYER
  2
sgCLOSEDFILEDLINE
 10
-30.3116908591604
 20
31.7758335608824
 30
0
 41
2.5
 42
2.5
 43
2.5
  0
INSERT
  5
3C62
100
AcDbEntity
  8
0
100
AcDbBlockReference
370
-1
 62
0
  6
BYLAYER
  2
sgCLOSEDFILEDLINE
 10
25.0883091408395
 20
31.7758335608824
 30
0
 41
2.5
 42
2.5
 43
2.5
  0
ENDBLK
  5
72DA
100
AcDbEntity
  8
0
100
AcDbBlockEnd
  0
BLOCK
  5
3C7C
100
AcDbEntity
  8
0
100
AcDbBlockBegin
  2
*D19
 70
1
 10
0
 20
0
 30
0
  3
*D19
  1

  0
POINT
  5
6E36
100
AcDbEntity
  8
DEFPOINTS
100
AcDbPoint
370
-1
 62
0
  6
BYLAYER
 10
30.0883091408395
 20
14.7736837975677
 30
0
  0
POINT
  5
6E37
100
AcDbEntity
  8
DEFPOINTS
100
AcDbPoint
370
-1
 62
0
  6
BYLAYER
 10
-25.3116908591604
 20
14.7736837975677
 30
0
  0
LINE
  5
6E39
100
AcDbEntity
  8
0
100
AcDbLine
370
-1
 62
0
 10
30.0883091408395
 20
15.6416837975677
 30
0
 11
30.0883091408395
 21
27.0023138467316
 31
0
  0
LINE
  5
6E3A
100
AcDbEntity
  8
0
100
AcDbLine
370
-1
 62
0
 10
-25.3116908591604
 20
15.6416837975677
 30
0
 11
-25.3116908591604
 21
27.0023138467316
 31
0
  0
LINE
  5
6E3B
100
AcDbEntity
  8
0
100
AcDbLine
370
-1
 62
0
 10
30.0883091408395
 20
24.5023138467316
 30
0
 11
4.13564145791272
 21
24.5023138467316
 31
0
  0
LINE
  5
6E3C
100
AcDbEntity
  8
0
100
AcDbLine
370
-1
 62
0
 10
-25.3116908591604
 20
24.5023138467316
 30
0
 11
0.640976823766379
 21
24.5023138467316
 31
0
  0
TEXT
  5
6E38
100
AcDbEntity
  8
0
100
AcDbText
370
-1
 62
3
 10
0.640976823766379
 20
23.9013229930731
 30
0
 40
1
  1
55,40
 50
0
 41
1
 51
0
  7
STANDARD
 71
0
 72
0
 11
0
 21
0
 31
0
100
AcDbText
 73
0
  0
INSERT
  5
6E3D
100
AcDbEntity
  8
0
100
AcDbBlockReference
370
-1
 62
0
  6
BYLAYER
  2
_CLOSEDFILLED
 10
-25.3116908591604
 20
24.5023138467316
 30
0
 41
1
 42
1
 43
1
 50
180
  0
INSERT
  5
6E3E
100
AcDbEntity
  8
0
100
AcDbBlockReference
370
-1
 62
0
  6
BYLAYER
  2
_CLOSEDFILLED
 10
30.0883091408395
 20
24.5023138467316
 30
0
 41
1
 42
1
 43
1
  0
INSERT
  5
6E3F
100
AcDbEntity
  8
0
100
AcDbBlockReference
370
-1
 62
0
  6
BYLAYER
  2
sgCLOSEDFILEDLINE
 10
-25.3116908591604
 20
24.5023138467316
 30
0
 41
2.5
 42
2.5
 43
2.5
  0
INSERT
  5
6E40
100
AcDbEntity
  8
0
100
AcDbBlockReference
370
-1
 62
0
  6
BYLAYER
  2
sgCLOSEDFILEDLINE
 10
30.0883091408395
 20
24.5023138467316
 30
0
 41
2.5
 42
2.5
 43
2.5
  0
ENDBLK
  5
72DB
100
AcDbEntity
  8
0
100
AcDbBlockEnd
  0
BLOCK
  5
3CE9
100
AcDbEntity
  8
0
100
AcDbBlockBegin
  2
*D20
 70
1
 10
0
 20
0
 30
0
  3
*D20
  1

  0
POINT
  5
3D1B
100
AcDbEntity
  8
DEFPOINTS
100
AcDbPoint
370
-1
 62
0
  6
BYLAYER
 10
26.2883091408395
 20
25.0936837975677
 30
0
  0
POINT
  5
3D1C
100
AcDbEntity
  8
DEFPOINTS
100
AcDbPoint
370
-1
 62
0
  6
BYLAYER
 10
-31.5116908591605
 20
25.0936837975677
 30
0
  0
LINE
  5
3D1E
100
AcDbEntity
  8
0
100
AcDbLine
370
-1
 62
0
 10
26.2883091408395
 20
25.9616837975677
 30
0
 11
26.2883091408395
 21
37.9027300542501
 31
0
  0
LINE
  5
3D1F
100
AcDbEntity
  8
0
100
AcDbLine
370
-1
 62
0
 10
-31.5116908591605
 20
25.9616837975677
 30
0
 11
-31.5116908591605
 21
37.9027300542501
 31
0
  0
LINE
  5
3D20
100
AcDbEntity
  8
0
100
AcDbLine
370
-1
 62
0
 10
26.2883091408395
 20
35.4027300542501
 30
0
 11
-0.864358542087286
 21
35.4027300542501
 31
0
  0
LINE
  5
3D21
100
AcDbEntity
  8
0
100
AcDbLine
370
-1
 62
0
 10
-31.5116908591605
 20
35.4027300542501
 30
0
 11
-4.35902317623363
 21
35.4027300542501
 31
0
  0
TEXT
  5
3D1D
100
AcDbEntity
  8
0
100
AcDbText
370
-1
 62
0
 10
-4.35902317623362
 20
34.8017392005916
 30
0
 40
1
  1
57,80
 50
0
 41
1
 51
0
  7
STANDARD
 71
0
 72
0
 11
0
 21
0
 31
0
100
AcDbText
 73
0
  0
INSERT
  5
3D22
100
AcDbEntity
  8
0
100
AcDbBlockReference
370
-1
 62
0
  6
BYLAYER
  2
_CLOSEDFILLED
 10
-31.5116908591605
 20
35.4027300542501
 30
0
 41
2.5
 42
2.5
 43
2.5
 50
180
  0
INSERT
  5
3D23
100
AcDbEntity
  8
0
100
AcDbBlockReference
370
-1
 62
0
  6
BYLAYER
  2
_CLOSEDFILLED
 10
26.2883091408395
 20
35.4027300542501
 30
0
 41
2.5
 42
2.5
 43
2.5
  0
INSERT
  5
3D24
100
AcDbEntity
  8
0
100
AcDbBlockReference
370
-1
 62
0
  6
BYLAYER
  2
sgCLOSEDFILEDLINE
 10
-31.5116908591605
 20
35.4027300542501
 30
0
 41
2.5
 42
2.5
 43
2.5
  0
INSERT
  5
3D25
100
AcDbEntity
  8
0
100
AcDbBlockReference
370
-1
 62
0
  6
BYLAYER
  2
sgCLOSEDFILEDLINE
 10
26.2883091408395
 20
35.4027300542501
 30
0
 41
2.5
 42
2.5
 43
2.5
  0
ENDBLK
  5
72DC
100
AcDbEntity
  8
0
100
AcDbBlockEnd
  0
BLOCK
  5
3D3F
100
AcDbEntity
  8
0
100
AcDbBlockBegin
  2
*D21
 70
1
 10
0
 20
0
 30
0
  3
*D21
  1

  0
POINT
  5
3D42
100
AcDbEntity
  8
DEFPOINTS
100
AcDbPoint
370
-1
 62
0
  6
BYLAYER
 10
84.0883091408395
 20
25.0936837975677
 30
0
  0
POINT
  5
3D43
100
AcDbEntity
  8
DEFPOINTS
100
AcDbPoint
370
-1
 62
0
  6
BYLAYER
 10
-31.5116908591605
 20
25.0936837975677
 30
0
  0
LINE
  5
3D45
100
AcDbEntity
  8
0
100
AcDbLine
370
-1
 62
0
 10
84.0883091408395
 20
25.9616837975677
 30
0
 11
84.0883091408395
 21
36.2670708513588
 31
0
  0
LINE
  5
3D46
100
AcDbEntity
  8
0
100
AcDbLine
370
-1
 62
0
 10
-31.5116908591605
 20
25.9616837975677
 30
0
 11
-31.5116908591605
 21
36.2670708513588
 31
0
  0
LINE
  5
3D47
100
AcDbEntity
  8
0
100
AcDbLine
370
-1
 62
0
 10
84.0883091408395
 20
33.7670708513588
 30
0
 11
31.6274859701078
 21
33.7670708513588
 31
0
  0
LINE
  5
3D48
100
AcDbEntity
  8
0
100
AcDbLine
370
-1
 62
0
 10
-31.5116908591605
 20
33.7670708513588
 30
0
 11
20.9491323115713
 21
33.7670708513588
 31
0
  0
TEXT
  5
3D44
100
AcDbEntity
  8
0
100
AcDbText
370
-1
 62
0
 10
20.9491323115713
 20
32.2645937172125
 30
0
 40
2.5
  1
115,60
 50
0
 41
1
 51
0
  7
STANDARD
 71
0
 72
0
 11
0
 21
0
 31
0
100
AcDbText
 73
0
  0
INSERT
  5
3D49
100
AcDbEntity
  8
0
100
AcDbBlockReference
370
-1
 62
0
  6
BYLAYER
  2
_CLOSEDFILLED
 10
-31.5116908591605
 20
33.7670708513588
 30
0
 41
2.5
 42
2.5
 43
2.5
 50
180
  0
INSERT
  5
3D4A
100
AcDbEntity
  8
0
100
AcDbBlockReference
370
-1
 62
0
  6
BYLAYER
  2
_CLOSEDFILLED
 10
84.0883091408395
 20
33.7670708513588
 30
0
 41
2.5
 42
2.5
 43
2.5
  0
INSERT
  5
3D4B
100
AcDbEntity
  8
0
100
AcDbBlockReference
370
-1
 62
0
  6
BYLAYER
  2
sgCLOSEDFILEDLINE
 10
-31.5116908591605
 20
33.7670708513588
 30
0
 41
2.5
 42
2.5
 43
2.5
  0
INSERT
  5
3D4C
100
AcDbEntity
  8
0
100
AcDbBlockReference
370
-1
 62
0
  6
BYLAYER
  2
sgCLOSEDFILEDLINE
 10
84.0883091408395
 20
33.7670708513588
 30
0
 41
2.5
 42
2.5
 43
2.5
  0
ENDBLK
  5
72DD
100
AcDbEntity
  8
0
100
AcDbBlockEnd
  0
BLOCK
  5
3D58
100
AcDbEntity
  8
0
100
AcDbBlockBegin
  2
*D22
 70
1
 10
0
 20
0
 30
0
  3
*D22
  1

  0
POINT
  5
6E4C
100
AcDbEntity
  8
DEFPOINTS
100
AcDbPoint
370
-1
 62
0
  6
BYLAYER
 10
31.2883091408395
 20
15.0936837975677
 30
0
  0
POINT
  5
6E4D
100
AcDbEntity
  8
DEFPOINTS
100
AcDbPoint
370
-1
 62
0
  6
BYLAYER
 10
-26.5116908591605
 20
15.0936837975677
 30
0
  0
LINE
  5
6E4F
100
AcDbEntity
  8
0
100
AcDbLine
370
-1
 62
0
 10
31.2883091408395
 20
15.9616837975677
 30
0
 11
31.2883091408395
 21
28.3294237593522
 31
0
  0
LINE
  5
6E50
100
AcDbEntity
  8
0
100
AcDbLine
370
-1
 62
0
 10
-26.5116908591605
 20
15.9616837975677
 30
0
 11
-26.5116908591605
 21
28.3294237593522
 31
0
  0
LINE
  5
6E51
100
AcDbEntity
  8
0
100
AcDbLine
370
-1
 62
0
 10
31.2883091408395
 20
25.8294237593522
 30
0
 11
4.13564145791271
 21
25.8294237593522
 31
0
  0
LINE
  5
6E52
100
AcDbEntity
  8
0
100
AcDbLine
370
-1
 62
0
 10
-26.5116908591605
 20
25.8294237593522
 30
0
 11
0.640976823766371
 21
25.8294237593522
 31
0
  0
TEXT
  5
6E4E
100
AcDbEntity
  8
0
100
AcDbText
370
-1
 62
3
 10
0.640976823766375
 20
25.2284329056937
 30
0
 40
1
  1
57,80
 50
0
 41
1
 51
0
  7
STANDARD
 71
0
 72
0
 11
0
 21
0
 31
0
100
AcDbText
 73
0
  0
INSERT
  5
6E53
100
AcDbEntity
  8
0
100
AcDbBlockReference
370
-1
 62
0
  6
BYLAYER
  2
_CLOSEDFILLED
 10
-26.5116908591605
 20
25.8294237593522
 30
0
 41
1
 42
1
 43
1
 50
180
  0
INSERT
  5
6E54
100
AcDbEntity
  8
0
100
AcDbBlockReference
370
-1
 62
0
  6
BYLAYER
  2
_CLOSEDFILLED
 10
31.2883091408395
 20
25.8294237593522
 30
0
 41
1
 42
1
 43
1
  0
INSERT
  5
6E55
100
AcDbEntity
  8
0
100
AcDbBlockReference
370
-1
 62
0
  6
BYLAYER
  2
sgCLOSEDFILEDLINE
 10
-26.5116908591605
 20
25.8294237593522
 30
0
 41
2.5
 42
2.5
 43
2.5
  0
INSERT
  5
6E56
100
AcDbEntity
  8
0
100
AcDbBlockReference
370
-1
 62
0
  6
BYLAYER
  2
sgCLOSEDFILEDLINE
 10
31.2883091408395
 20
25.8294237593522
 30
0
 41
2.5
 42
2.5
 43
2.5
  0
ENDBLK
  5
72DE
100
AcDbEntity
  8
0
100
AcDbBlockEnd
  0
BLOCK
  5
3DC1
100
AcDbEntity
  8
0
100
AcDbBlockBegin
  2
*D23
 70
1
 10
0
 20
0
 30
0
  3
*D23
  1

  0
POINT
  5
3DF3
100
AcDbEntity
  8
DEFPOINTS
100
AcDbPoint
370
-1
 62
0
  6
BYLAYER
 10
28.7083091408395
 20
27.2336837975677
 30
0
  0
POINT
  5
3DF4
100
AcDbEntity
  8
DEFPOINTS
100
AcDbPoint
370
-1
 62
0
  6
BYLAYER
 10
-33.9316908591605
 20
27.2336837975677
 30
0
  0
LINE
  5
3DF6
100
AcDbEntity
  8
0
100
AcDbLine
370
-1
 62
0
 10
28.7083091408395
 20
28.1016837975677
 30
0
 11
28.7083091408395
 21
38.3294237593522
 31
0
  0
LINE
  5
3DF7
100
AcDbEntity
  8
0
100
AcDbLine
370
-1
 62
0
 10
-33.9316908591605
 20
28.1016837975677
 30
0
 11
-33.9316908591605
 21
38.3294237593522
 31
0
  0
LINE
  5
3DF8
100
AcDbEntity
  8
0
100
AcDbLine
370
-1
 62
0
 10
28.7083091408395
 20
35.8294237593522
 30
0
 11
-0.864358542087285
 21
35.8294237593522
 31
0
  0
LINE
  5
3DF9
100
AcDbEntity
  8
0
100
AcDbLine
370
-1
 62
0
 10
-33.9316908591605
 20
35.8294237593522
 30
0
 11
-4.35902317623363
 21
35.8294237593522
 31
0
  0
TEXT
  5
3DF5
100
AcDbEntity
  8
0
100
AcDbText
370
-1
 62
0
 10
-4.35902317623362
 20
35.2284329056937
 30
0
 40
1
  1
62,64
 50
0
 41
1
 51
0
  7
STANDARD
 71
0
 72
0
 11
0
 21
0
 31
0
100
AcDbText
 73
0
  0
INSERT
  5
3DFA
100
AcDbEntity
  8
0
100
AcDbBlockReference
370
-1
 62
0
  6
BYLAYER
  2
_CLOSEDFILLED
 10
-33.9316908591605
 20
35.8294237593522
 30
0
 41
2.5
 42
2.5
 43
2.5
 50
180
  0
INSERT
  5
3DFB
100
AcDbEntity
  8
0
100
AcDbBlockReference
370
-1
 62
0
  6
BYLAYER
  2
_CLOSEDFILLED
 10
28.7083091408395
 20
35.8294237593522
 30
0
 41
2.5
 42
2.5
 43
2.5
  0
INSERT
  5
3DFC
100
AcDbEntity
  8
0
100
AcDbBlockReference
370
-1
 62
0
  6
BYLAYER
  2
sgCLOSEDFILEDLINE
 10
-33.9316908591605
 20
35.8294237593522
 30
0
 41
2.5
 42
2.5
 43
2.5
  0
INSERT
  5
3DFD
100
AcDbEntity
  8
0
100
AcDbBlockReference
370
-1
 62
0
  6
BYLAYER
  2
sgCLOSEDFILEDLINE
 10
28.7083091408395
 20
35.8294237593522
 30
0
 41
2.5
 42
2.5
 43
2.5
  0
ENDBLK
  5
72DF
100
AcDbEntity
  8
0
100
AcDbBlockEnd
  0
BLOCK
  5
3E17
100
AcDbEntity
  8
0
100
AcDbBlockBegin
  2
*D24
 70
1
 10
0
 20
0
 30
0
  3
*D24
  1

  0
POINT
  5
6E62
100
AcDbEntity
  8
DEFPOINTS
100
AcDbPoint
370
-1
 62
0
  6
BYLAYER
 10
33.7083091408395
 20
17.2336837975677
 30
0
  0
POINT
  5
6E63
100
AcDbEntity
  8
DEFPOINTS
100
AcDbPoint
370
-1
 62
0
  6
BYLAYER
 10
-28.9316908591605
 20
17.2336837975677
 30
0
  0
LINE
  5
6E65
100
AcDbEntity
  8
0
100
AcDbLine
370
-1
 62
0
 10
33.7083091408395
 20
18.1016837975677
 30
0
 11
33.7083091408395
 21
29.7517361096925
 31
0
  0
LINE
  5
6E66
100
AcDbEntity
  8
0
100
AcDbLine
370
-1
 62
0
 10
-28.9316908591605
 20
18.1016837975677
 30
0
 11
-28.9316908591605
 21
29.7517361096925
 31
0
  0
LINE
  5
6E67
100
AcDbEntity
  8
0
100
AcDbLine
370
-1
 62
0
 10
33.7083091408395
 20
27.2517361096925
 30
0
 11
4.13564145791272
 21
27.2517361096925
 31
0
  0
LINE
  5
6E68
100
AcDbEntity
  8
0
100
AcDbLine
370
-1
 62
0
 10
-28.9316908591605
 20
27.2517361096925
 30
0
 11
0.640976823766373
 21
27.2517361096925
 31
0
  0
TEXT
  5
6E64
100
AcDbEntity
  8
0
100
AcDbText
370
-1
 62
3
 10
0.640976823766375
 20
26.650745256034
 30
0
 40
1
  1
62,64
 50
0
 41
1
 51
0
  7
STANDARD
 71
0
 72
0
 11
0
 21
0
 31
0
100
AcDbText
 73
0
  0
INSERT
  5
6E69
100
AcDbEntity
  8
0
100
AcDbBlockReference
370
-1
 62
0
  6
BYLAYER
  2
_CLOSEDFILLED
 10
-28.9316908591605
 20
27.2517361096925
 30
0
 41
1
 42
1
 43
1
 50
180
  0
INSERT
  5
6E6A
100
AcDbEntity
  8
0
100
AcDbBlockReference
370
-1
 62
0
  6
BYLAYER
  2
_CLOSEDFILLED
 10
33.7083091408395
 20
27.2517361096925
 30
0
 41
1
 42
1
 43
1
  0
INSERT
  5
6E6B
100
AcDbEntity
  8
0
100
AcDbBlockReference
370
-1
 62
0
  6
BYLAYER
  2
sgCLOSEDFILEDLINE
 10
-28.9316908591605
 20
27.2517361096925
 30
0
 41
2.5
 42
2.5
 43
2.5
  0
INSERT
  5
6E6C
100
AcDbEntity
  8
0
100
AcDbBlockReference
370
-1
 62
0
  6
BYLAYER
  2
sgCLOSEDFILEDLINE
 10
33.7083091408395
 20
27.2517361096925
 30
0
 41
2.5
 42
2.5
 43
2.5
  0
ENDBLK
  5
72E0
100
AcDbEntity
  8
0
100
AcDbBlockEnd
  0
BLOCK
  5
3E80
100
AcDbEntity
  8
0
100
AcDbBlockBegin
  2
*D25
 70
1
 10
0
 20
0
 30
0
  3
*D25
  1

  0
POINT
  5
3EB2
100
AcDbEntity
  8
DEFPOINTS
100
AcDbPoint
370
-1
 62
0
  6
BYLAYER
 10
32.4283091408395
 20
31.6336837975677
 30
0
  0
POINT
  5
3EB3
100
AcDbEntity
  8
DEFPOINTS
100
AcDbPoint
370
-1
 62
0
  6
BYLAYER
 10
-37.6516908591605
 20
31.6336837975677
 30
0
  0
LINE
  5
3EB5
100
AcDbEntity
  8
0
100
AcDbLine
370
-1
 62
0
 10
32.4283091408395
 20
32.5016837975677
 30
0
 11
32.4283091408395
 21
40.5340079023797
 31
0
  0
LINE
  5
3EB6
100
AcDbEntity
  8
0
100
AcDbLine
370
-1
 62
0
 10
-37.6516908591605
 20
32.5016837975677
 30
0
 11
-37.6516908591605
 21
40.5340079023797
 31
0
  0
LINE
  5
3EB7
100
AcDbEntity
  8
0
100
AcDbLine
370
-1
 62
0
 10
32.4283091408395
 20
38.0340079023797
 30
0
 11
-0.864358542087281
 21
38.0340079023797
 31
0
  0
LINE
  5
3EB8
100
AcDbEntity
  8
0
100
AcDbLine
370
-1
 62
0
 10
-37.6516908591605
 20
38.0340079023797
 30
0
 11
-4.35902317623362
 21
38.0340079023797
 31
0
  0
TEXT
  5
3EB4
100
AcDbEntity
  8
0
100
AcDbText
370
-1
 62
0
 10
-4.35902317623362
 20
37.4330170487211
 30
0
 40
1
  1
70,08
 50
0
 41
1
 51
0
  7
STANDARD
 71
0
 72
0
 11
0
 21
0
 31
0
100
AcDbText
 73
0
  0
INSERT
  5
3EB9
100
AcDbEntity
  8
0
100
AcDbBlockReference
370
-1
 62
0
  6
BYLAYER
  2
_CLOSEDFILLED
 10
-37.6516908591605
 20
38.0340079023797
 30
0
 41
2.5
 42
2.5
 43
2.5
 50
180
  0
INSERT
  5
3EBA
100
AcDbEntity
  8
0
100
AcDbBlockReference
370
-1
 62
0
  6
BYLAYER
  2
_CLOSEDFILLED
 10
32.4283091408395
 20
38.0340079023797
 30
0
 41
2.5
 42
2.5
 43
2.5
  0
INSERT
  5
3EBB
100
AcDbEntity
  8
0
100
AcDbBlockReference
370
-1
 62
0
  6
BYLAYER
  2
sgCLOSEDFILEDLINE
 10
-37.6516908591605
 20
38.0340079023797
 30
0
 41
2.5
 42
2.5
 43
2.5
  0
INSERT
  5
3EBC
100
AcDbEntity
  8
0
100
AcDbBlockReference
370
-1
 62
0
  6
BYLAYER
  2
sgCLOSEDFILEDLINE
 10
32.4283091408395
 20
38.0340079023797
 30
0
 41
2.5
 42
2.5
 43
2.5
  0
ENDBLK
  5
72E1
100
AcDbEntity
  8
0
100
AcDbBlockEnd
  0
BLOCK
  5
3ED6
100
AcDbEntity
  8
0
100
AcDbBlockBegin
  2
*D26
 70
1
 10
0
 20
0
 30
0
  3
*D26
  1

  0
POINT
  5
6E78
100
AcDbEntity
  8
DEFPOINTS
100
AcDbPoint
370
-1
 62
0
  6
BYLAYER
 10
37.4283091408395
 20
21.6336837975677
 30
0
  0
POINT
  5
6E79
100
AcDbEntity
  8
DEFPOINTS
100
AcDbPoint
370
-1
 62
0
  6
BYLAYER
 10
-32.6516908591605
 20
21.6336837975677
 30
0
  0
LINE
  5
6E7B
100
AcDbEntity
  8
0
100
AcDbLine
370
-1
 62
0
 10
37.4283091408395
 20
22.5016837975677
 30
0
 11
37.4283091408395
 21
30.8184703724477
 31
0
  0
LINE
  5
6E7C
100
AcDbEntity
  8
0
100
AcDbLine
370
-1
 62
0
 10
-32.6516908591605
 20
22.5016837975677
 30
0
 11
-32.6516908591605
 21
30.8184703724477
 31
0
  0
LINE
  5
6E7D
100
AcDbEntity
  8
0
100
AcDbLine
370
-1
 62
0
 10
37.4283091408395
 20
28.3184703724477
 30
0
 11
4.13564145791271
 21
28.3184703724477
 31
0
  0
LINE
  5
6E7E
100
AcDbEntity
  8
0
100
AcDbLine
370
-1
 62
0
 10
-32.6516908591605
 20
28.3184703724477
 30
0
 11
0.640976823766377
 21
28.3184703724477
 31
0
  0
TEXT
  5
6E7A
100
AcDbEntity
  8
0
100
AcDbText
370
-1
 62
3
 10
0.640976823766375
 20
27.7174795187892
 30
0
 40
1
  1
70,08
 50
0
 41
1
 51
0
  7
STANDARD
 71
0
 72
0
 11
0
 21
0
 31
0
100
AcDbText
 73
0
  0
INSERT
  5
6E7F
100
AcDbEntity
  8
0
100
AcDbBlockReference
370
-1
 62
0
  6
BYLAYER
  2
_CLOSEDFILLED
 10
-32.6516908591605
 20
28.3184703724477
 30
0
 41
1
 42
1
 43
1
 50
180
  0
INSERT
  5
6E80
100
AcDbEntity
  8
0
100
AcDbBlockReference
370
-1
 62
0
  6
BYLAYER
  2
_CLOSEDFILLED
 10
37.4283091408395
 20
28.3184703724477
 30
0
 41
1
 42
1
 43
1
  0
INSERT
  5
6E81
100
AcDbEntity
  8
0
100
AcDbBlockReference
370
-1
 62
0
  6
BYLAYER
  2
sgCLOSEDFILEDLINE
 10
-32.6516908591605
 20
28.3184703724477
 30
0
 41
2.5
 42
2.5
 43
2.5
  0
INSERT
  5
6E82
100
AcDbEntity
  8
0
100
AcDbBlockReference
370
-1
 62
0
  6
BYLAYER
  2
sgCLOSEDFILEDLINE
 10
37.4283091408395
 20
28.3184703724477
 30
0
 41
2.5
 42
2.5
 43
2.5
  0
ENDBLK
  5
72E2
100
AcDbEntity
  8
0
100
AcDbBlockEnd
  0
BLOCK
  5
3F6D
100
AcDbEntity
  8
0
100
AcDbBlockBegin
  2
*D27
 70
1
 10
0
 20
0
 30
0
  3
*D27
  1

  0
POINT
  5
6E8E
100
AcDbEntity
  8
DEFPOINTS
100
AcDbPoint
370
-1
 62
0
  6
BYLAYER
 10
-25.3116908591604
 20
-13.0063162024323
 30
0
  0
POINT
  5
6E8F
100
AcDbEntity
  8
DEFPOINTS
100
AcDbPoint
370
-1
 62
0
  6
BYLAYER
 10
-25.3116908591604
 20
14.7736837975677
 30
0
  0
LINE
  5
6E91
100
AcDbEntity
  8
0
100
AcDbLine
370
-1
 62
0
 10
-26.1796908591604
 20
-13.0063162024323
 30
0
 11
-40.1220903570042
 21
-13.0063162024323
 31
0
  0
LINE
  5
6E92
100
AcDbEntity
  8
0
100
AcDbLine
370
-1
 62
0
 10
-26.1796908591604
 20
14.7736837975677
 30
0
 11
-40.1220903570042
 21
14.7736837975677
 31
0
  0
LINE
  5
6E93
100
AcDbEntity
  8
0
100
AcDbLine
370
-1
 62
0
 10
-37.6220903570042
 20
-13.0063162024323
 30
0
 11
-37.6220903570042
 21
-1.06181925121282
 31
0
  0
LINE
  5
6E94
100
AcDbEntity
  8
0
100
AcDbLine
370
-1
 62
0
 10
-37.6220903570042
 20
14.7736837975677
 30
0
 11
-37.6220903570042
 21
2.43284538293353
 31
0
  0
TEXT
  5
6E90
100
AcDbEntity
  8
0
100
AcDbText
370
-1
 62
3
 10
-37.219270235053
 20
-1.06181925121282
 30
0
 40
1
  1
27,78
 50
90
 41
1
 51
0
  7
STANDARD
 71
0
 72
0
 11
0
 21
0
 31
0
100
AcDbText
 73
0
  0
INSERT
  5
6E95
100
AcDbEntity
  8
0
100
AcDbBlockReference
370
-1
 62
0
  6
BYLAYER
  2
_CLOSEDFILLED
 10
-37.6220903570042
 20
14.7736837975677
 30
0
 41
1
 42
1
 43
1
 50
90
  0
INSERT
  5
6E96
100
AcDbEntity
  8
0
100
AcDbBlockReference
370
-1
 62
0
  6
BYLAYER
  2
_CLOSEDFILLED
 10
-37.6220903570042
 20
-13.0063162024323
 30
0
 41
1
 42
1
 43
1
 50
270
  0
INSERT
  5
6E97
100
AcDbEntity
  8
0
100
AcDbBlockReference
370
-1
 62
0
  6
BYLAYER
  2
sgCLOSEDFILEDLINE
 10
-37.6220903570042
 20
14.7736837975677
 30
0
 41
2.5
 42
2.5
 43
2.5
 50
270
  0
INSERT
  5
6E98
100
AcDbEntity
  8
0
100
AcDbBlockReference
370
-1
 62
0
  6
BYLAYER
  2
sgCLOSEDFILEDLINE
 10
-37.6220903570042
 20
-13.0063162024323
 30
0
 41
2.5
 42
2.5
 43
2.5
 50
270
  0
ENDBLK
  5
72E3
100
AcDbEntity
  8
0
100
AcDbBlockEnd
  0
BLOCK
  5
3FD6
100
AcDbEntity
  8
0
100
AcDbBlockBegin
  2
*D28
 70
1
 10
0
 20
0
 30
0
  3
*D28
  1

  0
POINT
  5
6EA4
100
AcDbEntity
  8
DEFPOINTS
100
AcDbPoint
370
-1
 62
0
  6
BYLAYER
 10
-26.5116908591605
 20
-14.6663162024323
 30
0
  0
POINT
  5
6EA5
100
AcDbEntity
  8
DEFPOINTS
100
AcDbPoint
370
-1
 62
0
  6
BYLAYER
 10
-26.5116908591605
 20
15.0936837975677
 30
0
  0
LINE
  5
6EA7
100
AcDbEntity
  8
0
100
AcDbLine
370
-1
 62
0
 10
-27.3796908591605
 20
-14.6663162024323
 30
0
 11
-42.4298946071253
 21
-14.6663162024323
 31
0
  0
LINE
  5
6EA8
100
AcDbEntity
  8
0
100
AcDbLine
370
-1
 62
0
 10
-27.3796908591605
 20
15.0936837975677
 30
0
 11
-42.4298946071253
 21
15.0936837975677
 31
0
  0
LINE
  5
6EA9
100
AcDbEntity
  8
0
100
AcDbLine
370
-1
 62
0
 10
-39.9298946071253
 20
-14.6663162024323
 30
0
 11
-39.9298946071253
 21
-1.73181925121282
 31
0
  0
LINE
  5
6EAA
100
AcDbEntity
  8
0
100
AcDbLine
370
-1
 62
0
 10
-39.9298946071253
 20
15.0936837975677
 30
0
 11
-39.9298946071253
 21
1.76284538293353
 31
0
  0
TEXT
  5
6EA6
100
AcDbEntity
  8
0
100
AcDbText
370
-1
 62
3
 10
-39.5270744851741
 20
-1.73181925121282
 30
0
 40
1
  1
29,76
 50
90
 41
1
 51
0
  7
STANDARD
 71
0
 72
0
 11
0
 21
0
 31
0
100
AcDbText
 73
0
  0
INSERT
  5
6EAB
100
AcDbEntity
  8
0
100
AcDbBlockReference
370
-1
 62
0
  6
BYLAYER
  2
_CLOSEDFILLED
 10
-39.9298946071253
 20
15.0936837975677
 30
0
 41
1
 42
1
 43
1
 50
90
  0
INSERT
  5
6EAC
100
AcDbEntity
  8
0
100
AcDbBlockReference
370
-1
 62
0
  6
BYLAYER
  2
_CLOSEDFILLED
 10
-39.9298946071253
 20
-14.6663162024323
 30
0
 41
1
 42
1
 43
1
 50
270
  0
INSERT
  5
6EAD
100
AcDbEntity
  8
0
100
AcDbBlockReference
370
-1
 62
0
  6
BYLAYER
  2
sgCLOSEDFILEDLINE
 10
-39.9298946071253
 20
15.0936837975677
 30
0
 41
2.5
 42
2.5
 43
2.5
 50
270
  0
INSERT
  5
6EAE
100
AcDbEntity
  8
0
100
AcDbBlockReference
370
-1
 62
0
  6
BYLAYER
  2
sgCLOSEDFILEDLINE
 10
-39.9298946071253
 20
-14.6663162024323
 30
0
 41
2.5
 42
2.5
 43
2.5
 50
270
  0
ENDBLK
  5
72E4
100
AcDbEntity
  8
0
100
AcDbBlockEnd
  0
BLOCK
  5
403F
100
AcDbEntity
  8
0
100
AcDbBlockBegin
  2
*D29
 70
1
 10
0
 20
0
 30
0
  3
*D29
  1

  0
POINT
  5
6EBA
100
AcDbEntity
  8
DEFPOINTS
100
AcDbPoint
370
-1
 62
0
  6
BYLAYER
 10
-28.9316908591605
 20
-21.9463162024323
 30
0
  0
POINT
  5
6EBB
100
AcDbEntity
  8
DEFPOINTS
100
AcDbPoint
370
-1
 62
0
  6
BYLAYER
 10
-28.9316908591605
 20
17.2336837975677
 30
0
  0
LINE
  5
6EBD
100
AcDbEntity
  8
0
100
AcDbLine
370
-1
 62
0
 10
-29.7996908591605
 20
-21.9463162024323
 30
0
 11
-44.9189411831312
 21
-21.9463162024323
 31
0
  0
LINE
  5
6EBE
100
AcDbEntity
  8
0
100
AcDbLine
370
-1
 62
0
 10
-29.7996908591605
 20
17.2336837975677
 30
0
 11
-44.9189411831311
 21
17.2336837975677
 31
0
  0
LINE
  5
6EBF
100
AcDbEntity
  8
0
100
AcDbLine
370
-1
 62
0
 10
-42.4189411831312
 20
-21.9463162024323
 30
0
 11
-42.4189411831312
 21
-4.30181925121282
 31
0
  0
LINE
  5
6EC0
100
AcDbEntity
  8
0
100
AcDbLine
370
-1
 62
0
 10
-42.4189411831311
 20
17.2336837975677
 30
0
 11
-42.4189411831311
 21
-0.807154617066471
 31
0
  0
TEXT
  5
6EBC
100
AcDbEntity
  8
0
100
AcDbText
370
-1
 62
3
 10
-42.0161210611799
 20
-4.30181925121282
 30
0
 40
1
  1
39,18
 50
90
 41
1
 51
0
  7
STANDARD
 71
0
 72
0
 11
0
 21
0
 31
0
100
AcDbText
 73
0
  0
INSERT
  5
6EC1
100
AcDbEntity
  8
0
100
AcDbBlockReference
370
-1
 62
0
  6
BYLAYER
  2
_CLOSEDFILLED
 10
-42.4189411831311
 20
17.2336837975677
 30
0
 41
1
 42
1
 43
1
 50
90
  0
INSERT
  5
6EC2
100
AcDbEntity
  8
0
100
AcDbBlockReference
370
-1
 62
0
  6
BYLAYER
  2
_CLOSEDFILLED
 10
-42.4189411831312
 20
-21.9463162024323
 30
0
 41
1
 42
1
 43
1
 50
270
  0
INSERT
  5
6EC3
100
AcDbEntity
  8
0
100
AcDbBlockReference
370
-1
 62
0
  6
BYLAYER
  2
sgCLOSEDFILEDLINE
 10
-42.4189411831311
 20
17.2336837975677
 30
0
 41
2.5
 42
2.5
 43
2.5
 50
270
  0
INSERT
  5
6EC4
100
AcDbEntity
  8
0
100
AcDbBlockReference
370
-1
 62
0
  6
BYLAYER
  2
sgCLOSEDFILEDLINE
 10
-42.4189411831312
 20
-21.9463162024323
 30
0
 41
2.5
 42
2.5
 43
2.5
 50
270
  0
ENDBLK
  5
72E5
100
AcDbEntity
  8
0
100
AcDbBlockEnd
  0
BLOCK
  5
40A8
100
AcDbEntity
  8
0
100
AcDbBlockBegin
  2
*D30
 70
1
 10
0
 20
0
 30
0
  3
*D30
  1

  0
POINT
  5
6ED0
100
AcDbEntity
  8
DEFPOINTS
100
AcDbPoint
370
-1
 62
0
  6
BYLAYER
 10
-32.6516908591605
 20
-26.4063162024323
 30
0
  0
POINT
  5
6ED1
100
AcDbEntity
  8
DEFPOINTS
100
AcDbPoint
370
-1
 62
0
  6
BYLAYER
 10
-32.6516908591605
 20
21.6336837975677
 30
0
  0
LINE
  5
6ED3
100
AcDbEntity
  8
0
100
AcDbLine
370
-1
 62
0
 10
-33.5196908591605
 20
-26.4063162024323
 30
0
 11
-46.7857261151355
 21
-26.4063162024323
 31
0
  0
LINE
  5
6ED4
100
AcDbEntity
  8
0
100
AcDbLine
370
-1
 62
0
 10
-33.5196908591605
 20
21.6336837975677
 30
0
 11
-46.7857261151355
 21
21.6336837975677
 31
0
  0
LINE
  5
6ED5
100
AcDbEntity
  8
0
100
AcDbLine
370
-1
 62
0
 10
-44.2857261151355
 20
-26.4063162024323
 30
0
 11
-44.2857261151355
 21
-4.33181925121282
 31
0
  0
LINE
  5
6ED6
100
AcDbEntity
  8
0
100
AcDbLine
370
-1
 62
0
 10
-44.2857261151355
 20
21.6336837975677
 30
0
 11
-44.2857261151355
 21
-0.837154617066475
 31
0
  0
TEXT
  5
6ED2
100
AcDbEntity
  8
0
100
AcDbText
370
-1
 62
3
 10
-43.8829059931843
 20
-4.33181925121282
 30
0
 40
1
  1
48,04
 50
90
 41
1
 51
0
  7
STANDARD
 71
0
 72
0
 11
0
 21
0
 31
0
100
AcDbText
 73
0
  0
INSERT
  5
6ED7
100
AcDbEntity
  8
0
100
AcDbBlockReference
370
-1
 62
0
  6
BYLAYER
  2
_CLOSEDFILLED
 10
-44.2857261151355
 20
21.6336837975677
 30
0
 41
1
 42
1
 43
1
 50
90
  0
INSERT
  5
6ED8
100
AcDbEntity
  8
0
100
AcDbBlockReference
370
-1
 62
0
  6
BYLAYER
  2
_CLOSEDFILLED
 10
-44.2857261151355
 20
-26.4063162024323
 30
0
 41
1
 42
1
 43
1
 50
270
  0
INSERT
  5
6ED9
100
AcDbEntity
  8
0
100
AcDbBlockReference
370
-1
 62
0
  6
BYLAYER
  2
sgCLOSEDFILEDLINE
 10
-44.2857261151355
 20
21.6336837975677
 30
0
 41
2.5
 42
2.5
 43
2.5
 50
270
  0
INSERT
  5
6EDA
100
AcDbEntity
  8
0
100
AcDbBlockReference
370
-1
 62
0
  6
BYLAYER
  2
sgCLOSEDFILEDLINE
 10
-44.2857261151355
 20
-26.4063162024323
 30
0
 41
2.5
 42
2.5
 43
2.5
 50
270
  0
ENDBLK
  5
72E6
100
AcDbEntity
  8
0
100
AcDbBlockEnd
  0
BLOCK
  5
418C
100
AcDbEntity
  8
0
100
AcDbBlockBegin
  2
*D31
 70
1
 10
0
 20
0
 30
0
  3
*D31
  1

  0
POINT
  5
418F
100
AcDbEntity
  8
DEFPOINTS
100
AcDbPoint
370
-1
 62
0
  6
BYLAYER
 10
1.68830914083954
 20
29.2536837975677
 30
0
  0
POINT
  5
4190
100
AcDbEntity
  8
DEFPOINTS
100
AcDbPoint
370
-1
 62
0
  6
BYLAYER
 10
-6.35169085916046
 20
29.2536837975677
 30
0
  0
LINE
  5
4192
100
AcDbEntity
  8
0
100
AcDbLine
370
-1
 62
0
 10
1.68830914083954
 20
29.6673016827703
 30
0
 11
4.18830914083954
 21
29.6673016827703
 31
0
  0
LINE
  5
4193
100
AcDbEntity
  8
0
100
AcDbLine
370
-1
 62
0
 10
1.68830914083954
 20
30.1216837975677
 30
0
 11
1.68830914083954
 21
32.1673016827703
 31
0
  0
LINE
  5
4194
100
AcDbEntity
  8
0
100
AcDbLine
370
-1
 62
0
 10
-6.35169085916046
 20
30.1216837975677
 30
0
 11
-6.35169085916046
 21
32.1673016827703
 31
0
  0
LINE
  5
4195
100
AcDbEntity
  8
0
100
AcDbLine
370
-1
 62
0
 10
1.68830914083954
 20
29.6673016827703
 30
0
 11
-6.35169085916046
 21
29.6673016827703
 31
0
  0
LINE
  5
4196
100
AcDbEntity
  8
0
100
AcDbLine
370
-1
 62
0
 10
-6.35169085916046
 20
29.6673016827703
 30
0
 11
1.68830914083954
 21
29.6673016827703
 31
0
  0
TEXT
  5
4191
100
AcDbEntity
  8
0
100
AcDbText
370
-1
 62
0
 10
4.28830914083954
 20
28.1648245486239
 30
0
 40
2.5
  1
8,04
 50
0
 41
1
 51
0
  7
STANDARD
 71
0
 72
0
 11
0
 21
0
 31
0
100
AcDbText
 73
0
  0
INSERT
  5
4197
100
AcDbEntity
  8
0
100
AcDbBlockReference
370
-1
 62
0
  6
BYLAYER
  2
_CLOSEDFILLED
 10
-6.35169085916046
 20
29.6673016827703
 30
0
 41
2.5
 42
2.5
 43
2.5
 50
180
  0
INSERT
  5
4198
100
AcDbEntity
  8
0
100
AcDbBlockReference
370
-1
 62
0
  6
BYLAYER
  2
_CLOSEDFILLED
 10
1.68830914083954
 20
29.6673016827703
 30
0
 41
2.5
 42
2.5
 43
2.5
  0
INSERT
  5
4199
100
AcDbEntity
  8
0
100
AcDbBlockReference
370
-1
 62
0
  6
BYLAYER
  2
sgCLOSEDFILEDLINE
 10
-6.35169085916046
 20
29.6673016827703
 30
0
 41
2.5
 42
2.5
 43
2.5
  0
INSERT
  5
419A
100
AcDbEntity
  8
0
100
AcDbBlockReference
370
-1
 62
0
  6
BYLAYER
  2
sgCLOSEDFILEDLINE
 10
1.68830914083954
 20
29.6673016827703
 30
0
 41
2.5
 42
2.5
 43
2.5
  0
ENDBLK
  5
72E7
100
AcDbEntity
  8
0
100
AcDbBlockEnd
  0
BLOCK
  5
41C4
100
AcDbEntity
  8
0
100
AcDbBlockBegin
  2
*D32
 70
1
 10
0
 20
0
 30
0
  3
*D32
  1

  0
POINT
  5
41C7
100
AcDbEntity
  8
DEFPOINTS
100
AcDbPoint
370
-1
 62
0
  6
BYLAYER
 10
35.846067167844
 20
-15.0113756627371
 30
0
  0
POINT
  5
41C8
100
AcDbEntity
  8
DEFPOINTS
100
AcDbPoint
370
-1
 62
0
  6
BYLAYER
 10
28.7957203393652
 20
-13.1222409236869
 30
0
  0
LINE
  5
41CA
100
AcDbEntity
  8
0
100
AcDbLine
370
-1
 62
0
 10
35.846067167844
 20
-15.0113756627371
 30
0
 11
35.846067167844
 21
-15.0113756627371
 31
0
  0
LINE
  5
41CB
100
AcDbEntity
  8
0
100
AcDbLine
370
-1
 62
0
 10
28.7957203393652
 20
-13.1222409236869
 30
0
 11
28.7957203393652
 21
-13.1222409236869
 31
0
  0
LINE
  5
41CC
100
AcDbEntity
  8
0
100
AcDbLine
370
-1
 62
0
 10
28.7957203393652
 20
-13.1222409236869
 30
0
 11
28.7957203393652
 21
-13.1222409236869
 31
0
  0
LINE
  5
41CD
100
AcDbEntity
  8
0
100
AcDbLine
370
-1
 62
0
 10
35.846067167844
 20
-15.0113756627371
 30
0
 11
35.846067167844
 21
-15.0113756627371
 31
0
  0
TEXT
  5
41C9
100
AcDbEntity
  8
0
100
AcDbText
370
-1
 62
0
 10
28.7785316849878
 20
-14.6556372600108
 30
0
 40
2.5
  1
7,30
 50
345
 41
1
 51
0
  7
STANDARD
 71
0
 72
0
 11
0
 21
0
 31
0
100
AcDbText
 73
0
  0
INSERT
  5
41CE
100
AcDbEntity
  8
0
100
AcDbBlockReference
370
-1
 62
0
  6
BYLAYER
  2
_CLOSEDFILLED
 10
28.7957203393652
 20
-13.1222409236869
 30
0
 41
2.5
 42
2.5
 43
2.5
 50
-15
  0
INSERT
  5
41CF
100
AcDbEntity
  8
0
100
AcDbBlockReference
370
-1
 62
0
  6
BYLAYER
  2
_CLOSEDFILLED
 10
35.846067167844
 20
-15.0113756627371
 30
0
 41
2.5
 42
2.5
 43
2.5
 50
165
  0
INSERT
  5
41D0
100
AcDbEntity
  8
0
100
AcDbBlockReference
370
-1
 62
0
  6
BYLAYER
  2
sgCLOSEDFILEDLINE
 10
28.7957203393652
 20
-13.1222409236869
 30
0
 41
2.5
 42
2.5
 43
2.5
 50
165
  0
INSERT
  5
41D1
100
AcDbEntity
  8
0
100
AcDbBlockReference
370
-1
 62
0
  6
BYLAYER
  2
sgCLOSEDFILEDLINE
 10
35.846067167844
 20
-15.0113756627371
 30
0
 41
2.5
 42
2.5
 43
2.5
 50
165
  0
ENDBLK
  5
72E8
100
AcDbEntity
  8
0
100
AcDbBlockEnd
  0
BLOCK
  5
41E6
100
AcDbEntity
  8
0
100
AcDbBlockBegin
  2
*D33
 70
1
 10
0
 20
0
 30
0
  3
*D33
  1

  0
POINT
  5
6EE8
100
AcDbEntity
  8
DEFPOINTS
100
AcDbPoint
370
-1
 62
0
  6
BYLAYER
 10
35.1939102305744
 20
-25.5848880659486
 30
0
  0
POINT
  5
6EE9
100
AcDbEntity
  8
DEFPOINTS
100
AcDbPoint
370
-1
 62
0
  6
BYLAYER
 10
35.1939102305744
 20
-22.3648880659486
 30
0
  0
LINE
  5
6EEB
100
AcDbEntity
  8
0
100
AcDbLine
370
-1
 62
0
 10
39.0148936970827
 20
-26.5848880659486
 30
0
 11
38.0148936970827
 21
-26.5848880659486
 31
0
  0
LINE
  5
6EEC
100
AcDbEntity
  8
0
100
AcDbLine
370
-1
 62
0
 10
39.0148936970827
 20
-25.5848880659486
 30
0
 11
39.0148936970827
 21
-26.5848880659486
 31
0
  0
LINE
  5
6EED
100
AcDbEntity
  8
0
100
AcDbLine
370
-1
 62
0
 10
36.0619102305744
 20
-25.5848880659486
 30
0
 11
41.5148936970827
 21
-25.5848880659486
 31
0
  0
LINE
  5
6EEE
100
AcDbEntity
  8
0
100
AcDbLine
370
-1
 62
0
 10
36.0619102305744
 20
-22.3648880659486
 30
0
 11
41.5148936970827
 21
-22.3648880659486
 31
0
  0
LINE
  5
6EEF
100
AcDbEntity
  8
0
100
AcDbLine
370
-1
 62
0
 10
39.0148936970827
 20
-25.5848880659486
 30
0
 11
39.0148936970827
 21
-22.3648880659486
 31
0
  0
LINE
  5
6EF0
100
AcDbEntity
  8
0
100
AcDbLine
370
-1
 62
0
 10
39.0148936970827
 20
-22.3648880659486
 30
0
 11
39.0148936970827
 21
-25.5848880659486
 31
0
  0
TEXT
  5
6EEA
100
AcDbEntity
  8
0
100
AcDbText
370
-1
 62
3
 10
35.1969058922046
 20
-27.1858789196071
 30
0
 40
1
  1
3,22
 50
0
 41
1
 51
0
  7
STANDARD
 71
0
 72
0
 11
0
 21
0
 31
0
100
AcDbText
 73
0
  0
INSERT
  5
6EF1
100
AcDbEntity
  8
0
100
AcDbBlockReference
370
-1
 62
0
  6
BYLAYER
  2
_CLOSEDFILLED
 10
39.0148936970827
 20
-22.3648880659486
 30
0
 41
1
 42
1
 43
1
 50
90
  0
INSERT
  5
6EF2
100
AcDbEntity
  8
0
100
AcDbBlockReference
370
-1
 62
0
  6
BYLAYER
  2
_CLOSEDFILLED
 10
39.0148936970827
 20
-25.5848880659486
 30
0
 41
1
 42
1
 43
1
 50
270
  0
INSERT
  5
6EF3
100
AcDbEntity
  8
0
100
AcDbBlockReference
370
-1
 62
0
  6
BYLAYER
  2
sgCLOSEDFILEDLINE
 10
39.0148936970827
 20
-22.3648880659486
 30
0
 41
2.5
 42
2.5
 43
2.5
 50
270
  0
INSERT
  5
6EF4
100
AcDbEntity
  8
0
100
AcDbBlockReference
370
-1
 62
0
  6
BYLAYER
  2
sgCLOSEDFILEDLINE
 10
39.0148936970827
 20
-25.5848880659486
 30
0
 41
2.5
 42
2.5
 43
2.5
 50
270
  0
ENDBLK
  5
72E9
100
AcDbEntity
  8
0
100
AcDbBlockEnd
  0
BLOCK
  5
4259
100
AcDbEntity
  8
0
100
AcDbBlockBegin
  2
*D34
 70
1
 10
0
 20
0
 30
0
  3
*D34
  1

  0
POINT
  5
6F00
100
AcDbEntity
  8
DEFPOINTS
100
AcDbPoint
370
-1
 62
0
  6
BYLAYER
 10
8.70830830350616
 20
-26.5467795695305
 30
0
  0
POINT
  5
6F01
100
AcDbEntity
  8
DEFPOINTS
100
AcDbPoint
370
-1
 62
0
  6
BYLAYER
 10
-3.93169169649384
 20
-26.5467795695305
 30
0
  0
LINE
  5
6F03
100
AcDbEntity
  8
0
100
AcDbLine
370
-1
 62
0
 10
8.70830830350616
 20
-27.4147795695305
 30
0
 11
8.70830830350616
 21
-32.6429716048909
 31
0
  0
LINE
  5
6F04
100
AcDbEntity
  8
0
100
AcDbLine
370
-1
 62
0
 10
-3.93169169649384
 20
-27.4147795695305
 30
0
 11
-3.93169169649384
 21
-32.6429716048909
 31
0
  0
LINE
  5
6F05
100
AcDbEntity
  8
0
100
AcDbLine
370
-1
 62
0
 10
8.70830830350616
 20
-30.1429716048909
 30
0
 11
4.13564062057933
 21
-30.1429716048909
 31
0
  0
LINE
  5
6F06
100
AcDbEntity
  8
0
100
AcDbLine
370
-1
 62
0
 10
-3.93169169649384
 20
-30.1429716048909
 30
0
 11
0.640975986432994
 21
-30.1429716048909
 31
0
  0
TEXT
  5
6F02
100
AcDbEntity
  8
0
100
AcDbText
370
-1
 62
3
 10
0.640975986432994
 20
-30.7439624585494
 30
0
 40
1
  1
12,64
 50
0
 41
1
 51
0
  7
STANDARD
 71
0
 72
0
 11
0
 21
0
 31
0
100
AcDbText
 73
0
  0
INSERT
  5
6F07
100
AcDbEntity
  8
0
100
AcDbBlockReference
370
-1
 62
0
  6
BYLAYER
  2
_CLOSEDFILLED
 10
-3.93169169649384
 20
-30.1429716048909
 30
0
 41
1
 42
1
 43
1
 50
180
  0
INSERT
  5
6F08
100
AcDbEntity
  8
0
100
AcDbBlockReference
370
-1
 62
0
  6
BYLAYER
  2
_CLOSEDFILLED
 10
8.70830830350616
 20
-30.1429716048909
 30
0
 41
1
 42
1
 43
1
  0
INSERT
  5
6F09
100
AcDbEntity
  8
0
100
AcDbBlockReference
370
-1
 62
0
  6
BYLAYER
  2
sgCLOSEDFILEDLINE
 10
-3.93169169649384
 20
-30.1429716048909
 30
0
 41
2.5
 42
2.5
 43
2.5
  0
INSERT
  5
6F0A
100
AcDbEntity
  8
0
100
AcDbBlockReference
370
-1
 62
0
  6
BYLAYER
  2
sgCLOSEDFILEDLINE
 10
8.70830830350616
 20
-30.1429716048909
 30
0
 41
2.5
 42
2.5
 43
2.5
  0
ENDBLK
  5
72EA
100
AcDbEntity
  8
0
100
AcDbBlockEnd
  0
BLOCK
  5
44AF
100
AcDbEntity
  8
0
100
AcDbBlockBegin
  2
*D35
 70
1
 10
0
 20
0
 30
0
  3
*D35
  1

  0
POINT
  5
44B2
100
AcDbEntity
  8
DEFPOINTS
100
AcDbPoint
370
-1
 62
0
  6
BYLAYER
 10
64.4283091408395
 20
-16.4063162024323
 30
0
  0
POINT
  5
44B3
100
AcDbEntity
  8
DEFPOINTS
100
AcDbPoint
370
-1
 62
0
  6
BYLAYER
 10
62.4283091408395
 20
-16.4063162024323
 30
0
  0
LINE
  5
44B5
100
AcDbEntity
  8
0
100
AcDbLine
370
-1
 62
0
 10
64.4283091408395
 20
-16.0332892413818
 30
0
 11
69.4283091408395
 21
-16.0332892413818
 31
0
  0
LINE
  5
44B6
100
AcDbEntity
  8
0
100
AcDbLine
370
-1
 62
0
 10
64.4283091408395
 20
-17.2743162024323
 30
0
 11
64.4283091408395
 21
-18.5332892413818
 31
0
  0
LINE
  5
44B7
100
AcDbEntity
  8
0
100
AcDbLine
370
-1
 62
0
 10
62.4283091408395
 20
-17.2743162024323
 30
0
 11
62.4283091408395
 21
-18.5332892413818
 31
0
  0
LINE
  5
44B8
100
AcDbEntity
  8
0
100
AcDbLine
370
-1
 62
0
 10
62.4283091408395
 20
-16.0332892413818
 30
0
 11
62.4283091408395
 21
-16.0332892413818
 31
0
  0
LINE
  5
44B9
100
AcDbEntity
  8
0
100
AcDbLine
370
-1
 62
0
 10
64.4283091408395
 20
-16.0332892413818
 30
0
 11
64.4283091408395
 21
-16.0332892413818
 31
0
  0
TEXT
  5
44B4
100
AcDbEntity
  8
0
100
AcDbText
370
-1
 62
0
 10
69.5283091408395
 20
-17.5357663755282
 30
0
 40
2.5
  1
2,00
 50
0
 41
1
 51
0
  7
STANDARD
 71
0
 72
0
 11
0
 21
0
 31
0
100
AcDbText
 73
0
  0
INSERT
  5
44BA
100
AcDbEntity
  8
0
100
AcDbBlockReference
370
-1
 62
0
  6
BYLAYER
  2
_CLOSEDFILLED
 10
62.4283091408395
 20
-16.0332892413818
 30
0
 41
2.5
 42
2.5
 43
2.5
  0
INSERT
  5
44BB
100
AcDbEntity
  8
0
100
AcDbBlockReference
370
-1
 62
0
  6
BYLAYER
  2
_CLOSEDFILLED
 10
64.4283091408395
 20
-16.0332892413818
 30
0
 41
2.5
 42
2.5
 43
2.5
 50
180
  0
INSERT
  5
44BC
100
AcDbEntity
  8
0
100
AcDbBlockReference
370
-1
 62
0
  6
BYLAYER
  2
sgCLOSEDFILEDLINE
 10
62.4283091408395
 20
-16.0332892413818
 30
0
 41
2.5
 42
2.5
 43
2.5
 50
180
  0
INSERT
  5
44BD
100
AcDbEntity
  8
0
100
AcDbBlockReference
370
-1
 62
0
  6
BYLAYER
  2
sgCLOSEDFILEDLINE
 10
64.4283091408395
 20
-16.0332892413818
 30
0
 41
2.5
 42
2.5
 43
2.5
 50
180
  0
ENDBLK
  5
72EB
100
AcDbEntity
  8
0
100
AcDbBlockEnd
  0
BLOCK
  5
44CA
100
AcDbEntity
  8
0
100
AcDbBlockBegin
  2
*D36
 70
1
 10
0
 20
0
 30
0
  3
*D36
  1

  0
POINT
  5
6F17
100
AcDbEntity
  8
DEFPOINTS
100
AcDbPoint
370
-1
 62
0
  6
BYLAYER
 10
68.4283091408395
 20
-26.4063162024323
 30
0
  0
POINT
  5
6F18
100
AcDbEntity
  8
DEFPOINTS
100
AcDbPoint
370
-1
 62
0
  6
BYLAYER
 10
67.4283091408395
 20
-26.4063162024323
 30
0
  0
LINE
  5
6F1A
100
AcDbEntity
  8
0
100
AcDbLine
370
-1
 62
0
 10
68.4283091408395
 20
-26.3974012596715
 30
0
 11
70.4283091408395
 21
-26.3974012596715
 31
0
  0
LINE
  5
6F1B
100
AcDbEntity
  8
0
100
AcDbLine
370
-1
 62
0
 10
68.4283091408395
 20
-27.2743162024323
 30
0
 11
68.4283091408395
 21
-28.8974012596715
 31
0
  0
LINE
  5
6F1C
100
AcDbEntity
  8
0
100
AcDbLine
370
-1
 62
0
 10
67.4283091408395
 20
-27.2743162024323
 30
0
 11
67.4283091408395
 21
-28.8974012596715
 31
0
  0
LINE
  5
6F1D
100
AcDbEntity
  8
0
100
AcDbLine
370
-1
 62
0
 10
67.4283091408395
 20
-26.3974012596715
 30
0
 11
67.4283091408395
 21
-26.3974012596715
 31
0
  0
LINE
  5
6F1E
100
AcDbEntity
  8
0
100
AcDbLine
370
-1
 62
0
 10
68.4283091408395
 20
-26.3974012596715
 30
0
 11
68.4283091408395
 21
-26.3974012596715
 31
0
  0
TEXT
  5
6F19
100
AcDbEntity
  8
0
100
AcDbText
370
-1
 62
3
 10
70.5283091408395
 20
-26.99839211333
 30
0
 40
1
  1
1,00
 50
0
 41
1
 51
0
  7
STANDARD
 71
0
 72
0
 11
0
 21
0
 31
0
100
AcDbText
 73
0
  0
INSERT
  5
6F1F
100
AcDbEntity
  8
0
100
AcDbBlockReference
370
-1
 62
0
  6
BYLAYER
  2
_CLOSEDFILLED
 10
67.4283091408395
 20
-26.3974012596715
 30
0
 41
1
 42
1
 43
1
  0
INSERT
  5
6F20
100
AcDbEntity
  8
0
100
AcDbBlockReference
370
-1
 62
0
  6
BYLAYER
  2
_CLOSEDFILLED
 10
68.4283091408395
 20
-26.3974012596715
 30
0
 41
1
 42
1
 43
1
 50
180
  0
INSERT
  5
6F21
100
AcDbEntity
  8
0
100
AcDbBlockReference
370
-1
 62
0
  6
BYLAYER
  2
sgCLOSEDFILEDLINE
 10
67.4283091408395
 20
-26.3974012596715
 30
0
 41
2.5
 42
2.5
 43
2.5
 50
180
  0
INSERT
  5
6F22
100
AcDbEntity
  8
0
100
AcDbBlockReference
370
-1
 62
0
  6
BYLAYER
  2
sgCLOSEDFILEDLINE
 10
68.4283091408395
 20
-26.3974012596715
 30
0
 41
2.5
 42
2.5
 43
2.5
 50
180
  0
ENDBLK
  5
72EC
100
AcDbEntity
  8
0
100
AcDbBlockEnd
  0
BLOCK
  5
4561
100
AcDbEntity
  8
0
100
AcDbBlockBegin
  2
*D37
 70
1
 10
0
 20
0
 30
0
  3
*D37
  1

  0
POINT
  5
4564
100
AcDbEntity
  8
DEFPOINTS
100
AcDbPoint
370
-1
 62
0
  6
BYLAYER
 10
63.4380482891216
 20
17.9461722572506
 30
0
  0
POINT
  5
4565
100
AcDbEntity
  8
DEFPOINTS
100
AcDbPoint
370
-1
 62
0
  6
BYLAYER
 10
58.1750129665473
 20
17.9461722572506
 30
0
  0
LINE
  5
4567
100
AcDbEntity
  8
0
100
AcDbLine
370
-1
 62
0
 10
63.4380482891216
 20
35.7852355332841
 30
0
 11
68.4380482891216
 21
35.7852355332841
 31
0
  0
LINE
  5
4568
100
AcDbEntity
  8
0
100
AcDbLine
370
-1
 62
0
 10
63.4380482891216
 20
18.8141722572506
 30
0
 11
63.4380482891216
 21
38.2852355332841
 31
0
  0
LINE
  5
4569
100
AcDbEntity
  8
0
100
AcDbLine
370
-1
 62
0
 10
58.1750129665473
 20
18.8141722572506
 30
0
 11
58.1750129665473
 21
38.2852355332841
 31
0
  0
LINE
  5
456A
100
AcDbEntity
  8
0
100
AcDbLine
370
-1
 62
0
 10
58.1750129665473
 20
35.7852355332841
 30
0
 11
58.1750129665473
 21
35.7852355332841
 31
0
  0
LINE
  5
456B
100
AcDbEntity
  8
0
100
AcDbLine
370
-1
 62
0
 10
63.4380482891216
 20
35.7852355332841
 30
0
 11
63.4380482891216
 21
35.7852355332841
 31
0
  0
TEXT
  5
4566
100
AcDbEntity
  8
0
100
AcDbText
370
-1
 62
0
 10
68.5380482891216
 20
34.2827583991377
 30
0
 40
2.5
  1
5,26
 50
0
 41
1
 51
0
  7
STANDARD
 71
0
 72
0
 11
0
 21
0
 31
0
100
AcDbText
 73
0
  0
INSERT
  5
456C
100
AcDbEntity
  8
0
100
AcDbBlockReference
370
-1
 62
0
  6
BYLAYER
  2
_CLOSEDFILLED
 10
58.1750129665473
 20
35.7852355332841
 30
0
 41
2.5
 42
2.5
 43
2.5
  0
INSERT
  5
456D
100
AcDbEntity
  8
0
100
AcDbBlockReference
370
-1
 62
0
  6
BYLAYER
  2
_CLOSEDFILLED
 10
63.4380482891216
 20
35.7852355332841
 30
0
 41
2.5
 42
2.5
 43
2.5
 50
180
  0
INSERT
  5
456E
100
AcDbEntity
  8
0
100
AcDbBlockReference
370
-1
 62
0
  6
BYLAYER
  2
sgCLOSEDFILEDLINE
 10
58.1750129665473
 20
35.7852355332841
 30
0
 41
2.5
 42
2.5
 43
2.5
 50
180
  0
INSERT
  5
456F
100
AcDbEntity
  8
0
100
AcDbBlockReference
370
-1
 62
0
  6
BYLAYER
  2
sgCLOSEDFILEDLINE
 10
63.4380482891216
 20
35.7852355332841
 30
0
 41
2.5
 42
2.5
 43
2.5
 50
180
  0
ENDBLK
  5
72ED
100
AcDbEntity
  8
0
100
AcDbBlockEnd
  0
BLOCK
  5
459A
100
AcDbEntity
  8
0
100
AcDbBlockBegin
  2
*D38
 70
1
 10
0
 20
0
 30
0
  3
*D38
  1

  0
POINT
  5
459D
100
AcDbEntity
  8
DEFPOINTS
100
AcDbPoint
370
-1
 62
0
  6
BYLAYER
 10
62.4428104285001
 20
18.8141722572506
 30
0
  0
POINT
  5
459E
100
AcDbEntity
  8
DEFPOINTS
100
AcDbPoint
370
-1
 62
0
  6
BYLAYER
 10
58.1750129665473
 20
18.8141722572506
 30
0
  0
LINE
  5
45A0
100
AcDbEntity
  8
0
100
AcDbLine
370
-1
 62
0
 10
62.4428104285001
 20
38.0651037243046
 30
0
 11
67.4428104285001
 21
38.0651037243046
 31
0
  0
LINE
  5
45A1
100
AcDbEntity
  8
0
100
AcDbLine
370
-1
 62
0
 10
62.4428104285001
 20
19.6821722572506
 30
0
 11
62.4428104285001
 21
40.5651037243046
 31
0
  0
LINE
  5
45A2
100
AcDbEntity
  8
0
100
AcDbLine
370
-1
 62
0
 10
58.1750129665473
 20
19.6821722572506
 30
0
 11
58.1750129665473
 21
40.5651037243046
 31
0
  0
LINE
  5
45A3
100
AcDbEntity
  8
0
100
AcDbLine
370
-1
 62
0
 10
58.1750129665473
 20
38.0651037243046
 30
0
 11
58.1750129665473
 21
38.0651037243046
 31
0
  0
LINE
  5
45A4
100
AcDbEntity
  8
0
100
AcDbLine
370
-1
 62
0
 10
62.4428104285001
 20
38.0651037243046
 30
0
 11
62.4428104285001
 21
38.0651037243046
 31
0
  0
TEXT
  5
459F
100
AcDbEntity
  8
0
100
AcDbText
370
-1
 62
0
 10
67.5428104285001
 20
36.5626265901582
 30
0
 40
2.5
  1
4,27
 50
0
 41
1
 51
0
  7
STANDARD
 71
0
 72
0
 11
0
 21
0
 31
0
100
AcDbText
 73
0
  0
INSERT
  5
45A5
100
AcDbEntity
  8
0
100
AcDbBlockReference
370
-1
 62
0
  6
BYLAYER
  2
_CLOSEDFILLED
 10
58.1750129665473
 20
38.0651037243046
 30
0
 41
2.5
 42
2.5
 43
2.5
  0
INSERT
  5
45A6
100
AcDbEntity
  8
0
100
AcDbBlockReference
370
-1
 62
0
  6
BYLAYER
  2
_CLOSEDFILLED
 10
62.4428104285001
 20
38.0651037243046
 30
0
 41
2.5
 42
2.5
 43
2.5
 50
180
  0
INSERT
  5
45A7
100
AcDbEntity
  8
0
100
AcDbBlockReference
370
-1
 62
0
  6
BYLAYER
  2
sgCLOSEDFILEDLINE
 10
58.1750129665473
 20
38.0651037243046
 30
0
 41
2.5
 42
2.5
 43
2.5
 50
180
  0
INSERT
  5
45A8
100
AcDbEntity
  8
0
100
AcDbBlockReference
370
-1
 62
0
  6
BYLAYER
  2
sgCLOSEDFILEDLINE
 10
62.4428104285001
 20
38.0651037243046
 30
0
 41
2.5
 42
2.5
 43
2.5
 50
180
  0
ENDBLK
  5
72EE
100
AcDbEntity
  8
0
100
AcDbBlockEnd
  0
BLOCK
  5
45E2
100
AcDbEntity
  8
0
100
AcDbBlockBegin
  2
*D39
 70
1
 10
0
 20
0
 30
0
  3
*D39
  1

  0
POINT
  5
45E5
100
AcDbEntity
  8
DEFPOINTS
100
AcDbPoint
370
-1
 62
0
  6
BYLAYER
 10
62.4319526835421
 20
17.318110677973
 30
0
  0
POINT
  5
45E6
100
AcDbEntity
  8
DEFPOINTS
100
AcDbPoint
370
-1
 62
0
  6
BYLAYER
 10
58.2035290541334
 20
17.318110677973
 30
0
  0
LINE
  5
45E8
100
AcDbEntity
  8
0
100
AcDbLine
370
-1
 62
0
 10
62.4319526835421
 20
16.5267677279651
 30
0
 11
67.4319526835421
 21
16.5267677279651
 31
0
  0
LINE
  5
45E9
100
AcDbEntity
  8
0
100
AcDbLine
370
-1
 62
0
 10
62.4319526835421
 20
18.186110677973
 30
0
 11
62.4319526835421
 21
19.0267677279651
 31
0
  0
LINE
  5
45EA
100
AcDbEntity
  8
0
100
AcDbLine
370
-1
 62
0
 10
58.2035290541334
 20
18.186110677973
 30
0
 11
58.2035290541334
 21
19.0267677279651
 31
0
  0
LINE
  5
45EB
100
AcDbEntity
  8
0
100
AcDbLine
370
-1
 62
0
 10
58.2035290541334
 20
16.5267677279651
 30
0
 11
58.2035290541334
 21
16.5267677279651
 31
0
  0
LINE
  5
45EC
100
AcDbEntity
  8
0
100
AcDbLine
370
-1
 62
0
 10
62.4319526835421
 20
16.5267677279651
 30
0
 11
62.4319526835421
 21
16.5267677279651
 31
0
  0
TEXT
  5
45E7
100
AcDbEntity
  8
0
100
AcDbText
370
-1
 62
0
 10
67.5319526835421
 20
15.0242905938187
 30
0
 40
2.5
  1
4,23
 50
0
 41
1
 51
0
  7
STANDARD
 71
0
 72
0
 11
0
 21
0
 31
0
100
AcDbText
 73
0
  0
INSERT
  5
45ED
100
AcDbEntity
  8
0
100
AcDbBlockReference
370
-1
 62
0
  6
BYLAYER
  2
_CLOSEDFILLED
 10
58.2035290541334
 20
16.5267677279651
 30
0
 41
2.5
 42
2.5
 43
2.5
  0
INSERT
  5
45EE
100
AcDbEntity
  8
0
100
AcDbBlockReference
370
-1
 62
0
  6
BYLAYER
  2
_CLOSEDFILLED
 10
62.4319526835421
 20
16.5267677279651
 30
0
 41
2.5
 42
2.5
 43
2.5
 50
180
  0
INSERT
  5
45EF
100
AcDbEntity
  8
0
100
AcDbBlockReference
370
-1
 62
0
  6
BYLAYER
  2
sgCLOSEDFILEDLINE
 10
58.2035290541334
 20
16.5267677279651
 30
0
 41
2.5
 42
2.5
 43
2.5
 50
180
  0
INSERT
  5
45F0
100
AcDbEntity
  8
0
100
AcDbBlockReference
370
-1
 62
0
  6
BYLAYER
  2
sgCLOSEDFILEDLINE
 10
62.4319526835421
 20
16.5267677279651
 30
0
 41
2.5
 42
2.5
 43
2.5
 50
180
  0
ENDBLK
  5
72EF
100
AcDbEntity
  8
0
100
AcDbBlockEnd
  0
BLOCK
  5
461B
100
AcDbEntity
  8
0
100
AcDbBlockBegin
  2
*D40
 70
1
 10
0
 20
0
 30
0
  3
*D40
  1

  0
POINT
  5
6F2E
100
AcDbEntity
  8
DEFPOINTS
100
AcDbPoint
370
-1
 62
0
  6
BYLAYER
 10
68.4330779036878
 20
16.1510835085141
 30
0
  0
POINT
  5
6F2F
100
AcDbEntity
  8
DEFPOINTS
100
AcDbPoint
370
-1
 62
0
  6
BYLAYER
 10
63.2030779036878
 20
16.1510835085141
 30
0
  0
LINE
  5
6F31
100
AcDbEntity
  8
0
100
AcDbLine
370
-1
 62
0
 10
68.4330779036878
 20
17.0190835085141
 30
0
 11
68.4330779036878
 21
24.6101293251387
 31
0
  0
LINE
  5
6F32
100
AcDbEntity
  8
0
100
AcDbLine
370
-1
 62
0
 10
63.2030779036878
 20
17.0190835085141
 30
0
 11
63.2030779036878
 21
24.6101293251387
 31
0
  0
LINE
  5
6F33
100
AcDbEntity
  8
0
100
AcDbLine
370
-1
 62
0
 10
68.4330779036878
 20
22.1101293251387
 30
0
 11
67.1770718061268
 21
22.1101293251387
 31
0
  0
LINE
  5
6F34
100
AcDbEntity
  8
0
100
AcDbLine
370
-1
 62
0
 10
63.2030779036878
 20
22.1101293251387
 30
0
 11
64.4590840012488
 21
22.1101293251387
 31
0
  0
TEXT
  5
6F30
100
AcDbEntity
  8
0
100
AcDbText
370
-1
 62
3
 10
64.4590840012488
 20
21.5091384714802
 30
0
 40
1
  1
5,23
 50
0
 41
1
 51
0
  7
STANDARD
 71
0
 72
0
 11
0
 21
0
 31
0
100
AcDbText
 73
0
  0
INSERT
  5
6F35
100
AcDbEntity
  8
0
100
AcDbBlockReference
370
-1
 62
0
  6
BYLAYER
  2
_CLOSEDFILLED
 10
63.2030779036878
 20
22.1101293251387
 30
0
 41
1
 42
1
 43
1
 50
180
  0
INSERT
  5
6F36
100
AcDbEntity
  8
0
100
AcDbBlockReference
370
-1
 62
0
  6
BYLAYER
  2
_CLOSEDFILLED
 10
68.4330779036878
 20
22.1101293251387
 30
0
 41
1
 42
1
 43
1
  0
INSERT
  5
6F37
100
AcDbEntity
  8
0
100
AcDbBlockReference
370
-1
 62
0
  6
BYLAYER
  2
sgCLOSEDFILEDLINE
 10
63.2030779036878
 20
22.1101293251387
 30
0
 41
2.5
 42
2.5
 43
2.5
  0
INSERT
  5
6F38
100
AcDbEntity
  8
0
100
AcDbBlockReference
370
-1
 62
0
  6
BYLAYER
  2
sgCLOSEDFILEDLINE
 10
68.4330779036878
 20
22.1101293251387
 30
0
 41
2.5
 42
2.5
 43
2.5
  0
ENDBLK
  5
72F0
100
AcDbEntity
  8
0
100
AcDbBlockEnd
  0
ENDSEC
  0
SECTION
  2
ENTITIES
  0
LINE
  5
BC
100
AcDbEntity
  8
0
100
AcDbLine
370
-1
  6
BYLAYER
 10
31.2883091408395
 20
-13.0063162024323
 30
0
 11
31.2883091408395
 21
-14.6663162024323
 31
0
  0
LINE
  5
CA
100
AcDbEntity
  8
0
100
AcDbLine
370
-1
  6
BYLAYER
 10
-26.5116908591605
 20
-14.6663162024323
 30
0
 11
31.2883091408395
 21
-14.6663162024323
 31
0
  0
LINE
  5
CE
100
AcDbEntity
  8
0
100
AcDbLine
370
-1
  6
BYLAYER
 10
31.2883091408395
 20
-14.6663162024323
 30
0
 11
31.2883091408395
 21
15.0936837975677
 31
0
  0
LINE
  5
E0
100
AcDbEntity
  8
0
100
AcDbLine
370
-1
  6
BYLAYER
 10
30.0883091408395
 20
-13.0063162024323
 30
0
 11
30.0883091408395
 21
14.7736837975677
 31
0
  0
LWPOLYLINE
  5
E9
100
AcDbEntity
  8
0
100
AcDbPolyline
370
100
  6
BYLAYER
 38
0
 90
4
 70
1
 10
-25.3116908591604
 20
-13.0063162024323
 10
30.0883091408395
 20
-13.0063162024323
 10
30.0883091408395
 20
14.7736837975677
 10
-25.3116908591604
 20
14.7736837975677
  0
LINE
  5
11D
100
AcDbEntity
  8
0
100
AcDbLine
370
-1
  6
BYLAYER
 10
33.7083091408395
 20
-14.6663162024323
 30
0
 11
33.7083091408395
 21
-21.9463162024323
 31
0
  0
LINE
  5
124
100
AcDbEntity
  8
0
100
AcDbLine
370
-1
  6
BYLAYER
 10
33.7083091408395
 20
-21.9463162024323
 30
0
 11
21.0283091408395
 21
-21.9463162024323
 31
0
  0
LINE
  5
150
100
AcDbEntity
  8
0
100
AcDbLine
370
-1
  6
BYLAYER
 10
-26.5116908591605
 20
-14.6663162024323
 30
0
 11
-26.5116908591605
 21
15.0936837975677
 31
0
  0
LINE
  5
152
100
AcDbEntity
  8
0
100
AcDbLine
370
-1
  6
BYLAYER
 10
-26.5116908591605
 20
15.0936837975677
 30
0
 11
31.2883091408395
 21
15.0936837975677
 31
0
  0
LINE
  5
159
100
AcDbEntity
  8
0
100
AcDbLine
370
-1
  6
BYLAYER
 10
33.7083091408395
 20
-21.9463162024323
 30
0
 11
33.7083091408395
 21
17.2336837975677
 31
0
  0
LINE
  5
15B
100
AcDbEntity
  8
0
100
AcDbLine
370
-1
  6
BYLAYER
 10
33.7083091408395
 20
17.2336837975677
 30
0
 11
-28.9316908591605
 21
17.2336837975677
 31
0
  0
LINE
  5
15D
100
AcDbEntity
  8
0
100
AcDbLine
370
-1
  6
BYLAYER
 10
-28.9316908591605
 20
17.2336837975677
 30
0
 11
-28.9316908591605
 21
-21.9463162024323
 31
0
  0
LINE
  5
162
100
AcDbEntity
  8
0
100
AcDbLine
370
-1
  6
BYLAYER
 10
-28.9316908591605
 20
-21.9463162024323
 30
0
 11
-16.2516908591605
 21
-21.9463162024323
 31
0
  0
LINE
  5
170
100
AcDbEntity
  8
0
100
AcDbLine
370
-1
  6
BYLAYER
 10
37.4283091408395
 20
17.2336837975677
 30
0
 11
37.4283091408395
 21
21.1536837975677
 31
0
  0
LINE
  5
178
100
AcDbEntity
  8
0
100
AcDbLine
370
-1
  6
BYLAYER
 10
37.4283091408395
 20
21.1536837975677
 30
0
 11
37.4283091408395
 21
-25.8663162024323
 31
0
  0
CIRCLE
  5
191
100
AcDbEntity
  8
0
100
AcDbCircle
370
-1
  6
BYLAYER
 10
-30.3516908591605
 20
19.2536837975677
 30
0
 40
1.61
  0
CIRCLE
  5
193
100
AcDbEntity
  8
0
100
AcDbCircle
370
-1
  6
BYLAYER
 10
-30.3516908591605
 20
-23.9663162024323
 30
0
 40
1.61
  0
CIRCLE
  5
195
100
AcDbEntity
  8
0
100
AcDbCircle
370
-1
  6
BYLAYER
 10
35.1283091408395
 20
-23.9663162024323
 30
0
 40
1.61
  0
CIRCLE
  5
197
100
AcDbEntity
  8
0
100
AcDbCircle
370
-1
  6
BYLAYER
 10
35.1283091408395
 20
19.2536837975677
 30
0
 40
1.61
  0
CIRCLE
  5
1BC
100
AcDbEntity
  8
0
100
AcDbCircle
370
-1
  6
BYLAYER
 10
-1.35169085916046
 20
19.2536837975677
 30
0
 40
0.62
  0
CIRCLE
  5
1BE
100
AcDbEntity
  8
0
100
AcDbCircle
370
-1
  6
BYLAYER
 10
1.32830914083954
 20
19.2536837975677
 30
0
 40
0.620000000000001
  0
CIRCLE
  5
1C0
100
AcDbEntity
  8
0
100
AcDbCircle
370
-1
  6
BYLAYER
 10
4.00830914083954
 20
19.2536837975677
 30
0
 40
0.62
  0
CIRCLE
  5
1C2
100
AcDbEntity
  8
0
100
AcDbCircle
370
-1
  6
BYLAYER
 10
6.68830914083954
 20
19.2536837975677
 30
0
 40
0.620000000000002
  0
CIRCLE
  5
1DD
100
AcDbEntity
  8
0
100
AcDbCircle
370
-1
  6
BYLAYER
 10
-30.3516908591605
 20
-5.60631620243233
 30
0
 40
0.619999999999999
  0
CIRCLE
  5
1DF
100
AcDbEntity
  8
0
100
AcDbCircle
370
-1
  6
BYLAYER
 10
-30.3516908591605
 20
-2.92631620243233
 30
0
 40
0.619999999999999
  0
CIRCLE
  5
1E1
100
AcDbEntity
  8
0
100
AcDbCircle
370
-1
  6
BYLAYER
 10
-30.3516908591605
 20
-0.246316202432329
 30
0
 40
0.619999999999999
  0
CIRCLE
  5
1E3
100
AcDbEntity
  8
0
100
AcDbCircle
370
-1
  6
BYLAYER
 10
-30.3516908591605
 20
2.43368379756767
 30
0
 40
0.619999999999999
  0
LINE
  5
279
100
AcDbEntity
  8
0
100
AcDbLine
370
-1
  6
BYLAYER
 10
-14.4516908591605
 20
-23.1463162024323
 30
0
 11
19.2283091408395
 21
-23.1463162024323
 31
0
  0
ARC
  5
1E6E
100
AcDbEntity
  8
0
100
AcDbCircle
370
-1
  6
BYLAYER
 10
-16.3009210357632
 20
-22.9951614673364
 30
0
 40
1.05
100
AcDbArc
 50
25.3072133401462
 51
87.3126516078942
  0
ARC
  5
1E70
100
AcDbEntity
  8
0
100
AcDbCircle
370
-1
  6
BYLAYER
 10
-14.4024606825577
 20
-22.0974709375283
 30
0
 40
1.05
100
AcDbArc
 50
205.307213340146
 51
267.312651607894
  0
ARC
  5
1E7D
100
AcDbEntity
  8
0
100
AcDbCircle
370
-1
  6
BYLAYER
 10
21.0775393174423
 20
-22.9951614673364
 30
0
 40
1.05000000000001
100
AcDbArc
 50
92.6873483921061
 51
154.692786659854
  0
ARC
  5
1E7F
100
AcDbEntity
  8
0
100
AcDbCircle
370
-1
  6
BYLAYER
 10
19.1790789642368
 20
-22.0974709375283
 30
0
 40
1.05000000000001
100
AcDbArc
 50
272.687348392106
 51
334.692786659853
  0
ARC
  5
1EA8
100
AcDbEntity
  8
0
100
AcDbCircle
370
-1
  6
BYLAYER
 10
-22.7085012253497
 20
-21.9631265686215
 30
0
 40
0.983333333333334
100
AcDbArc
 50
179.020464452782
 51
270.979535547218
  0
ARC
  5
1EB6
100
AcDbEntity
  8
0
100
AcDbCircle
370
-1
  6
BYLAYER
 10
-17.4948804929713
 20
-21.9631265686215
 30
0
 40
0.983333333333334
100
AcDbArc
 50
269.020464452782
 51
0.979535547217593
  0
LINE
  5
1EC1
100
AcDbEntity
  8
0
100
AcDbLine
370
-1
  6
BYLAYER
 10
-22.6916908591605
 20
-22.9463162024323
 30
0
 11
-17.5116908591605
 21
-22.9463162024323
 31
0
  0
ARC
  5
1ED0
100
AcDbEntity
  8
0
100
AcDbCircle
370
-1
  6
BYLAYER
 10
22.2714987746503
 20
-21.9631265686215
 30
0
 40
0.983333333333328
100
AcDbArc
 50
179.020464452782
 51
270.979535547218
  0
ARC
  5
1ED7
100
AcDbEntity
  8
0
100
AcDbCircle
370
-1
  6
BYLAYER
 10
27.4851195070287
 20
-21.9631265686215
 30
0
 40
0.983333333333328
100
AcDbArc
 50
269.020464452782
 51
0.979535547218013
  0
LINE
  5
1EE0
100
AcDbEntity
  8
0
100
AcDbLine
370
-1
  6
BYLAYER
 10
22.2883091408395
 20
-22.9463162024323
 30
0
 11
27.4683091408395
 21
-22.9463162024323
 31
0
  0
ARC
  5
1F03
100
AcDbEntity
  8
0
100
AcDbCircle
370
-1
  6
BYLAYER
 10
-20.8685012253496
 20
17.2504941637569
 30
0
 40
0.983333333333334
100
AcDbArc
 50
89.0204644527824
 51
180.979535547218
  0
ARC
  5
1F0A
100
AcDbEntity
  8
0
100
AcDbCircle
370
-1
  6
BYLAYER
 10
-15.6548804929713
 20
17.2504941637569
 30
0
 40
0.983333333333334
100
AcDbArc
 50
359.020464452782
 51
90.9795355472177
  0
ARC
  5
1F0C
100
AcDbEntity
  8
0
100
AcDbCircle
370
-1
  6
BYLAYER
 10
20.4314987746504
 20
17.2504941637569
 30
0
 40
0.983333333333328
100
AcDbArc
 50
89.020464452782
 51
180.979535547218
  0
ARC
  5
1F0E
100
AcDbEntity
  8
0
100
AcDbCircle
370
-1
  6
BYLAYER
 10
25.6451195070287
 20
17.2504941637569
 30
0
 40
0.983333333333328
100
AcDbArc
 50
359.020464452782
 51
90.979535547218
  0
LINE
  5
1F18
100
AcDbEntity
  8
0
100
AcDbLine
370
-1
  6
BYLAYER
 10
-20.8516908591605
 20
18.2336837975677
 30
0
 11
-15.6716908591605
 21
18.2336837975677
 31
0
  0
LINE
  5
1F1C
100
AcDbEntity
  8
0
100
AcDbLine
370
-1
  6
BYLAYER
 10
20.4483091408395
 20
18.2336837975677
 30
0
 11
25.6283091408395
 21
18.2336837975677
 31
0
  0
LINE
  5
1FDF
100
AcDbEntity
  8
0
100
AcDbLine
370
-1
  6
BYLAYER
 10
-9.17169085916045
 20
-23.1467454074323
 30
0
 11
-4.29169086252405
 21
-23.1465642205466
 31
0
  0
LINE
  5
21D1
100
AcDbEntity
  8
0
100
AcDbLine
370
-1
  6
BYLAYER
 10
33.7083091408395
 20
21.6336837975677
 30
0
 11
36.0083091408395
 21
21.6336837975677
 31
0
  0
LINE
  5
21DF
100
AcDbEntity
  8
0
100
AcDbLine
370
-1
  6
BYLAYER
 10
37.4283091408395
 20
21.6336837975677
 30
0
 11
-32.6516908591605
 21
21.6336837975677
 31
0
  0
LINE
  5
21E5
100
AcDbEntity
  8
0
100
AcDbLine
370
-1
  6
BYLAYER
 10
37.4283091408395
 20
21.6336837975677
 30
0
 11
37.4283091408395
 21
-26.4063162024323
 31
0
  0
LINE
  5
21EB
100
AcDbEntity
  8
0
100
AcDbLine
370
-1
  6
BYLAYER
 10
-32.6516908591605
 20
21.6336837975677
 30
0
 11
-32.6516908591605
 21
-26.4063162024323
 31
0
  0
ARC
  5
233F
100
AcDbEntity
  8
0
100
AcDbCircle
370
-1
  6
BYLAYER
 10
-10.5814500567073
 20
-24.4365570048855
 30
0
 40
2.025
100
AcDbArc
 50
283.413661903472
 51
346.586338096528
  0
ARC
  5
2341
100
AcDbEntity
  8
0
100
AcDbCircle
370
-1
  6
BYLAYER
 10
15.3580683383863
 20
-24.4365570048855
 30
0
 40
2.025
100
AcDbArc
 50
193.413661903472
 51
256.586338096528
  0
LINE
  5
234A
100
AcDbEntity
  8
0
100
AcDbLine
370
-1
  6
BYLAYER
 10
-32.6516908591605
 20
-26.4063162024323
 30
0
 11
-10.1116908591605
 21
-26.4063162024323
 31
0
  0
LINE
  5
2352
100
AcDbEntity
  8
0
100
AcDbLine
370
-1
  6
BYLAYER
 10
37.4283091408395
 20
-26.4063162024323
 30
0
 11
14.8883091408395
 21
-26.4063162024323
 31
0
  0
LINE
  5
2357
100
AcDbEntity
  8
0
100
AcDbLine
370
-1
  6
BYLAYER
 10
-8.61169085916045
 20
-24.9063162024323
 30
0
 11
-8.61169085916045
 21
-23.1439800267555
 31
0
  0
LINE
  5
235F
100
AcDbEntity
  8
0
100
AcDbLine
370
-1
  6
BYLAYER
 10
13.3883091408395
 20
-24.9063162024323
 30
0
 11
13.3883091408395
 21
-23.1439800264323
 31
0
  0
LINE
  5
2427
100
AcDbEntity
  8
0
100
AcDbLine
370
-1
  6
BYLAYER
 10
-8.61169085916045
 20
-23.1439800267555
 30
0
 11
-3.93169169649384
 21
-23.1467795695305
 31
0
  0
LINE
  5
2429
100
AcDbEntity
  8
0
100
AcDbLine
370
-1
  6
BYLAYER
 10
-3.93169169649384
 20
-23.1467795695305
 30
0
 11
-3.93169169649384
 21
-26.5467795695305
 31
0
  0
LINE
  5
2430
100
AcDbEntity
  8
0
100
AcDbLine
370
-1
  6
BYLAYER
 10
-3.93169169649384
 20
-26.5467795695305
 30
0
 11
8.70830830350616
 21
-26.5467795695305
 31
0
  0
LINE
  5
2432
100
AcDbEntity
  8
0
100
AcDbLine
370
-1
  6
BYLAYER
 10
8.70830830350616
 20
-26.5467795695305
 30
0
 11
8.70830830350616
 21
-23.1467795695305
 31
0
  0
LINE
  5
24B5
100
AcDbEntity
  8
0
100
AcDbLine
370
-1
  6
BYLAYER
 10
-3.93169169649384
 20
-23.1467795695305
 30
0
 11
-2.64169169649384
 21
-23.1467795695305
 31
0
  0
LINE
  5
24B7
100
AcDbEntity
  8
0
100
AcDbLine
370
-1
  6
BYLAYER
 10
-2.64169169649384
 20
-23.1467795695305
 30
0
 11
-2.64169169649384
 21
-24.5867795695305
 31
0
  0
LINE
  5
24B9
100
AcDbEntity
  8
0
100
AcDbLine
370
-1
  6
BYLAYER
 10
-2.64169169649384
 20
-24.5867795695305
 30
0
 11
7.41830830350617
 21
-24.5867795695305
 31
0
  0
LINE
  5
24BB
100
AcDbEntity
  8
0
100
AcDbLine
370
-1
  6
BYLAYER
 10
7.41830830350617
 20
-24.5867795695305
 30
0
 11
7.41830830350617
 21
-23.1467795695305
 31
0
  0
LWPOLYLINE
  5
25A8
100
AcDbEntity
  8
0
100
AcDbPolyline
370
-1
  6
BYLAYER
 38
0
 90
4
 70
1
 10
-2.64169169649384
 20
-23.1467795695305
 10
7.41830830350617
 20
-23.1467795695305
 10
7.41830830350617
 20
-24.5867795695305
 10
-2.64169169649384
 20
-24.5867795695305
  0
HATCH
  5
25B3
100
AcDbEntity
  8
0
100
AcDbHatch
370
-1
 62
1
 10
0
 20
0
 30
0
210
0
220
0
230
1
  2
SOLID
 70
1
 71
0
 91
1
 92
7
 72
0
 73
1
 93
4
 10
-2.64169169649384
 20
-23.1467795695305
 10
7.41830830350617
 20
-23.1467795695305
 10
7.41830830350617
 20
-24.5867795695305
 10
-2.64169169649384
 20
-24.5867795695305
 97
0
 75
0
 76
1
 47
1E-6
 98
0
  0
LINE
  5
264D
100
AcDbEntity
  8
0
100
AcDbLine
370
-1
  6
BYLAYER
 10
67.4283091408395
 20
21.6336837975677
 30
0
 11
67.4283091408395
 21
-26.4063162024323
 31
0
  0
LINE
  5
2651
100
AcDbEntity
  8
0
100
AcDbLine
370
-1
  6
BYLAYER
 10
67.4283091408395
 20
21.6336837975677
 30
0
 11
68.4283091408395
 21
21.6336837975677
 31
0
  0
LINE
  5
2653
100
AcDbEntity
  8
0
100
AcDbLine
370
-1
  6
BYLAYER
 10
68.4283091408395
 20
21.6336837975677
 30
0
 11
68.4283091408395
 21
-26.4063162024323
 31
0
  0
LINE
  5
2655
100
AcDbEntity
  8
0
100
AcDbLine
370
-1
  6
BYLAYER
 10
68.4283091408395
 20
-26.4063162024323
 30
0
 11
67.4283091408395
 21
-26.4063162024323
 31
0
  0
ARC
  5
2687
100
AcDbEntity
  8
0
100
AcDbCircle
370
-1
  6
BYLAYER
 10
63.6958513690542
 20
-21.4547213855269
 30
0
 40
0.491666666666668
100
AcDbArc
 50
179.020464452782
 51
270.979535547218
  0
ARC
  5
268C
100
AcDbEntity
  8
0
100
AcDbCircle
370
-1
  6
BYLAYER
 10
63.6954306539533
 20
16.7625960062807
 30
0
 40
0.491666666666669
100
AcDbArc
 50
89.0204644527824
 51
180.979535547217
  0
LINE
  5
2695
100
AcDbEntity
  8
0
100
AcDbLine
370
-1
  6
BYLAYER
 10
63.2042565521488
 20
-21.4463162024323
 30
0
 11
63.2042565521488
 21
16.7336837975677
 31
0
  0
LINE
  5
26AB
100
AcDbEntity
  8
0
100
AcDbLine
370
-1
  6
BYLAYER
 10
63.7038358370479
 20
17.2541908231861
 30
0
 11
67.4261836572223
 21
17.2541908231861
 31
0
  0
LINE
  5
26B2
100
AcDbEntity
  8
0
100
AcDbLine
370
-1
  6
BYLAYER
 10
63.7042565521488
 20
-21.9463162024323
 30
0
 11
67.4266043721488
 21
-21.9463162024323
 31
0
  0
TEXT
  5
2743
100
AcDbEntity
  8
0
100
AcDbText
370
-1
 10
-2.12641761753719
 20
17.7591202347016
 30
0
 40
0.5
  1
GND
 50
0
 41
1
 51
0
  7
STANDARD
 71
0
 72
0
 11
-15
 21
4.77242986795689
 31
0
100
AcDbText
 73
0
  0
TEXT
  5
274A
100
AcDbEntity
  8
0
100
AcDbText
370
-1
 10
0.756965136769196
 20
17.8012298119348
 30
0
 40
0.5
  1
VDD
 50
0
 41
1
 51
0
  7
STANDARD
 71
0
 72
0
 11
-15.5301692263403
 21
4.70075437916859
 31
0
100
AcDbText
 73
0
  0
TEXT
  5
274D
100
AcDbEntity
  8
0
100
AcDbText
370
-1
 10
3.43751543844501
 20
17.840633958336
 30
0
 40
0.5
  1
SCL
 50
0
 41
1
 51
0
  7
STANDARD
 71
0
 72
0
 11
-15.6291858354436
 21
4.65045231364245
 31
0
100
AcDbText
 73
0
  0
TEXT
  5
274F
100
AcDbEntity
  8
0
100
AcDbText
370
-1
 10
6.06537202980614
 20
17.8375091093626
 30
0
 40
0.5
  1
SDA
 50
0
 41
1
 51
0
  7
STANDARD
 71
0
 72
0
 11
-15.5180725858569
 21
4.554114748307
 31
0
100
AcDbText
 73
0
  0
LWPOLYLINE
  5
27B3
100
AcDbEntity
  8
0
100
AcDbPolyline
370
-1
 62
4
  6
BYLAYER
 38
0
 90
4
 70
1
 10
-62.7913569713148
 20
52.0200746873871
 10
160.964194606266
 20
52.0200746873871
 10
160.964194606266
 20
-85.5754827327739
 10
-62.7913569713148
 20
-85.5754827327739
  0
MTEXT
  5
2812
100
AcDbEntity
  8
SPEC
100
AcDbMText
370
-1
 62
0
 10
93.0615227064226
 20
-79.4995046206941
 30
0
 40
1.17562731523188
  1
{\fArial|b0|i0|c0|p34;\C0;Tumbler}
 50
0
 41
3.63173842430115
  7
romans
 71
1
 11
1
 21
0
 31
0
 73
1
 44
1
  0
LINE
  5
2820
100
AcDbEntity
  8
SPEC
100
AcDbLine
370
-1
 62
0
  6
BYLAYER
 10
97.9822458436193
 20
-70.4925622551415
 30
0
 11
100.074747396782
 21
-69.0210785389559
 31
0
  0
LINE
  5
2821
100
AcDbEntity
  8
SPEC
100
AcDbLine
370
-1
 62
0
  6
BYLAYER
 10
100.074747396782
 20
-73.5598523718254
 30
0
 11
97.9822458436193
 21
-72.0883686556399
 31
0
  0
LINE
  5
2822
100
AcDbEntity
  8
SPEC
100
AcDbLine
370
-1
 62
0
  6
BYLAYER
 10
97.9822458436193
 20
-72.0883686556399
 30
0
 11
97.9822458436193
 21
-70.4925622551412
 31
0
  0
LINE
  5
2823
100
AcDbEntity
  8
SPEC
100
AcDbLine
370
-1
 62
0
  6
BYLAYER
 10
100.074747396782
 20
-69.0210785389556
 30
0
 11
100.074747396782
 21
-73.5598523718254
 31
0
  0
CIRCLE
  5
2824
100
AcDbEntity
  8
SPEC
100
AcDbCircle
370
-1
 62
0
  6
BYLAYER
 10
94.516661788959
 20
-71.2904654553902
 30
0
 40
1.70964037277065
  0
LINE
  5
2825
100
AcDbEntity
  8
SPEC
100
AcDbLine
370
-1
 62
0
  6
BYLAYER
 10
94.516661788959
 20
-73.9119140269707
 30
0
 11
94.516661788959
 21
-68.6690168838102
 31
0
  0
CIRCLE
  5
2826
100
AcDbEntity
  8
SPEC
100
AcDbCircle
370
-1
 62
0
  6
BYLAYER
 10
94.516661788959
 20
-71.2904654553902
 30
0
 40
0.9205814281583
  0
LINE
  5
2827
100
AcDbEntity
  8
SPEC
100
AcDbLine
370
-1
 62
0
  6
BYLAYER
 10
91.5333031543897
 20
-71.2904654553902
 30
0
 11
101.496182088231
 21
-71.2904654553902
 31
0
  0
MTEXT
  5
2828
100
AcDbEntity
  8
SPEC
100
AcDbMText
370
-1
 62
0
 10
153.518983274574
 20
-80.7750633231554
 30
0
 40
1.27639537082312
  1
UNITS:
 50
0
 41
5.88053560256958
  7
romans
 71
7
 11
1
 21
0
 31
0
 73
1
 44
1
  0
MTEXT
  5
282F
100
AcDbEntity
  8
SPEC
100
AcDbMText
370
-1
 62
0
 10
101.827612299401
 20
-78.4272988781515
 30
0
 40
1.06366280901923
  1
DATE
 50
0
 41
4.2166633605957
  7
romans
 71
7
 11
1
 21
0
 31
0
 73
1
 44
1
  0
MTEXT
  5
2836
100
AcDbEntity
  8
SPEC
100
AcDbMText
370
-1
 62
0
 10
154.707348814037
 20
-82.6545079990506
 30
0
 40
1.27639537082312
  1
MM
 50
0
 41
2.87188959121704
  7
romans
 71
7
 11
1
 21
0
 31
0
 73
1
 44
1
  0
MTEXT
  5
283D
100
AcDbEntity
  8
SPEC
100
AcDbMText
370
-1
 62
0
 10
132.282692428819
 20
-80.5162954211606
 30
0
 40
1.17562731523188
  1
SCALE:
 50
0
 41
6.04608345031738
  7
romans
 71
7
 11
1
 21
0
 31
0
 73
1
 44
1
  0
MTEXT
  5
2844
100
AcDbEntity
  8
SPEC
100
AcDbMText
370
-1
 62
0
 10
86.6859032061055
 20
-82.8239472829704
 30
0
 40
1.17562731523182
  1
CHK
 50
0
 41
3.40092182159424
  7
romans
 71
7
 11
1
 21
0
 31
0
 73
1
 44
1
  0
MTEXT
  5
284B
100
AcDbEntity
  8
SPEC
100
AcDbMText
370
-1
 62
0
 10
86.7645132213818
 20
-80.7736073535213
 30
0
 40
1.17562731523188
  1
DWN
 50
0
 41
4.03072214126587
  7
romans
 71
7
 11
1
 21
0
 31
0
 73
1
 44
1
  0
LWPOLYLINE
  5
2852
100
AcDbEntity
  8
SPEC
100
AcDbPolyline
370
-1
 62
4
  6
BYLAYER
 38
0
 90
2
 70
0
 43
0.0687485560774803
 10
108.016729101978
 20
-76.9451046398426
 10
86.1780037640009
 20
-76.9451046398426
  0
LWPOLYLINE
  5
2855
100
AcDbEntity
  8
SPEC
100
AcDbPolyline
370
-1
 62
4
  6
BYLAYER
 38
0
 90
2
 70
0
 43
0.0687485560774803
 10
108.016729101978
 20
-81.1950180411344
 10
86.1780037640009
 20
-81.1950180411344
  0
LWPOLYLINE
  5
2858
100
AcDbEntity
  8
SPEC
100
AcDbPolyline
370
-1
 62
4
  6
BYLAYER
 38
0
 90
2
 70
0
 43
0.0687485560774803
 10
108.016729101978
 20
-74.1407327720654
 10
86.1780037640009
 20
-74.1407327720654
  0
MTEXT
  5
285B
100
AcDbEntity
  8
SPEC
100
AcDbMText
370
-1
 62
0
 10
86.8226288321344
 20
-76.1908335222752
 30
0
 40
1.41075277827826
  1
SHEET: 1 of 1
 50
0
 41
15.5686645507813
  7
romans
 71
7
 11
1
 21
0
 31
0
 73
1
 44
1
  0
MTEXT
  5
2862
100
AcDbEntity
  8
SPEC
100
AcDbMText
370
-1
 62
0
 10
86.830885781802
 20
-78.5879944446221
 30
0
 40
1.17562731523182
  1
APPROVALS
 50
0
 41
11.0844860076904
  7
romans
 71
7
 11
1
 21
0
 31
0
 73
1
 44
1
  0
LWPOLYLINE
  5
2869
100
AcDbEntity
  8
SPEC
100
AcDbPolyline
370
-1
 62
4
  6
BYLAYER
 38
0
 90
2
 70
0
 43
0.0687485560774803
 10
86.1780037640009
 20
-83.1800177435992
 10
108.016729101978
 20
-83.1800177435992
  0
LWPOLYLINE
  5
286C
100
AcDbEntity
  8
SPEC
100
AcDbPolyline
370
-1
 62
4
  6
BYLAYER
 38
0
 90
2
 70
0
 43
0.176726549863815
 10
86.1780037640009
 20
-68.2132672854349
 10
86.1780037640009
 20
-85.1744958464611
  0
LWPOLYLINE
  5
286F
100
AcDbEntity
  8
SPEC
100
AcDbPolyline
370
-1
 62
4
  6
BYLAYER
 38
0
 90
2
 70
0
 43
0.0687485560774803
 10
99.6355455497869
 20
-76.9451046398426
 10
99.6355455497869
 20
-85.1744958464611
  0
LWPOLYLINE
  5
2872
100
AcDbEntity
  8
SPEC
100
AcDbPolyline
370
-1
 62
4
  6
BYLAYER
 38
0
 90
2
 70
0
 43
0.0687485560774803
 10
92.2698247108345
 20
-78.8510101428007
 10
92.2698247108345
 20
-85.1744958464611
  0
LWPOLYLINE
  5
2875
100
AcDbEntity
  8
SPEC
100
AcDbPolyline
370
-1
 62
4
  6
BYLAYER
 38
0
 90
2
 70
0
 43
0.0687485560774803
 10
131.334290815624
 20
-78.8510101428007
 10
131.334290815624
 20
-85.1744958464611
  0
LWPOLYLINE
  5
2878
100
AcDbEntity
  8
SPEC
100
AcDbPolyline
370
-1
 62
4
  6
BYLAYER
 38
0
 90
2
 70
0
 43
0.0687485560774803
 10
151.710741407446
 20
-78.8510101428007
 10
151.710741407446
 20
-83.1800177435992
  0
LWPOLYLINE
  5
287B
100
AcDbEntity
  8
SPEC
100
AcDbPolyline
370
-1
 62
4
  6
BYLAYER
 38
0
 90
2
 70
0
 43
0.176726549863815
 10
108.016729101978
 20
-85.1744958464611
 10
108.016729101978
 20
-68.2842320900167
  0
MTEXT
  5
287E
100
AcDbEntity
  8
SPEC
100
AcDbMText
370
-1
 62
0
 10
132.076502885679
 20
-84.7280029166923
 30
0
 40
0.981757934074707
  1
DO NOT SCALE THIS DRAWING.
 50
0
 41
24.9296398162842
  7
romans
 71
7
 11
1
 21
0
 31
0
 73
1
 44
1
  0
MTEXT
  5
2885
100
AcDbEntity
  8
SPEC
100
AcDbMText
370
-1
 62
0
 10
86.786586048918
 20
-84.7229540909536
 30
0
 40
1.17562731523182
  1
APP
 50
0
 41
3.52688193321228
  7
romans
 71
7
 11
1
 21
0
 31
0
 73
1
 44
1
  0
LWPOLYLINE
  5
288C
100
AcDbEntity
  8
SPEC
100
AcDbPolyline
370
-1
 62
4
  6
BYLAYER
 38
0
 90
2
 70
0
 43
0.0687485560774803
 10
160.92982843766
 20
-78.8510101428007
 10
86.1780037640009
 20
-78.8510101428007
  0
LWPOLYLINE
  5
288F
100
AcDbEntity
  8
SPEC
100
AcDbPolyline
370
-1
 62
4
  6
BYLAYER
 38
0
 90
2
 70
0
 43
0.141381233930588
 10
86.1780037640009
 20
-68.2842320900167
 10
160.92982843766
 20
-68.2842320900167
  0
MTEXT
  5
2892
100
AcDbEntity
  8
SPEC
100
AcDbMText
370
-1
 62
0
 10
109.18296822817
 20
-81.4344801119492
 30
0
 40
1.17562731523184
  1
MODEL NUMBER :
 50
0
 41
16.1228885650635
  7
romans
 71
7
 11
1
 21
0
 31
0
 73
1
 44
1
  0
LWPOLYLINE
  5
2899
100
AcDbEntity
  8
SPEC
100
AcDbPolyline
370
-1
 62
4
  6
BYLAYER
 38
0
 90
2
 70
0
 43
0.0687485560774803
 10
160.884791286467
 20
-83.1800177435992
 10
131.334290815624
 20
-83.1800177435992
  0
LWPOLYLINE
  5
289F
100
AcDbEntity
  8
SPEC
100
AcDbPolyline
370
-1
 62
4
  6
BYLAYER
 38
0
 90
2
 70
0
 43
0.0687485560774803
 10
151.710741407446
 20
-80.9811386818589
 10
131.334290815624
 20
-80.9811386818589
  0
MTEXT
  5
28A2
100
AcDbEntity
  8
0
100
AcDbMText
370
-1
 10
108.758167344919
 20
-71.7014998853936
 30
0
 40
4.04351999999999
  1
{\fSimSun|b1|i0|c101|p7;½ðÒÝ³¿µç×ÓÓÐÏÞ¹«Ë¾}
 50
0
 41
54.8193206787109
  7
STANDARD
 71
1
 11
1
 21
0
 31
0
 73
1
 44
1
  0
MTEXT
  5
28AA
100
AcDbEntity
  8
SPEC
100
AcDbMText
370
-1
 62
0
 10
131.765309062217
 20
-82.9024679501977
 30
0
 40
1.5
  1
{\W1;GENERAL TOL:%%P 0.2}
 50
0
 41
19.5982532501221
  7
±ê×¼
 71
7
 11
1
 21
0
 31
0
 73
1
 44
1
  0
MTEXT
  5
28B1
100
AcDbEntity
  8
SPEC
100
AcDbMText
370
-1
 62
0
 10
109.322117546791
 20
-82.6303824924673
 30
0
 40
1.5
  1
{\fËÎÌå|b0|i0|c134|p2;\C0;2.42´ç4ÕëÄ£¿é}
 50
0
 41
17.7049407958984
  7
±ê×¼
 71
1
 11
1
 21
0
 31
0
 73
1
 44
1
  0
TEXT
  5
3031
100
AcDbEntity
  8
0
100
AcDbText
370
-1
 10
100.31172565115
 20
-80.5817623258102
 30
0
 40
1
  1
2022-08-16
 50
0
 41
1
 51
0
  7
STANDARD
 71
0
 72
0
 11
-2.13346903416901
 21
-0.80005088781337
 31
0
100
AcDbText
 73
0
  0
MTEXT
  5
30AD
100
AcDbEntity
  8
0
100
AcDbMText
370
-1
 62
7
 10
121.414199003273
 20
51.4055556467909
 30
0
 40
1.485986
  1
{\fCIDFont+F5|b0|i0|c0;Date}
 50
0
 41
0
  7
STANDARD
 71
1
 73
1
 44
1
  0
MTEXT
  5
30B4
100
AcDbEntity
  8
0
100
AcDbMText
370
-1
 62
7
 10
110.196141003273
 20
51.4055556467909
 30
0
 40
1.485986
  1
{\fCIDFont+F5|b0|i0|c0;Item}
 50
0
 41
0
  7
STANDARD
 71
1
 73
1
 44
1
  0
LWPOLYLINE
  5
30BB
100
AcDbEntity
  8
0
100
AcDbPolyline
370
-1
 62
4
  6
BYLAYER
 38
0
 90
2
 70
0
 10
108.362465003273
 20
49.1469416467909
 10
160.961632003273
 20
49.1469416467909
  0
MTEXT
  5
30BE
100
AcDbEntity
  8
0
100
AcDbMText
370
-1
 62
7
 10
142.623895003273
 20
51.3630946467909
 30
0
 40
1.485986
  1
{\fCIDFont+F5|b0|i0|c0;Remark}
 50
0
 41
0
  7
STANDARD
 71
1
 73
1
 44
1
  0
MTEXT
  5
30C5
100
AcDbEntity
  8
0
100
AcDbMText
370
-1
 62
7
 10
111.380548003273
 20
48.3998726467909
 30
0
 40
1.485986
  1
{\fCIDFont+F5|b0|i0|c0;A}
 50
0
 41
0
  7
STANDARD
 71
1
 73
1
 44
1
  0
MTEXT
  5
30D3
100
AcDbEntity
  8
0
100
AcDbMText
370
-1
 62
7
 10
119.254727003273
 20
48.3997526467909
 30
0
 40
1.485986
  1
{\fCIDFont+F5|b0|i0|c1|p0;\C256;20220\fCIDFont+F5|b0|i0|c1|p0;816}
 50
0
 41
0
  7
STANDARD
 71
1
 73
1
 44
1
  0
LWPOLYLINE
  5
30DA
100
AcDbEntity
  8
0
100
AcDbPolyline
370
-1
 62
4
  6
BYLAYER
 38
0
 90
2
 70
0
 10
130.904965003273
 20
43.1805876467909
 10
130.904965003273
 20
52.1129206467909
  0
LWPOLYLINE
  5
30DD
100
AcDbEntity
  8
0
100
AcDbPolyline
370
-1
 62
4
  6
BYLAYER
 38
0
 90
2
 70
0
 10
115.876632003273
 20
43.1805876467909
 10
115.876632003273
 20
52.1129206467909
  0
LWPOLYLINE
  5
30E0
100
AcDbEntity
  8
0
100
AcDbPolyline
370
-1
 62
4
  6
BYLAYER
 38
0
 90
2
 70
0
 10
108.362465003273
 20
43.1805876467909
 10
108.362465003273
 20
52.1129206467909
  0
LWPOLYLINE
  5
30E3
100
AcDbEntity
  8
0
100
AcDbPolyline
370
-1
 62
4
  6
BYLAYER
 38
0
 90
2
 70
0
 10
108.362465003273
 20
46.1783166467909
 10
160.961632003273
 20
46.1783166467909
  0
LWPOLYLINE
  5
30E6
100
AcDbEntity
  8
0
100
AcDbPolyline
370
-1
 62
4
  6
BYLAYER
 38
0
 90
2
 70
0
 10
108.362465003273
 20
43.1805876467909
 10
160.961632003273
 20
43.1805876467909
  0
MTEXT
  5
36EE
100
AcDbEntity
  8
0
100
AcDbMText
370
-1
 10
-32.1119512765727
 20
-45.8356927555923
 30
0
 40
2.5
  1
{\fArial|b0|i0|c0|p34;\C256;Notes:\P1.Color:White\P2.Dot Matrix:\fArial|b0|i0|c0|p34;128*64\P3.Driver IC:SSD1309\P4.Interface:IIC}
 50
0
 41
37.2079086303711
  7
STANDARD
 71
0
 73
1
 44
1
  0
DIMENSION
  5
3C7E
100
AcDbEntity
  8
0
100
AcDbDimension
370
-1
  3
STANDARD
  2
*D19
 10
30.0883091408395
 20
27.0023138467316
 30
0
 11
0
 21
0
 31
0
 70
1
 12
0
 22
0
 32
0
100
AcDbAlignedDimension
 13
-25.3116908591604
 23
14.7736837975677
 33
0
 14
30.0883091408395
 24
14.7736837975677
 34
0
1001
ACAD
1000
DSTYLE
1002
{
1070
41
1040
1
1070
42
1040
0.868
1070
44
1040
2.5
1070
73
1070
0
1070
74
1070
0
1070
77
1070
0
1070
140
1040
1
1070
144
1040
1
1070
147
1040
0.1
1070
173
1070
1
1070
174
1070
0
1070
178
1070
3
1070
271
1070
2
1070
342
1005
10
1070
343
1005
10
1070
344
1005
10
1002
}
  0
DIMENSION
  5
3D5A
100
AcDbEntity
  8
0
100
AcDbDimension
370
-1
  3
STANDARD
  2
*D22
 10
31.2883091408395
 20
28.3294237593522
 30
0
 11
0
 21
0
 31
0
 70
1
 12
0
 22
0
 32
0
100
AcDbAlignedDimension
 13
-26.5116908591605
 23
15.0936837975677
 33
0
 14
31.2883091408395
 24
15.0936837975677
 34
0
1001
ACAD
1000
DSTYLE
1002
{
1070
41
1040
1
1070
42
1040
0.868
1070
44
1040
2.5
1070
73
1070
0
1070
74
1070
0
1070
77
1070
0
1070
140
1040
1
1070
144
1040
1
1070
147
1040
0.1
1070
173
1070
1
1070
174
1070
0
1070
178
1070
3
1070
271
1070
2
1070
342
1005
10
1070
343
1005
10
1070
344
1005
10
1002
}
  0
DIMENSION
  5
3E19
100
AcDbEntity
  8
0
100
AcDbDimension
370
-1
  3
STANDARD
  2
*D24
 10
33.7083091408395
 20
29.7517361096925
 30
0
 11
0
 21
0
 31
0
 70
1
 12
0
 22
0
 32
0
100
AcDbAlignedDimension
 13
-28.9316908591605
 23
17.2336837975677
 33
0
 14
33.7083091408395
 24
17.2336837975677
 34
0
1001
ACAD
1000
DSTYLE
1002
{
1070
41
1040
1
1070
42
1040
0.868
1070
44
1040
2.5
1070
73
1070
0
1070
74
1070
0
1070
77
1070
0
1070
140
1040
1
1070
144
1040
1
1070
147
1040
0.1
1070
173
1070
1
1070
174
1070
0
1070
178
1070
3
1070
271
1070
2
1070
342
1005
10
1070
343
1005
10
1070
344
1005
10
1002
}
  0
DIMENSION
  5
3ED8
100
AcDbEntity
  8
0
100
AcDbDimension
370
-1
  3
STANDARD
  2
*D26
 10
37.4283091408395
 20
30.8184703724477
 30
0
 11
0
 21
0
 31
0
 70
1
 12
0
 22
0
 32
0
100
AcDbAlignedDimension
 13
-32.6516908591605
 23
21.6336837975677
 33
0
 14
37.4283091408395
 24
21.6336837975677
 34
0
1001
ACAD
1000
DSTYLE
1002
{
1070
41
1040
1
1070
42
1040
0.868
1070
44
1040
2.5
1070
73
1070
0
1070
74
1070
0
1070
77
1070
0
1070
140
1040
1
1070
144
1040
1
1070
147
1040
0.1
1070
173
1070
1
1070
174
1070
0
1070
178
1070
3
1070
271
1070
2
1070
342
1005
10
1070
343
1005
10
1070
344
1005
10
1002
}
  0
DIMENSION
  5
3F6F
100
AcDbEntity
  8
0
100
AcDbDimension
370
-1
  3
STANDARD
  2
*D27
 10
-40.1220903570042
 20
-13.0063162024323
 30
0
 11
0
 21
0
 31
0
 70
1
 12
0
 22
0
 32
0
100
AcDbAlignedDimension
 13
-25.3116908591604
 23
14.7736837975677
 33
0
 14
-25.3116908591604
 24
-13.0063162024323
 34
0
1001
ACAD
1000
DSTYLE
1002
{
1070
41
1040
1
1070
42
1040
0.868
1070
44
1040
2.5
1070
73
1070
0
1070
74
1070
0
1070
77
1070
0
1070
140
1040
1
1070
144
1040
1
1070
147
1040
0.1
1070
173
1070
1
1070
174
1070
0
1070
178
1070
3
1070
271
1070
2
1070
342
1005
10
1070
343
1005
10
1070
344
1005
10
1002
}
  0
DIMENSION
  5
3FD8
100
AcDbEntity
  8
0
100
AcDbDimension
370
-1
  3
STANDARD
  2
*D28
 10
-42.4298946071253
 20
-14.6663162024323
 30
0
 11
0
 21
0
 31
0
 70
1
 12
0
 22
0
 32
0
100
AcDbAlignedDimension
 13
-26.5116908591605
 23
15.0936837975677
 33
0
 14
-26.5116908591605
 24
-14.6663162024323
 34
0
1001
ACAD
1000
DSTYLE
1002
{
1070
41
1040
1
1070
42
1040
0.868
1070
44
1040
2.5
1070
73
1070
0
1070
74
1070
0
1070
77
1070
0
1070
140
1040
1
1070
144
1040
1
1070
147
1040
0.1
1070
173
1070
1
1070
174
1070
0
1070
178
1070
3
1070
271
1070
2
1070
342
1005
10
1070
343
1005
10
1070
344
1005
10
1002
}
  0
DIMENSION
  5
4041
100
AcDbEntity
  8
0
100
AcDbDimension
370
-1
  3
STANDARD
  2
*D29
 10
-44.9189411831312
 20
-21.9463162024323
 30
0
 11
0
 21
0
 31
0
 70
1
 12
0
 22
0
 32
0
100
AcDbAlignedDimension
 13
-28.9316908591605
 23
17.2336837975677
 33
0
 14
-28.9316908591605
 24
-21.9463162024323
 34
0
1001
ACAD
1000
DSTYLE
1002
{
1070
41
1040
1
1070
42
1040
0.868
1070
44
1040
2.5
1070
73
1070
0
1070
74
1070
0
1070
77
1070
0
1070
140
1040
1
1070
144
1040
1
1070
147
1040
0.1
1070
173
1070
1
1070
174
1070
0
1070
178
1070
3
1070
271
1070
2
1070
342
1005
10
1070
343
1005
10
1070
344
1005
10
1002
}
  0
DIMENSION
  5
40AA
100
AcDbEntity
  8
0
100
AcDbDimension
370
-1
  3
STANDARD
  2
*D30
 10
-46.7857261151355
 20
-26.4063162024323
 30
0
 11
0
 21
0
 31
0
 70
1
 12
0
 22
0
 32
0
100
AcDbAlignedDimension
 13
-32.6516908591605
 23
21.6336837975677
 33
0
 14
-32.6516908591605
 24
-26.4063162024323
 34
0
1001
ACAD
1000
DSTYLE
1002
{
1070
41
1040
1
1070
42
1040
0.868
1070
44
1040
2.5
1070
73
1070
0
1070
74
1070
0
1070
77
1070
0
1070
140
1040
1
1070
144
1040
1
1070
147
1040
0.1
1070
173
1070
1
1070
174
1070
0
1070
178
1070
3
1070
271
1070
2
1070
342
1005
10
1070
343
1005
10
1070
344
1005
10
1002
}
  0
DIMENSION
  5
41E8
100
AcDbEntity
  8
0
100
AcDbDimension
370
-1
  3
STANDARD
  2
*D33
 10
41.5148936970827
 20
-25.5848880659486
 30
0
 11
0
 21
0
 31
0
 70
1
 12
0
 22
0
 32
0
100
AcDbAlignedDimension
 13
35.1939102305744
 23
-22.3648880659486
 33
0
 14
35.1939102305744
 24
-25.5848880659486
 34
0
1001
ACAD
1000
DSTYLE
1002
{
1070
41
1040
1
1070
42
1040
0.868
1070
44
1040
2.5
1070
73
1070
0
1070
74
1070
0
1070
77
1070
0
1070
140
1040
1
1070
144
1040
1
1070
147
1040
0.1
1070
173
1070
1
1070
174
1070
0
1070
178
1070
3
1070
271
1070
2
1070
342
1005
10
1070
343
1005
10
1070
344
1005
10
1002
}
  0
DIMENSION
  5
425B
100
AcDbEntity
  8
0
100
AcDbDimension
370
-1
  3
STANDARD
  2
*D34
 10
8.70830830350616
 20
-32.6429716048909
 30
0
 11
0
 21
0
 31
0
 70
1
 12
0
 22
0
 32
0
100
AcDbAlignedDimension
 13
-3.93169169649384
 23
-26.5467795695305
 33
0
 14
8.70830830350616
 24
-26.5467795695305
 34
0
1001
ACAD
1000
DSTYLE
1002
{
1070
41
1040
1
1070
42
1040
0.868
1070
44
1040
2.5
1070
73
1070
0
1070
74
1070
0
1070
77
1070
0
1070
140
1040
1
1070
144
1040
1
1070
147
1040
0.1
1070
173
1070
1
1070
174
1070
0
1070
178
1070
3
1070
271
1070
2
1070
342
1005
10
1070
343
1005
10
1070
344
1005
10
1002
}
  0
DIMENSION
  5
44CC
100
AcDbEntity
  8
0
100
AcDbDimension
370
-1
  3
STANDARD
  2
*D36
 10
68.4283091408395
 20
-28.8974012596715
 30
0
 11
0
 21
0
 31
0
 70
1
 12
0
 22
0
 32
0
100
AcDbAlignedDimension
 13
67.4283091408395
 23
-26.4063162024323
 33
0
 14
68.4283091408395
 24
-26.4063162024323
 34
0
1001
ACAD
1000
DSTYLE
1002
{
1070
41
1040
1
1070
42
1040
0.868
1070
44
1040
2.5
1070
73
1070
0
1070
74
1070
0
1070
77
1070
0
1070
140
1040
1
1070
144
1040
1
1070
147
1040
0.1
1070
173
1070
1
1070
174
1070
0
1070
178
1070
3
1070
271
1070
2
1070
342
1005
10
1070
343
1005
10
1070
344
1005
10
1002
}
  0
DIMENSION
  5
461D
100
AcDbEntity
  8
0
100
AcDbDimension
370
-1
  3
STANDARD
  2
*D40
 10
68.4330779036878
 20
24.6101293251387
 30
0
 11
0
 21
0
 31
0
 70
1
 12
0
 22
0
 32
0
100
AcDbAlignedDimension
 13
63.2030779036878
 23
16.1510835085141
 33
0
 14
68.4330779036878
 24
16.1510835085141
 34
0
1001
ACAD
1000
DSTYLE
1002
{
1070
41
1040
1
1070
42
1040
0.868
1070
44
1040
2.5
1070
73
1070
0
1070
74
1070
0
1070
77
1070
0
1070
140
1040
1
1070
144
1040
1
1070
147
1040
0.1
1070
173
1070
1
1070
174
1070
0
1070
178
1070
3
1070
271
1070
2
1070
342
1005
10
1070
343
1005
10
1070
344
1005
10
1002
}
  0
MTEXT
  5
473E
100
AcDbEntity
  8
0
100
AcDbMText
370
-1
 62
3
 10
-13.0383930249038
 20
8.06596688009902
 30
0
 40
4
  1
{\ftimes new roman|b0|i0|c101|p0;2.42" OLED}
 50
0
 41
33.1141166687012
  7
STANDARD
 71
1
 11
1
 21
0
 31
0
 73
1
 44
1
  0
MTEXT
  5
4745
100
AcDbEntity
  8
0
100
AcDbMText
370
-1
 62
3
 10
-13.0383930249038
 20
-0.65574579364517
 30
0
 40
4
  1
{\ftimes new roman|b0|i0|c101|p0;128x64 Dots}
 50
0
 41
33.1141166687012
  7
STANDARD
 71
1
 11
1
 21
0
 31
0
 73
1
 44
1
  0
LINE
  5
4A62
100
AcDbEntity
  8
0
100
AcDbLine
370
-1
 62
4
  6
BYLAYER
 10
139.770136504916
 20
-56.4467319436628
 30
0
 11
160.83750985713
 21
-56.4467319436629
 31
0
  0
LINE
  5
4A63
100
AcDbEntity
  8
0
100
AcDbLine
370
-1
 62
4
  6
BYLAYER
 10
139.770136504916
 20
-62.3219319436629
 30
0
 11
160.83750985713
 21
-62.3219319436629
 31
0
  0
MTEXT
  5
4A6A
100
AcDbEntity
  8
0
100
AcDbMText
370
-1
 10
142.64873782951
 20
-58.302417632079
 30
0
 40
2.35007999999999
  1
{\ftimes new roman|b0|i0|c101|p0;3}
 50
0
 41
2.62345147132874
  7
STANDARD
 71
1
 11
1
 21
0
 31
0
 73
1
 44
1
  0
MTEXT
  5
4A71
100
AcDbEntity
  8
0
100
AcDbMText
370
-1
 10
150.516256860425
 20
-58.383418326187
 30
0
 40
2.35007999999999
  1
{\fArial|b0|i0|c0|p34;\C256;SCL}
 50
0
 41
6.56220436096191
  7
STANDARD
 71
1
 11
1
 21
0
 31
0
 73
1
 44
1
  0
MTEXT
  5
4A78
100
AcDbEntity
  8
0
100
AcDbMText
370
-1
 10
142.700587632217
 20
-64.2318458838024
 30
0
 40
2.35007999999999
  1
{\ftimes new roman|b0|i0|c101|p0;4}
 50
0
 41
2.62345147132874
  7
STANDARD
 71
1
 11
1
 21
0
 31
0
 73
1
 44
1
  0
MTEXT
  5
4A7F
100
AcDbEntity
  8
0
100
AcDbMText
370
-1
 10
150.509214353242
 20
-64.2318458838025
 30
0
 40
2.35007999999999
  1
{\ftimes new roman|b0|i0|c101|p0;SDA}
 50
0
 41
6.68608999252319
  7
STANDARD
 71
1
 11
1
 21
0
 31
0
 73
1
 44
1
  0
LINE
  5
4AC0
100
AcDbEntity
  8
0
100
AcDbLine
370
-1
 62
4
  6
BYLAYER
 10
139.770136504915
 20
-38.8211319436628
 30
0
 11
139.770136504915
 21
-68.1971319436629
 31
0
  0
LINE
  5
4AC1
100
AcDbEntity
  8
0
100
AcDbLine
370
-1
 62
4
  6
BYLAYER
 10
139.770136504915
 20
-38.8211319436628
 30
0
 11
160.83750985713
 21
-38.8211319436629
 31
0
  0
LINE
  5
4AC2
100
AcDbEntity
  8
0
100
AcDbLine
370
-1
 62
4
  6
BYLAYER
 10
139.770136504915
 20
-44.696331943663
 30
0
 11
160.83750985713
 21
-44.696331943663
 31
0
  0
LINE
  5
4AC3
100
AcDbEntity
  8
0
100
AcDbLine
370
-1
 62
4
  6
BYLAYER
 10
139.770136504915
 20
-50.5715319436629
 30
0
 11
160.83750985713
 21
-50.571531943663
 31
0
  0
LINE
  5
4AC4
100
AcDbEntity
  8
0
100
AcDbLine
370
-1
 62
4
  6
BYLAYER
 10
147.378033497615
 20
-38.8211319436628
 30
0
 11
147.378033497615
 21
-68.1971319436629
 31
0
  0
MTEXT
  5
4AC5
100
AcDbEntity
  8
0
100
AcDbMText
370
-1
 10
140.986694701285
 20
-40.7310458838025
 30
0
 40
2.35007999999999
  1
{\ftimes new roman|b0|i0|c101|p0;NO}
 50
0
 41
4.92353010177612
  7
STANDARD
 71
1
 11
1
 21
0
 31
0
 73
1
 44
1
  0
MTEXT
  5
4ACC
100
AcDbEntity
  8
0
100
AcDbMText
370
-1
 10
148.795321162706
 20
-40.7310458838025
 30
0
 40
2.35007999999999
  1
{\ftimes new roman|b0|i0|c101|p0;Symbol}
 50
0
 41
10.52467918396
  7
STANDARD
 71
1
 11
1
 21
0
 31
0
 73
1
 44
1
  0
MTEXT
  5
4AD3
100
AcDbEntity
  8
0
100
AcDbMText
370
-1
 10
142.700587632217
 20
-46.6062458838025
 30
0
 40
2.35007999999999
  1
{\ftimes new roman|b0|i0|c101|p0;1}
 50
0
 41
2.62345147132874
  7
STANDARD
 71
1
 11
1
 21
0
 31
0
 73
1
 44
1
  0
MTEXT
  5
4ADA
100
AcDbEntity
  8
0
100
AcDbMText
370
-1
 10
150.509214353242
 20
-46.6062458838024
 30
0
 40
2.35007999999999
  1
{\ftimes new roman|b0|i0|c101|p0;GND}
 50
0
 41
7.30927419662476
  7
STANDARD
 71
1
 11
1
 21
0
 31
0
 73
1
 44
1
  0
MTEXT
  5
4AE1
100
AcDbEntity
  8
0
100
AcDbMText
370
-1
 10
142.700587632217
 20
-52.4814458838024
 30
0
 40
2.35007999999999
  1
{\ftimes new roman|b0|i0|c101|p0;2}
 50
0
 41
2.62345147132874
  7
STANDARD
 71
1
 11
1
 21
0
 31
0
 73
1
 44
1
  0
MTEXT
  5
4AE8
100
AcDbEntity
  8
0
100
AcDbMText
370
-1
 10
150.509214353242
 20
-52.4814458838024
 30
0
 40
2.35007999999999
  1
{\ftimes new roman|b0|i0|c101|p0;VDD}
 50
0
 41
7.35432386398315
  7
STANDARD
 71
1
 11
1
 21
0
 31
0
 73
1
 44
1
  0
ENDSEC
  0
SECTION
  2
OBJECTS
  0
DICTIONARY
  5
72F1
100
AcDbDictionary
  3
ACAD_GROUP
350
72F2
  3
ACAD_MATERIAL
350
72F3
  3
ACAD_WIPEOUT_VARS
350
72F4
  3
ACAD_MLINESTYLE
350
72F5
  3
ACAD_LAYOUT
350
72F6
  0
DICTIONARY
  5
72F2
330
72F1
100
AcDbDictionary
  0
DICTIONARY
  5
72F3
330
72F1
100
AcDbDictionary
  0
WIPEOUTVARIABLES
  5
72F4
330
72F1
100
AcDbWipeoutVariables
 70
1
  0
DICTIONARY
  5
72F5
330
72F1
100
AcDbDictionary
  3
STANDARD
350
72F7
  0
MLINESTYLE
  5
72F7
100
AcDbMlineStyle
  2
STANDARD
 70
0
  3

 62
256
 51
90
 52
90
 71
2
 49
0.5
 62
256
  6
ByLayer
 49
-0.5
 62
256
  6
ByLayer
  0
DICTIONARY
  5
72F6
100
AcDbDictionary
281
1
  3
Model
350
13
  0
LAYOUT
  5
13
102
{ACAD_REACTORS
330
72F6
102
}
330
72F6
100
AcDbPlotSettings
  1

  2
none_device
  4
A4
  6

 40
3.2
 41
3.2
 42
3.2
 43
3.2
 44
210
 45
297
 46
0
 47
0
 48
0
 49
0
 70
1712
 72
1
 73
1
 74
1
 75
0
 76
0
 77
0
 78
100
140
0
141
0
142
1
143
1.03143418467584
147
1
148
148.5
149
105
100
AcDbLayout
  1
Model
 70
1
 71
1
 10
-62.7913569713148
 20
-85.5754827327739
 11
160.964194606266
 21
52.1129206467909
 12
0
 22
0
 32
0
 14
-62.7913569713148
 24
-85.5754827327739
 34
0
 15
160.964194606266
 25
52.1129206467909
 35
0
146
0
 13
0
 23
0
 33
0
 16
1
 26
0
 36
0
 17
0
 27
1
 37
0
 76
0
330
20
  0
DICTIONARY
  5
7270
330
40
100
AcDbDictionary
280
1
281
0
  3
XDATA
360
7271
  0
XRECORD
  5
7271
102
{ACAD_REACTORS
330
7270
102
}
330
7270
100
AcDbXrecord
280
0
 90
0
  1
*sgDim0
  0
DICTIONARY
  5
7272
330
67
100
AcDbDictionary
280
1
281
0
  3
XDATA
360
7273
  0
XRECORD
  5
7273
102
{ACAD_REACTORS
330
7272
102
}
330
7272
100
AcDbXrecord
280
0
 90
0
  1
*sgDim2
  0
DICTIONARY
  5
7274
330
1FC3
100
AcDbDictionary
280
1
281
0
  3
XDATA
360
7275
  0
XRECORD
  5
7275
102
{ACAD_REACTORS
330
7274
102
}
330
7274
100
AcDbXrecord
280
0
 90
0
  1
*sgDim6
  0
DICTIONARY
  5
7276
330
1FF3
100
AcDbDictionary
280
1
281
0
  3
XDATA
360
7277
  0
XRECORD
  5
7277
102
{ACAD_REACTORS
330
7276
102
}
330
7276
100
AcDbXrecord
280
0
 90
0
  1
*sgDim8
  0
DICTIONARY
  5
7278
330
2010
100
AcDbDictionary
280
1
281
0
  3
XDATA
360
7279
  0
XRECORD
  5
7279
102
{ACAD_REACTORS
330
7278
102
}
330
7278
100
AcDbXrecord
280
0
 90
0
  1
*sgDim9
  0
DICTIONARY
  5
727A
330
2058
100
AcDbDictionary
280
1
281
0
  3
XDATA
360
727B
  0
XRECORD
  5
727B
102
{ACAD_REACTORS
330
727A
102
}
330
727A
100
AcDbXrecord
280
0
 90
0
  1
*sgDim12
  0
DICTIONARY
  5
727C
330
2095
100
AcDbDictionary
280
1
281
0
  3
XDATA
360
727D
  0
XRECORD
  5
727D
102
{ACAD_REACTORS
330
727C
102
}
330
727C
100
AcDbXrecord
280
0
 90
0
  1
*sgDim15
  0
DICTIONARY
  5
727E
330
20E8
100
AcDbDictionary
280
1
281
0
  3
XDATA
360
727F
  0
XRECORD
  5
727F
102
{ACAD_REACTORS
330
727E
102
}
330
727E
100
AcDbXrecord
280
0
 90
0
  1
*sgDim18
  0
DICTIONARY
  5
7280
330
2125
100
AcDbDictionary
280
1
281
0
  3
XDATA
360
7281
  0
XRECORD
  5
7281
102
{ACAD_REACTORS
330
7280
102
}
330
7280
100
AcDbXrecord
280
0
 90
0
  1
*sgDim21
  0
DICTIONARY
  5
7282
330
2162
100
AcDbDictionary
280
1
281
0
  3
XDATA
360
7283
  0
XRECORD
  5
7283
102
{ACAD_REACTORS
330
7282
102
}
330
7282
100
AcDbXrecord
280
0
 90
0
  1
*sgDim24
  0
DICTIONARY
  5
7284
330
217F
100
AcDbDictionary
280
1
281
0
  3
XDATA
360
7285
  0
XRECORD
  5
7285
102
{ACAD_REACTORS
330
7284
102
}
330
7284
100
AcDbXrecord
280
0
 90
0
  1
*sgDim25
  0
DICTIONARY
  5
7286
330
2203
100
AcDbDictionary
280
1
281
0
  3
XDATA
360
7287
  0
XRECORD
  5
7287
102
{ACAD_REACTORS
330
7286
102
}
330
7286
100
AcDbXrecord
280
0
 90
0
  1
*sgDim29
  0
DICTIONARY
  5
7288
330
2256
100
AcDbDictionary
280
1
281
0
  3
XDATA
360
7289
  0
XRECORD
  5
7289
102
{ACAD_REACTORS
330
7288
102
}
330
7288
100
AcDbXrecord
280
0
 90
0
  1
*sgDim32
  0
DICTIONARY
  5
728A
330
240A
100
AcDbDictionary
280
1
281
0
  3
XDATA
360
728B
  0
XRECORD
  5
728B
102
{ACAD_REACTORS
330
728A
102
}
330
728A
100
AcDbXrecord
280
0
 90
0
  1
*sgDim36
  0
DICTIONARY
  5
728C
330
3C56
100
AcDbDictionary
280
1
281
0
  3
XDATA
360
728D
  0
XRECORD
  5
728D
102
{ACAD_REACTORS
330
728C
102
}
330
728C
100
AcDbXrecord
280
0
 90
0
  1
*sgDim39
  0
DICTIONARY
  5
728E
330
3C7D
100
AcDbDictionary
280
1
281
0
  3
XDATA
360
728F
  0
XRECORD
  5
728F
102
{ACAD_REACTORS
330
728E
102
}
330
728E
100
AcDbXrecord
280
0
 90
0
  1
*sgDim41
  0
DICTIONARY
  5
7290
330
3CEA
100
AcDbDictionary
280
1
281
0
  3
XDATA
360
7291
  0
XRECORD
  5
7291
102
{ACAD_REACTORS
330
7290
102
}
330
7290
100
AcDbXrecord
280
0
 90
0
  1
*sgDim43
  0
DICTIONARY
  5
7292
330
3D40
100
AcDbDictionary
280
1
281
0
  3
XDATA
360
7293
  0
XRECORD
  5
7293
102
{ACAD_REACTORS
330
7292
102
}
330
7292
100
AcDbXrecord
280
0
 90
0
  1
*sgDim46
  0
DICTIONARY
  5
7294
330
3D59
100
AcDbDictionary
280
1
281
0
  3
XDATA
360
7295
  0
XRECORD
  5
7295
102
{ACAD_REACTORS
330
7294
102
}
330
7294
100
AcDbXrecord
280
0
 90
0
  1
*sgDim47
  0
DICTIONARY
  5
7296
330
3DC2
100
AcDbDictionary
280
1
281
0
  3
XDATA
360
7297
  0
XRECORD
  5
7297
102
{ACAD_REACTORS
330
7296
102
}
330
7296
100
AcDbXrecord
280
0
 90
0
  1
*sgDim49
  0
DICTIONARY
  5
7298
330
3E18
100
AcDbDictionary
280
1
281
0
  3
XDATA
360
7299
  0
XRECORD
  5
7299
102
{ACAD_REACTORS
330
7298
102
}
330
7298
100
AcDbXrecord
280
0
 90
0
  1
*sgDim52
  0
DICTIONARY
  5
729A
330
3E81
100
AcDbDictionary
280
1
281
0
  3
XDATA
360
729B
  0
XRECORD
  5
729B
102
{ACAD_REACTORS
330
729A
102
}
330
729A
100
AcDbXrecord
280
0
 90
0
  1
*sgDim54
  0
DICTIONARY
  5
729C
330
3ED7
100
AcDbDictionary
280
1
281
0
  3
XDATA
360
729D
  0
XRECORD
  5
729D
102
{ACAD_REACTORS
330
729C
102
}
330
729C
100
AcDbXrecord
280
0
 90
0
  1
*sgDim57
  0
DICTIONARY
  5
729E
330
3F6E
100
AcDbDictionary
280
1
281
0
  3
XDATA
360
729F
  0
XRECORD
  5
729F
102
{ACAD_REACTORS
330
729E
102
}
330
729E
100
AcDbXrecord
280
0
 90
0
  1
*sgDim59
  0
DICTIONARY
  5
72A0
330
3FD7
100
AcDbDictionary
280
1
281
0
  3
XDATA
360
72A1
  0
XRECORD
  5
72A1
102
{ACAD_REACTORS
330
72A0
102
}
330
72A0
100
AcDbXrecord
280
0
 90
0
  1
*sgDim61
  0
DICTIONARY
  5
72A2
330
4040
100
AcDbDictionary
280
1
281
0
  3
XDATA
360
72A3
  0
XRECORD
  5
72A3
102
{ACAD_REACTORS
330
72A2
102
}
330
72A2
100
AcDbXrecord
280
0
 90
0
  1
*sgDim63
  0
DICTIONARY
  5
72A4
330
40A9
100
AcDbDictionary
280
1
281
0
  3
XDATA
360
72A5
  0
XRECORD
  5
72A5
102
{ACAD_REACTORS
330
72A4
102
}
330
72A4
100
AcDbXrecord
280
0
 90
0
  1
*sgDim65
  0
DICTIONARY
  5
72A6
330
418D
100
AcDbDictionary
280
1
281
0
  3
XDATA
360
72A7
  0
XRECORD
  5
72A7
102
{ACAD_REACTORS
330
72A6
102
}
330
72A6
100
AcDbXrecord
280
0
 90
0
  1
*sgDim68
  0
DICTIONARY
  5
72A8
330
41C5
100
AcDbDictionary
280
1
281
0
  3
XDATA
360
72A9
  0
XRECORD
  5
72A9
102
{ACAD_REACTORS
330
72A8
102
}
330
72A8
100
AcDbXrecord
280
0
 90
0
  1
*sgDim71
  0
DICTIONARY
  5
72AA
330
41E7
100
AcDbDictionary
280
1
281
0
  3
XDATA
360
72AB
  0
XRECORD
  5
72AB
102
{ACAD_REACTORS
330
72AA
102
}
330
72AA
100
AcDbXrecord
280
0
 90
0
  1
*sgDim72
  0
DICTIONARY
  5
72AC
330
425A
100
AcDbDictionary
280
1
281
0
  3
XDATA
360
72AD
  0
XRECORD
  5
72AD
102
{ACAD_REACTORS
330
72AC
102
}
330
72AC
100
AcDbXrecord
280
0
 90
0
  1
*sgDim74
  0
DICTIONARY
  5
72AE
330
44B0
100
AcDbDictionary
280
1
281
0
  3
XDATA
360
72AF
  0
XRECORD
  5
72AF
102
{ACAD_REACTORS
330
72AE
102
}
330
72AE
100
AcDbXrecord
280
0
 90
0
  1
*sgDim87
  0
DICTIONARY
  5
72B0
330
44CB
100
AcDbDictionary
280
1
281
0
  3
XDATA
360
72B1
  0
XRECORD
  5
72B1
102
{ACAD_REACTORS
330
72B0
102
}
330
72B0
100
AcDbXrecord
280
0
 90
0
  1
*sgDim88
  0
DICTIONARY
  5
72B2
330
4562
100
AcDbDictionary
280
1
281
0
  3
XDATA
360
72B3
  0
XRECORD
  5
72B3
102
{ACAD_REACTORS
330
72B2
102
}
330
72B2
100
AcDbXrecord
280
0
 90
0
  1
*sgDim90
  0
DICTIONARY
  5
72B4
330
459B
100
AcDbDictionary
280
1
281
0
  3
XDATA
360
72B5
  0
XRECORD
  5
72B5
102
{ACAD_REACTORS
330
72B4
102
}
330
72B4
100
AcDbXrecord
280
0
 90
0
  1
*sgDim93
  0
DICTIONARY
  5
72B6
330
45E3
100
AcDbDictionary
280
1
281
0
  3
XDATA
360
72B7
  0
XRECORD
  5
72B7
102
{ACAD_REACTORS
330
72B6
102
}
330
72B6
100
AcDbXrecord
280
0
 90
0
  1
*sgDim97
  0
DICTIONARY
  5
72B8
330
461C
100
AcDbDictionary
280
1
281
0
  3
XDATA
360
72B9
  0
XRECORD
  5
72B9
102
{ACAD_REACTORS
330
72B8
102
}
330
72B8
100
AcDbXrecord
280
0
 90
0
  1
*sgDim100
  0
DICTIONARY
  5
72F8
100
AcDbDictionary
280
1
  3
XINFO
360
72F9
  0
XRECORD
  5
72F9
102
{ACAD_REACTORS
330
72F8
102
}
330
72F8
100
AcDbXrecord
280
0
310
0900000000000E00
311
2ED4A073A5DA5554
  0
ENDSEC
  0
EOF
